<svg width="394" height="435" viewBox="0 0 394 435" fill="none" xmlns="http://www.w3.org/2000/svg">
<path d="M393.999 292.022H224.375V193.864H393.999V292.022ZM225.41 290.987H392.964V194.899H225.41V290.987Z" fill="#E0E0E0"/>
<path d="M359.007 246.204H247.094V249.485H359.007V246.204Z" fill="#F0F0F0"/>
<path d="M366.718 258.437H247.094V262.018H366.718V258.437Z" fill="#F0F0F0"/>
<path d="M366.718 270.817H247.094V274.398H366.718V270.817Z" fill="#F0F0F0"/>
<path d="M286.206 228.432H247.094V236.95H286.206V228.432Z" fill="#F0F0F0"/>
<path d="M393.48 194.382H224.922V210.01H393.48V194.382Z" fill="#E0E0E0"/>
<path d="M380.513 207.671C380.296 207.464 382.469 204.846 385.357 201.824C388.244 198.802 390.78 196.514 390.987 196.711C391.194 196.907 389.031 199.536 386.143 202.569C383.256 205.601 380.72 207.878 380.513 207.671Z" fill="white"/>
<path d="M391.009 207.67C390.802 207.877 388.276 205.6 385.378 202.568C382.48 199.535 380.317 196.917 380.535 196.71C380.752 196.503 383.267 198.78 386.165 201.822C389.063 204.865 391.205 207.463 391.009 207.67Z" fill="white"/>
<path d="M150.808 51.8328H38.8945V55.1138H150.808V51.8328Z" fill="#F0F0F0"/>
<path d="M158.519 64.0669H38.8945V67.648H158.519V64.0669Z" fill="#F0F0F0"/>
<path d="M158.519 76.4441H38.8945V80.0252H158.519V76.4441Z" fill="#F0F0F0"/>
<path d="M78.0068 34.0626H38.8945V42.5806H78.0068V34.0626Z" fill="#F0F0F0"/>
<path d="M185.273 0H16.7148V15.6283H185.273V0Z" fill="#E0E0E0"/>
<path d="M171.734 13.2173C171.516 13.0206 173.69 10.3917 176.577 7.36957C179.465 4.3474 182.001 2.06008 182.208 2.26708C182.415 2.47408 180.252 5.0926 177.364 8.11477C174.476 11.1369 171.941 13.4036 171.734 13.2173Z" fill="white"/>
<path d="M182.208 13.2161C182.001 13.4231 179.476 11.1461 176.578 8.11357C173.68 5.08106 171.516 2.47289 171.734 2.26589C171.951 2.05889 174.466 4.33586 177.364 7.36838C180.262 10.4009 182.425 13.0194 182.208 13.2161Z" fill="white"/>
<path d="M174.751 106.767H55.127V110.348H174.751V106.767Z" fill="#F0F0F0"/>
<path d="M174.751 119.146H55.127V122.727H174.751V119.146Z" fill="#F0F0F0"/>
<path d="M189.661 46.813C189.624 47.6577 189.341 48.4731 188.845 49.1579C188.349 49.8427 187.663 50.3668 186.872 50.6651C186.081 50.9634 185.219 51.0227 184.395 50.8358C183.57 50.6488 182.819 50.2237 182.234 49.6134C181.648 49.003 181.255 48.2343 181.104 47.4025C180.952 46.5708 181.047 45.7127 181.379 44.9349C181.71 44.1571 182.263 43.4937 182.968 43.0272C183.673 42.5607 184.5 42.3116 185.345 42.3108C186.514 42.338 187.624 42.827 188.433 43.6707C189.242 44.5145 189.683 45.6444 189.661 46.813V46.813Z" fill="white"/>
<path d="M205.879 43.7688C206.453 44.3919 206.831 45.1701 206.966 46.0063C207.1 46.8426 206.986 47.7 206.637 48.4717C206.287 49.2434 205.719 49.8953 205.002 50.3461C204.285 50.797 203.451 51.0268 202.604 51.0071C201.757 50.9873 200.935 50.7188 200.24 50.235C199.544 49.7512 199.007 49.0735 198.694 48.2864C198.381 47.4992 198.307 46.6374 198.48 45.8083C198.654 44.9792 199.067 44.2195 199.67 43.6239C200.513 42.8212 201.64 42.3857 202.804 42.4129C203.969 42.44 205.074 42.9276 205.879 43.7688V43.7688Z" fill="white"/>
<path d="M224.622 46.813C224.585 47.6577 224.302 48.4731 223.806 49.1579C223.31 49.8427 222.624 50.3668 221.833 50.6651C221.042 50.9634 220.18 51.0227 219.356 50.8358C218.531 50.6488 217.78 50.2237 217.194 49.6134C216.609 49.003 216.216 48.2343 216.064 47.4025C215.912 46.5708 216.008 45.7127 216.34 44.9349C216.671 44.1571 217.224 43.4937 217.929 43.0272C218.634 42.5607 219.461 42.3116 220.306 42.3108C221.475 42.338 222.585 42.827 223.394 43.6707C224.203 44.5145 224.644 45.6444 224.622 46.813V46.813Z" fill="white"/>
<path d="M328.743 433.743C328.743 433.888 256.874 434.012 168.248 434.012C79.6214 434.012 7.7207 433.888 7.7207 433.743C7.7207 433.598 79.58 433.474 168.248 433.474C256.915 433.474 328.743 433.609 328.743 433.743Z" fill="#0D395A"/>
<path d="M258.717 307.04C242.726 295.872 239.104 275.141 239.735 256.501C239.839 253.396 239.497 250.105 240.977 247.383C242.457 244.661 245.914 242.788 248.698 244.092C251.006 245.179 252.01 247.869 253.304 250.095C255.03 253.059 257.56 255.473 260.601 257.06C262.577 258.095 265.03 258.716 266.987 257.64C269.677 256.16 269.988 252.465 269.967 249.36C269.967 243.585 269.933 237.816 269.864 232.055C269.678 228.961 269.992 225.858 270.795 222.864C271.758 219.925 273.9 217.203 276.829 216.375C279.758 215.547 283.412 217.255 284.074 220.277C284.188 221.557 284.219 222.843 284.167 224.127C284.25 225.421 284.85 226.839 286.061 227.232C287.272 227.625 288.535 226.725 289.466 225.814C292.654 222.709 294.828 218.662 296.846 214.667C298.864 210.672 300.841 206.563 303.739 203.158C306.637 199.753 310.642 197.052 315.124 196.793C319.605 196.534 324.273 199.287 325.391 203.634C326.509 207.981 323.973 212.421 321.251 215.95C317.143 221.189 312.302 225.808 306.875 229.664C305.816 230.242 304.97 231.146 304.463 232.241C303.791 234.311 305.747 236.381 307.786 237.033C310.094 237.799 312.598 237.561 315.031 237.851C317.463 238.141 320.05 239.196 320.972 241.473C322.234 244.64 319.585 247.952 316.987 250.126C311.771 254.473 305.847 257.893 299.475 260.238C297.198 261.066 294.807 261.8 292.965 263.394C291.122 264.988 290.025 267.772 291.133 269.956C292.24 272.14 295.086 272.833 297.477 272.388C299.868 271.943 301.99 270.66 304.267 269.801C308.521 268.197 314.006 268.486 316.687 272.161C317.517 273.426 318.043 274.867 318.222 276.37C318.402 277.874 318.231 279.398 317.722 280.824C316.686 283.661 315.092 286.262 313.033 288.472C306.254 296.571 297.447 302.725 287.51 306.305C277.647 309.72 268.508 310.652 258.707 307.061" fill="#3B46E7"/>
<path d="M320.837 199.351C320.837 199.351 320.744 199.454 320.537 199.641L319.616 200.458C318.808 201.183 317.618 202.239 316.118 203.636C311.863 207.586 307.911 211.852 304.298 216.397C301.99 219.264 299.599 222.514 297.053 226.043C294.507 229.573 291.878 233.381 289.27 237.428C286.489 241.696 283.943 246.111 281.642 250.655C280.441 253.025 279.386 255.499 278.299 258.024L275.091 265.735C270.861 275.448 267.178 285.389 264.058 295.512C261.544 303.795 259.812 312.294 258.883 320.9C258.281 326.708 258.184 332.557 258.593 338.381C258.758 340.451 258.914 342.035 259.059 343.111C259.121 343.628 259.162 344.042 259.203 344.343V344.767C259.159 344.632 259.128 344.494 259.11 344.353C259.059 344.053 258.996 343.649 258.914 343.132C258.727 342.097 258.531 340.461 258.344 338.391C257.845 332.556 257.88 326.688 258.448 320.859C259.319 312.216 261.014 303.677 263.509 295.357C266.603 285.205 270.276 275.239 274.511 265.507L277.802 257.828C278.889 255.313 279.955 252.818 281.166 250.438C283.483 245.88 286.05 241.454 288.856 237.18C291.505 233.04 294.176 229.293 296.691 225.795C299.206 222.297 301.638 219.026 303.936 216.17C307.586 211.637 311.59 207.401 315.91 203.501C317.442 202.125 318.664 201.09 319.492 200.396L320.454 199.62C320.572 199.517 320.7 199.427 320.837 199.351V199.351Z" fill="#0D395A"/>
<path d="M281.302 250.415C281.156 249.988 281.055 249.548 281.001 249.1C280.836 248.241 280.65 247.03 280.432 245.457C279.987 242.352 279.532 238.098 279.045 233.389C278.559 228.68 278.01 224.416 277.555 221.342C277.317 219.81 277.11 218.579 276.965 217.72C276.852 217.28 276.793 216.828 276.789 216.374C276.967 216.789 277.096 217.223 277.172 217.668C277.4 218.516 277.658 219.738 277.948 221.28C278.538 224.385 279.118 228.608 279.604 233.327C280.091 238.047 280.505 242.187 280.826 245.405C280.981 246.854 281.115 248.086 281.219 249.069C281.299 249.513 281.327 249.965 281.302 250.415V250.415Z" fill="#0D395A"/>
<path d="M321.127 242.985C320.623 243.095 320.11 243.157 319.595 243.172C318.56 243.265 317.09 243.389 315.269 243.596C311.626 243.989 306.616 244.714 301.12 245.749C295.625 246.784 290.688 247.953 287.138 248.854C285.368 249.309 283.94 249.723 282.998 250.003C282.495 250.181 281.975 250.306 281.445 250.375C281.924 250.135 282.422 249.937 282.936 249.785C283.909 249.444 285.316 248.968 287.076 248.461C290.605 247.426 295.542 246.194 301.058 245.138C305.731 244.245 310.447 243.588 315.186 243.172C317.018 243.017 318.498 242.954 319.533 242.934C320.065 242.898 320.599 242.915 321.127 242.985Z" fill="#0D395A"/>
<path d="M264.015 294.631C263.905 294.481 263.815 294.318 263.746 294.145L263.063 292.706C262.473 291.454 261.676 289.601 260.724 287.334C258.799 282.781 256.346 276.405 253.738 269.326C251.13 262.246 248.729 255.871 246.907 251.265C246.017 249.03 245.282 247.198 244.733 245.831L244.154 244.351C244.074 244.181 244.018 243.999 243.988 243.813C244.099 243.963 244.189 244.127 244.257 244.3L244.94 245.738C245.52 246.991 246.327 248.843 247.28 251.11C249.205 255.664 251.658 262.039 254.266 269.119C256.874 276.198 259.275 282.574 261.097 287.179C261.987 289.415 262.722 291.247 263.26 292.613C263.498 293.203 263.694 293.648 263.85 294.093C263.93 294.264 263.986 294.445 264.015 294.631V294.631Z" fill="#0D395A"/>
<path d="M316.883 277.584C316.718 277.679 316.54 277.752 316.356 277.802L314.824 278.319L309.162 280.151C304.381 281.703 297.778 283.918 290.533 286.361C283.288 288.803 276.653 290.977 271.841 292.426C269.44 293.161 267.483 293.72 266.128 294.092L264.565 294.496C264.383 294.554 264.196 294.592 264.006 294.61C264.172 294.515 264.349 294.442 264.534 294.392L266.065 293.875L271.727 292.043C276.509 290.49 283.112 288.276 290.357 285.833C297.602 283.39 304.226 281.217 309.038 279.768C311.45 279.033 313.396 278.474 314.762 278.102L316.325 277.698C316.506 277.64 316.694 277.602 316.883 277.584V277.584Z" fill="#0D395A"/>
<path d="M295.315 26.5253L289.985 28.4297L287.697 21.4642C283.495 8.61998 270.103 1.79939 257.797 6.136C245.491 10.4726 238.939 24.5588 243.141 37.403L245.428 44.3685L240.078 46.2832C238.037 47.0746 236.38 48.6219 235.451 50.6034C234.522 52.5849 234.392 54.8482 235.089 56.9229L249.92 102.245C250.228 103.272 250.739 104.227 251.423 105.052C252.108 105.878 252.951 106.558 253.903 107.051C254.855 107.544 255.896 107.841 256.965 107.924C258.034 108.007 259.109 107.874 260.125 107.534L315.363 87.776C317.43 86.9859 319.11 85.425 320.051 83.4213C320.991 81.4177 321.117 79.1277 320.403 77.0328L305.561 31.7106C305.245 30.6864 304.727 29.7364 304.035 28.9171C303.344 28.0979 302.495 27.4263 301.539 26.9423C300.583 26.4584 299.539 26.1721 298.469 26.1004C297.4 26.0288 296.327 26.1733 295.315 26.5253V26.5253ZM253.212 33.7702C252.079 30.4305 252.282 26.7819 253.779 23.5889C255.276 20.3958 257.951 17.906 261.243 16.6411C262.869 16.085 264.59 15.8619 266.303 15.9854C268.017 16.1088 269.688 16.5761 271.217 17.3595C272.746 18.1429 274.102 19.2262 275.203 20.5449C276.304 21.8636 277.129 23.3907 277.627 25.0349L279.904 32.0004L255.489 40.7357L253.212 33.7702ZM284.261 73.9899L288.049 85.5611C288.119 85.7931 288.096 86.043 287.987 86.2589C287.877 86.4747 287.688 86.64 287.459 86.7203L282.15 88.6143C281.939 88.6729 281.713 88.6474 281.52 88.5432C281.327 88.439 281.182 88.2642 281.115 88.0554L277.296 76.536C275.19 76.4212 273.169 75.6659 271.505 74.3711C269.84 73.0763 268.61 71.3039 267.981 69.2911C267.081 66.63 267.245 63.7239 268.439 61.1812C269.633 58.6385 271.765 56.6564 274.387 55.6499C275.682 55.2075 277.053 55.0303 278.418 55.1288C279.783 55.2274 281.114 55.5998 282.332 56.2237C283.55 56.8476 284.629 57.7103 285.507 58.7604C286.384 59.8105 287.041 61.0265 287.439 62.3359C288.105 64.3806 288.16 66.5751 287.597 68.6506C287.035 70.7261 285.879 72.5924 284.272 74.0209L284.261 73.9899Z" fill="#3B46E7"/>
<path d="M289.744 28.3054C289.744 28.4503 279.86 32.1659 267.564 36.5853C255.269 41.0047 245.239 44.5547 245.188 44.4512C245.136 44.3477 255.072 40.601 267.378 36.1713C279.684 31.7415 289.692 28.1708 289.744 28.3054Z" fill="#0D395A"/>
<path d="M301.48 30.2093C301.526 30.2991 301.564 30.3926 301.594 30.4888C301.677 30.6958 301.77 30.9649 301.894 31.2961C302.163 32.0516 302.536 33.0969 303.002 34.401L306.976 45.9722C308.632 50.8781 310.609 56.6947 312.803 63.153C313.838 66.3925 315.059 69.7666 316.198 73.3166C316.807 75.146 317.07 77.0729 316.974 78.9987C316.886 80.0003 316.601 80.9746 316.136 81.8656C315.638 82.7537 314.974 83.5374 314.179 84.1737C312.58 85.3409 310.806 86.2458 308.922 86.8543L303.592 88.769L293.5 92.3811L276.413 98.4669L264.873 102.524L261.768 103.559L260.94 103.828C260.851 103.867 260.757 103.892 260.66 103.901C260.66 103.901 260.743 103.901 260.919 103.776L261.726 103.456L264.831 102.286L276.309 98.0632L293.366 91.8533L303.436 88.2101L308.766 86.285C310.597 85.7013 312.32 84.8239 313.869 83.6872C314.608 83.0968 315.227 82.3694 315.691 81.5448C316.129 80.7207 316.393 79.8153 316.467 78.8849C316.562 77.0293 316.309 75.1724 315.722 73.4098C314.604 69.8908 313.424 66.4857 312.358 63.2462C310.205 56.7775 308.218 50.9402 306.645 46.0343C305.072 41.1285 303.747 37.1851 302.836 34.4114C302.401 33.0555 302.07 31.9999 301.801 31.234L301.553 30.406C301.521 30.3432 301.497 30.2773 301.48 30.2093V30.2093Z" fill="#0D395A"/>
<path d="M272.337 15.9378C272.337 15.9378 271.788 15.6687 270.774 15.2547C269.328 14.6992 267.799 14.3913 266.251 14.3439C263.957 14.2652 261.673 14.6965 259.565 15.6066C257.002 16.7399 254.81 18.5729 253.241 20.8954C251.662 23.2112 250.815 25.9479 250.809 28.7509C250.831 31.0483 251.179 33.3309 251.844 35.5301C252.382 37.4138 252.941 38.9145 253.314 39.9599C253.534 40.4908 253.714 41.0374 253.852 41.5951C253.558 41.0987 253.312 40.5754 253.117 40.0323C252.693 38.9973 252.082 37.5276 251.482 35.6336C250.745 33.4114 250.344 31.0916 250.292 28.7509C250.264 25.842 251.131 22.9949 252.776 20.5952C254.399 18.1879 256.68 16.2982 259.348 15.1512C261.521 14.2361 263.876 13.8324 266.23 13.9713C267.812 14.0519 269.366 14.4202 270.815 15.058C271.203 15.2368 271.577 15.4444 271.933 15.679C272.08 15.7437 272.217 15.831 272.337 15.9378V15.9378Z" fill="#0D395A"/>
<path d="M272.814 56.4359C272.979 56.3358 273.152 56.2493 273.331 56.1771C273.849 55.9434 274.386 55.753 274.935 55.6079C275.808 55.3504 276.708 55.1976 277.616 55.1525C278.852 55.0861 280.088 55.2728 281.249 55.7011C283.898 56.6325 286.331 59.3339 287.531 62.946C288.107 64.8844 288.107 66.9484 287.531 68.8868C286.893 70.9907 285.749 72.9061 284.199 74.4654L284.261 74.186C285.637 77.9637 287.138 82.0622 288.69 86.3367L288.784 86.5955L288.525 86.6886L286.155 87.4752L280.98 89.2037L280.721 89.2865L280.638 89.0277C279.22 84.7429 277.668 80.7478 276.498 76.8252L276.726 77.0011C274.703 76.8331 272.773 76.0736 271.178 74.8173C269.735 73.7059 268.552 72.293 267.711 70.6773C266.952 69.2445 266.575 67.6407 266.614 66.0199C266.662 64.3633 267.076 62.7379 267.825 61.2599C268.575 59.7819 269.642 58.488 270.951 57.4709C271.489 57.0337 272.094 56.6844 272.741 56.4359C272.157 56.7828 271.59 57.1593 271.044 57.564C269.607 58.78 268.506 60.3444 267.846 62.1076C267.28 63.4372 267.015 64.8757 267.07 66.3198C267.126 67.7639 267.5 69.1778 268.167 70.46C268.993 72.0143 270.148 73.3704 271.551 74.4344C273.073 75.6285 274.912 76.3484 276.84 76.5043H277.016L277.068 76.6596C278.206 80.5097 279.769 84.5359 281.207 88.8414L280.866 88.6758L286.041 86.9474L288.401 86.1504L288.235 86.5023C286.693 82.2278 285.203 78.1189 283.836 74.3412V74.186L283.961 74.0618C285.465 72.5671 286.587 70.7316 287.231 68.7109C287.78 66.8566 287.78 64.883 287.231 63.0288C286.103 59.5512 283.774 56.912 281.249 55.9805C280.131 55.5495 278.938 55.3488 277.74 55.3906C276.846 55.411 275.957 55.5326 275.091 55.7528C273.549 56.1357 272.824 56.4876 272.814 56.4359Z" fill="#0D395A"/>
<path d="M240.822 355.282L137.437 354.806C131.467 354.773 125.753 352.372 121.552 348.13C117.351 343.888 115.005 338.151 115.029 332.181L116.127 73.0093C116.139 70.0513 116.734 67.1248 117.878 64.3969C119.022 61.6691 120.692 59.1934 122.793 57.1115C124.894 55.0295 127.385 53.382 130.123 52.2633C132.862 51.1445 135.794 50.5764 138.751 50.5914L242.126 51.0675C248.097 51.0976 253.811 53.4962 258.014 57.7363C262.218 61.9765 264.566 67.7116 264.544 73.682L263.447 332.843C263.435 335.802 262.84 338.73 261.696 341.459C260.553 344.188 258.883 346.665 256.782 348.748C254.681 350.832 252.19 352.481 249.452 353.602C246.713 354.723 243.781 355.294 240.822 355.282V355.282Z" fill="#0D395A"/>
<path d="M241.971 59.9792H221.934C221.28 59.9914 220.635 60.1322 220.035 60.3936C219.436 60.6551 218.894 61.032 218.44 61.503C217.987 61.9739 217.63 62.5296 217.392 63.1384C217.153 63.7471 217.036 64.3969 217.048 65.0507V68.6835C217.061 69.3368 216.944 69.9861 216.705 70.5942C216.466 71.2024 216.11 71.7574 215.656 72.2275C215.202 72.6976 214.66 73.0736 214.061 73.334C213.461 73.5943 212.817 73.7338 212.163 73.7446L173.103 73.5687C171.781 73.5334 170.528 72.9752 169.618 72.0166C168.708 71.0579 168.215 69.7772 168.249 68.4558V64.823C168.282 63.5033 167.791 62.2242 166.883 61.2658C165.975 60.3075 164.725 59.7481 163.405 59.7101H156.357L138.814 59.6274C134.641 59.6025 130.628 61.2321 127.655 64.1593C124.681 67.0865 122.988 71.0728 122.947 75.2453L121.912 328.217C121.903 330.287 122.301 332.339 123.084 334.255C123.868 336.171 125.021 337.914 126.478 339.385C127.935 340.855 129.667 342.024 131.576 342.825C133.485 343.626 135.533 344.043 137.603 344.053L240.77 344.529C242.842 344.538 244.895 344.14 246.812 343.356C248.729 342.572 250.474 341.418 251.945 339.96C253.416 338.502 254.586 336.769 255.388 334.859C256.189 332.949 256.607 330.899 256.616 328.828L257.651 75.856C257.676 71.6717 256.038 67.6488 253.098 64.6716C250.158 61.6944 246.155 60.0066 241.971 59.9792V59.9792Z" fill="white"/>
<path d="M228.091 310.777L151.378 310.445C150.581 310.445 149.939 309.576 149.949 308.52L150.032 288.452C150.032 287.417 150.684 286.527 151.481 286.527L228.195 286.879C228.636 286.955 229.031 287.199 229.297 287.56C229.563 287.92 229.68 288.37 229.623 288.814L229.55 308.862C229.55 309.928 228.888 310.787 228.091 310.777Z" fill="#3B46E7"/>
<path d="M172.665 294.5C172.586 294.5 172.511 294.488 172.438 294.463C172.367 294.437 172.311 294.404 172.272 294.363L172.316 294.277C172.354 294.315 172.405 294.346 172.468 294.371C172.532 294.394 172.597 294.405 172.665 294.405C172.759 294.405 172.83 294.388 172.878 294.354C172.925 294.319 172.949 294.273 172.949 294.218C172.949 294.176 172.936 294.142 172.909 294.117C172.884 294.092 172.853 294.073 172.816 294.059C172.779 294.045 172.727 294.03 172.66 294.014C172.581 293.994 172.517 293.975 172.47 293.957C172.423 293.938 172.382 293.909 172.348 293.871C172.314 293.832 172.298 293.781 172.298 293.715C172.298 293.662 172.312 293.613 172.34 293.57C172.368 293.526 172.412 293.491 172.47 293.464C172.528 293.438 172.601 293.425 172.687 293.425C172.748 293.425 172.807 293.434 172.864 293.451C172.922 293.467 172.973 293.49 173.015 293.519L172.977 293.608C172.933 293.579 172.886 293.557 172.835 293.543C172.785 293.528 172.736 293.52 172.687 293.52C172.595 293.52 172.525 293.538 172.478 293.575C172.431 293.61 172.408 293.656 172.408 293.712C172.408 293.754 172.421 293.789 172.446 293.815C172.472 293.84 172.504 293.86 172.542 293.874C172.582 293.887 172.634 293.901 172.699 293.918C172.777 293.937 172.839 293.956 172.887 293.975C172.935 293.993 172.976 294.021 173.009 294.059C173.042 294.097 173.059 294.148 173.059 294.212C173.059 294.265 173.044 294.314 173.015 294.358C172.987 294.402 172.943 294.436 172.884 294.463C172.824 294.488 172.751 294.5 172.665 294.5ZM173.302 293.434H173.414V294.491H173.302V293.434ZM174.641 293.434V294.491H174.549L173.87 293.634V294.491H173.758V293.434H173.85L174.531 294.292V293.434H174.641ZM175.731 293.963H175.838V294.366C175.789 294.409 175.73 294.443 175.663 294.466C175.596 294.489 175.525 294.5 175.45 294.5C175.344 294.5 175.249 294.477 175.165 294.431C175.08 294.385 175.014 294.321 174.965 294.239C174.917 294.157 174.893 294.064 174.893 293.963C174.893 293.861 174.917 293.77 174.965 293.688C175.014 293.605 175.08 293.541 175.165 293.495C175.249 293.448 175.345 293.425 175.452 293.425C175.532 293.425 175.606 293.438 175.674 293.464C175.741 293.49 175.798 293.527 175.844 293.578L175.775 293.649C175.691 293.566 175.585 293.525 175.456 293.525C175.371 293.525 175.293 293.544 175.224 293.582C175.155 293.62 175.101 293.672 175.062 293.739C175.023 293.806 175.003 293.88 175.003 293.963C175.003 294.045 175.023 294.12 175.062 294.186C175.101 294.253 175.155 294.305 175.224 294.343C175.292 294.382 175.369 294.401 175.455 294.401C175.563 294.401 175.655 294.374 175.731 294.319V293.963ZM176.975 294.5C176.839 294.5 176.732 294.461 176.655 294.383C176.579 294.304 176.541 294.19 176.541 294.04V293.434H176.652V294.035C176.652 294.158 176.68 294.25 176.735 294.31C176.791 294.371 176.871 294.401 176.975 294.401C177.081 294.401 177.162 294.371 177.217 294.31C177.272 294.25 177.3 294.158 177.3 294.035V293.434H177.409V294.04C177.409 294.19 177.371 294.304 177.294 294.383C177.219 294.461 177.112 294.5 176.975 294.5ZM178.141 293.434C178.276 293.434 178.382 293.467 178.458 293.531C178.535 293.595 178.573 293.684 178.573 293.797C178.573 293.909 178.535 293.998 178.458 294.062C178.382 294.126 178.276 294.158 178.141 294.158H177.857V294.491H177.746V293.434H178.141ZM178.138 294.059C178.243 294.059 178.323 294.037 178.378 293.992C178.434 293.945 178.461 293.88 178.461 293.797C178.461 293.711 178.434 293.646 178.378 293.6C178.323 293.554 178.243 293.531 178.138 293.531H177.857V294.059H178.138Z" fill="#E8E8E3"/>
<path d="M166.678 134.343L140.059 134.222L140.036 139.107L166.656 139.228L166.678 134.343Z" fill="#3B46E7"/>
<path opacity="0.1" d="M166.678 134.343L140.059 134.222L140.036 139.107L166.656 139.228L166.678 134.343Z" fill="#0D395A"/>
<path d="M244.714 164.336C244.923 164.315 245.128 164.267 245.324 164.192C245.611 164.08 245.86 163.889 246.043 163.642C246.226 163.395 246.336 163.101 246.359 162.794C246.359 161.149 246.359 158.747 246.359 155.663C246.359 154.121 246.359 152.393 246.359 150.488C246.359 150.023 246.359 149.536 246.359 149.05C246.427 148.578 246.324 148.097 246.07 147.694C245.927 147.5 245.742 147.343 245.528 147.233C245.314 147.124 245.078 147.065 244.838 147.062H243.223H228.268L141.701 146.742C141.48 146.738 141.26 146.788 141.062 146.887C140.864 146.986 140.693 147.131 140.563 147.311C140.313 147.716 140.217 148.197 140.294 148.667C140.294 149.702 140.294 150.737 140.294 151.772C140.294 153.842 140.294 155.912 140.294 157.982C140.294 159.017 140.294 160.052 140.294 161.087C140.251 161.569 140.251 162.054 140.294 162.536C140.348 162.742 140.449 162.934 140.589 163.095C140.729 163.257 140.904 163.384 141.101 163.467C141.305 163.548 141.523 163.587 141.743 163.581H147.011L169.998 163.705L208.913 163.943L235.15 164.15L242.281 164.233H244.134C244.558 164.233 244.765 164.233 244.765 164.233H244.134H242.281H235.15H208.913L169.998 164.109L147.011 164.016H141.743C141.453 164.027 141.164 163.978 140.894 163.871C140.621 163.754 140.379 163.577 140.185 163.353C139.992 163.129 139.852 162.863 139.776 162.577C139.716 162.305 139.695 162.027 139.714 161.749V160.983C139.714 159.948 139.714 158.913 139.714 157.878C139.714 155.808 139.714 153.738 139.714 151.668C139.714 150.633 139.714 149.598 139.714 148.563C139.694 148.288 139.694 148.011 139.714 147.735C139.753 147.431 139.871 147.142 140.056 146.897C140.234 146.647 140.47 146.444 140.744 146.305C141.018 146.167 141.322 146.096 141.629 146.1L228.195 146.576L243.151 146.68H244.765C245.05 146.68 245.33 146.749 245.582 146.88C245.835 147.012 246.051 147.202 246.214 147.435C246.506 147.885 246.624 148.426 246.546 148.956C246.546 149.443 246.546 149.929 246.546 150.395C246.546 152.279 246.546 154.007 246.546 155.57C246.546 158.675 246.473 161.056 246.452 162.711C246.427 163.03 246.311 163.334 246.119 163.589C245.926 163.844 245.665 164.039 245.366 164.15C245.17 164.272 244.944 164.336 244.714 164.336V164.336Z" fill="#E0E0E0"/>
<path d="M196.743 151.937H148.057V156.502H196.743V151.937Z" fill="#3B46E7"/>
<path opacity="0.2" d="M196.743 151.937H148.057V156.502H196.743V151.937Z" fill="white"/>
<path d="M166.499 178.908L139.879 178.787L139.857 183.673L166.476 183.793L166.499 178.908Z" fill="#3B46E7"/>
<path opacity="0.1" d="M166.499 178.908L139.879 178.787L139.857 183.673L166.476 183.793L166.499 178.908Z" fill="#0D395A"/>
<path d="M244.04 208.904C244.249 208.878 244.457 208.84 244.661 208.79C244.95 208.698 245.216 208.545 245.441 208.342C245.666 208.138 245.845 207.889 245.965 207.61C246.128 207.192 246.192 206.742 246.152 206.296C246.152 205.799 246.152 205.261 246.152 204.66C246.152 203.46 246.152 202.094 246.152 200.52V193.948C246.201 193.472 246.096 192.993 245.852 192.582C245.596 192.16 245.195 191.847 244.723 191.702C244.208 191.61 243.683 191.583 243.161 191.62H228.267L142.001 191.299C141.537 191.3 141.089 191.469 140.74 191.776C140.392 192.082 140.167 192.505 140.107 192.965C140.107 193.948 140.107 195.035 140.107 196.07C140.107 198.14 140.107 200.21 140.107 202.28C140.107 203.315 140.107 204.35 140.107 205.385C140.068 205.869 140.089 206.355 140.169 206.834C140.298 207.254 140.564 207.618 140.924 207.869C141.307 208.111 141.756 208.227 142.208 208.2H143.646H146.637L169.542 208.314L208.323 208.552L234.467 208.759L241.577 208.842H243.43H244.051H243.43H241.577H234.467H208.323L169.521 208.8L146.617 208.718H142.115C141.555 208.751 140.999 208.602 140.531 208.293C140.06 207.967 139.716 207.488 139.558 206.937C139.465 206.411 139.438 205.876 139.475 205.343C139.475 204.308 139.475 203.273 139.475 202.238C139.475 200.169 139.475 198.099 139.475 196.029C139.475 194.994 139.475 193.959 139.475 192.924C139.551 192.332 139.839 191.788 140.287 191.393C140.735 190.999 141.311 190.781 141.908 190.781L228.174 191.257L243.067 191.371C243.622 191.337 244.179 191.375 244.723 191.485C245.261 191.661 245.715 192.029 245.996 192.52C246.264 192.976 246.38 193.505 246.328 194.031C246.328 194.517 246.328 194.994 246.328 195.47C246.328 197.343 246.328 199.061 246.328 200.645C246.328 202.228 246.328 203.563 246.328 204.785C246.328 205.375 246.328 205.923 246.328 206.43C246.365 206.893 246.291 207.358 246.11 207.786C245.976 208.072 245.782 208.325 245.54 208.528C245.299 208.732 245.017 208.881 244.713 208.966C244.487 208.985 244.259 208.964 244.04 208.904V208.904Z" fill="#E0E0E0"/>
<path d="M166.297 225.409L139.678 225.288L139.656 230.173L166.275 230.294L166.297 225.409Z" fill="#3B46E7"/>
<path opacity="0.1" d="M166.297 225.409L139.678 225.288L139.656 230.173L166.275 230.294L166.297 225.409Z" fill="#0D395A"/>
<path d="M243.834 255.385C244.043 255.36 244.25 255.322 244.455 255.271C244.743 255.179 245.008 255.028 245.233 254.826C245.457 254.624 245.637 254.377 245.759 254.101C245.921 253.683 245.985 253.233 245.945 252.787C245.945 252.28 245.945 251.752 245.945 251.141C245.945 249.951 245.945 248.574 245.945 247.001V240.429C245.995 239.953 245.889 239.474 245.645 239.063C245.384 238.649 244.984 238.341 244.517 238.193C244.002 238.098 243.477 238.066 242.954 238.1H228.061L141.794 237.779C141.33 237.781 140.882 237.95 140.534 238.257C140.186 238.563 139.96 238.986 139.9 239.446C139.9 240.481 139.9 241.516 139.9 242.551C139.9 244.621 139.9 246.691 139.9 248.761C139.9 249.796 139.9 250.831 139.9 251.866C139.862 252.346 139.883 252.829 139.962 253.304C140.086 253.727 140.353 254.093 140.718 254.339C141.098 254.587 141.549 254.704 142.001 254.67H146.503L169.408 254.795L208.189 255.033L234.333 255.24L241.443 255.323H243.296C243.71 255.323 243.917 255.323 243.917 255.323C243.917 255.323 243.71 255.323 243.296 255.323H241.443H234.333H208.189L169.408 255.209L146.503 255.116H142.001C141.441 255.153 140.884 255.004 140.418 254.691C139.947 254.365 139.603 253.886 139.445 253.335C139.352 252.809 139.324 252.274 139.362 251.741C139.362 250.706 139.362 249.671 139.362 248.636C139.362 246.567 139.362 244.497 139.362 242.427C139.362 241.392 139.362 240.357 139.362 239.27C139.435 238.679 139.722 238.135 140.168 237.741C140.614 237.346 141.188 237.128 141.784 237.127L228.05 237.603L242.944 237.717C243.498 237.683 244.055 237.722 244.6 237.831C245.137 238.007 245.591 238.376 245.873 238.866C246.141 239.322 246.257 239.851 246.204 240.377C246.204 240.864 246.204 241.35 246.204 241.816C246.204 243.689 246.204 245.407 246.204 246.991C246.204 248.574 246.204 249.91 246.204 251.131C246.204 251.721 246.204 252.269 246.204 252.776C246.244 253.239 246.169 253.705 245.987 254.132C245.852 254.418 245.658 254.671 245.417 254.875C245.176 255.078 244.893 255.228 244.589 255.312C244.347 255.395 244.088 255.42 243.834 255.385V255.385Z" fill="#E0E0E0"/>
<path d="M195.703 197.795L147.018 197.574L146.997 202.138L195.682 202.359L195.703 197.795Z" fill="#3B46E7"/>
<path opacity="0.2" d="M195.703 197.795L147.018 197.574L146.997 202.138L195.682 202.359L195.703 197.795Z" fill="white"/>
<path d="M151.419 246.939C151.388 247.355 151.236 247.753 150.981 248.084C150.726 248.415 150.38 248.663 149.985 248.799C149.591 248.935 149.165 248.952 148.761 248.848C148.356 248.744 147.991 248.523 147.711 248.214C147.431 247.904 147.248 247.519 147.185 247.107C147.122 246.694 147.181 246.272 147.355 245.893C147.529 245.513 147.811 245.193 148.166 244.973C148.52 244.752 148.931 244.641 149.349 244.652C149.925 244.684 150.466 244.942 150.853 245.37C151.241 245.798 151.444 246.362 151.419 246.939V246.939Z" fill="#3B46E7"/>
<path d="M158.013 246.971C158.033 247.263 157.993 247.556 157.896 247.832C157.798 248.107 157.645 248.36 157.445 248.574C157.246 248.788 157.004 248.958 156.736 249.075C156.468 249.192 156.178 249.252 155.886 249.252C155.593 249.252 155.304 249.192 155.036 249.075C154.768 248.958 154.526 248.788 154.327 248.574C154.127 248.36 153.974 248.107 153.876 247.832C153.779 247.556 153.739 247.263 153.759 246.971C153.739 246.68 153.779 246.387 153.876 246.111C153.974 245.835 154.127 245.583 154.327 245.369C154.526 245.155 154.768 244.984 155.036 244.868C155.304 244.751 155.593 244.691 155.886 244.691C156.178 244.691 156.468 244.751 156.736 244.868C157.004 244.984 157.246 245.155 157.445 245.369C157.645 245.583 157.798 245.835 157.896 246.111C157.993 246.387 158.033 246.68 158.013 246.971V246.971Z" fill="#3B46E7"/>
<path d="M164.618 247C164.587 247.416 164.435 247.815 164.18 248.145C163.926 248.476 163.579 248.724 163.185 248.86C162.79 248.996 162.364 249.013 161.96 248.909C161.556 248.805 161.191 248.584 160.911 248.275C160.631 247.965 160.447 247.58 160.384 247.168C160.321 246.755 160.38 246.333 160.554 245.954C160.729 245.574 161.01 245.254 161.365 245.034C161.719 244.813 162.131 244.702 162.548 244.713C163.123 244.747 163.663 245.006 164.05 245.434C164.437 245.862 164.641 246.424 164.618 247Z" fill="#3B46E7"/>
<path d="M171.21 247.032C171.179 247.449 171.027 247.847 170.772 248.178C170.517 248.508 170.171 248.757 169.776 248.893C169.382 249.028 168.956 249.045 168.552 248.941C168.147 248.837 167.783 248.617 167.502 248.307C167.222 247.997 167.039 247.613 166.976 247.2C166.913 246.787 166.972 246.365 167.146 245.986C167.32 245.607 167.602 245.287 167.957 245.066C168.311 244.846 168.722 244.734 169.14 244.745C169.715 244.78 170.254 245.039 170.641 245.466C171.028 245.894 171.232 246.456 171.21 247.032Z" fill="#3B46E7"/>
<path d="M177.804 247.053C177.776 247.47 177.625 247.869 177.371 248.202C177.118 248.534 176.772 248.784 176.377 248.921C175.983 249.059 175.556 249.077 175.151 248.974C174.746 248.871 174.381 248.651 174.099 248.342C173.818 248.032 173.634 247.647 173.57 247.234C173.506 246.821 173.565 246.399 173.739 246.019C173.913 245.639 174.195 245.319 174.55 245.098C174.905 244.877 175.316 244.765 175.734 244.776C176.308 244.811 176.845 245.068 177.232 245.494C177.619 245.919 177.824 246.479 177.804 247.053Z" fill="#3B46E7"/>
<path d="M184.404 247.084C184.376 247.498 184.227 247.896 183.975 248.227C183.724 248.558 183.382 248.809 182.99 248.948C182.598 249.087 182.174 249.108 181.77 249.01C181.366 248.911 181 248.696 180.717 248.392C180.433 248.088 180.245 247.708 180.175 247.298C180.105 246.888 180.156 246.467 180.323 246.086C180.489 245.705 180.763 245.381 181.111 245.153C181.459 244.926 181.866 244.805 182.282 244.807C182.865 244.828 183.416 245.08 183.813 245.507C184.211 245.933 184.423 246.5 184.404 247.084V247.084Z" fill="#3B46E7"/>
<path d="M190.999 247.114C191.02 247.406 190.98 247.699 190.882 247.975C190.784 248.251 190.631 248.503 190.432 248.717C190.232 248.931 189.991 249.102 189.722 249.218C189.454 249.335 189.165 249.395 188.872 249.395C188.58 249.395 188.29 249.335 188.022 249.218C187.754 249.102 187.513 248.931 187.313 248.717C187.114 248.503 186.96 248.251 186.863 247.975C186.765 247.699 186.725 247.406 186.745 247.114C186.725 246.823 186.765 246.53 186.863 246.254C186.96 245.978 187.114 245.726 187.313 245.512C187.513 245.298 187.754 245.127 188.022 245.011C188.29 244.894 188.58 244.834 188.872 244.834C189.165 244.834 189.454 244.894 189.722 245.011C189.991 245.127 190.232 245.298 190.432 245.512C190.631 245.726 190.784 245.978 190.882 246.254C190.98 246.53 191.02 246.823 190.999 247.114Z" fill="#3B46E7"/>
<path d="M197.591 247.146C197.563 247.561 197.414 247.958 197.163 248.289C196.912 248.621 196.569 248.871 196.177 249.01C195.785 249.149 195.362 249.171 194.958 249.072C194.554 248.973 194.188 248.759 193.904 248.454C193.621 248.15 193.433 247.77 193.363 247.36C193.292 246.95 193.344 246.529 193.51 246.148C193.676 245.767 193.951 245.443 194.299 245.215C194.647 244.988 195.054 244.868 195.47 244.869C196.052 244.89 196.603 245.142 197.001 245.569C197.399 245.996 197.611 246.563 197.591 247.146V247.146Z" fill="#3B46E7"/>
<path d="M204.185 247.178C204.156 247.595 204.006 247.994 203.752 248.326C203.499 248.658 203.153 248.908 202.758 249.046C202.364 249.183 201.937 249.201 201.532 249.098C201.127 248.995 200.761 248.775 200.48 248.466C200.199 248.157 200.015 247.772 199.951 247.359C199.887 246.946 199.946 246.523 200.12 246.143C200.294 245.764 200.576 245.443 200.931 245.222C201.285 245.001 201.697 244.89 202.115 244.901C202.689 244.935 203.226 245.193 203.613 245.618C204 246.044 204.205 246.603 204.185 247.178V247.178Z" fill="#3B46E7"/>
<g opacity="0.2">
<path opacity="0.2" d="M151.419 246.939C151.388 247.355 151.236 247.753 150.981 248.084C150.726 248.415 150.38 248.663 149.985 248.799C149.591 248.935 149.165 248.952 148.761 248.848C148.356 248.744 147.991 248.523 147.711 248.214C147.431 247.904 147.248 247.519 147.185 247.107C147.122 246.694 147.181 246.272 147.355 245.893C147.529 245.513 147.811 245.193 148.166 244.973C148.52 244.752 148.931 244.641 149.349 244.652C149.925 244.684 150.466 244.942 150.853 245.37C151.241 245.798 151.444 246.362 151.419 246.939V246.939Z" fill="white"/>
<path opacity="0.2" d="M158.013 246.969C158.033 247.261 157.993 247.554 157.896 247.829C157.798 248.105 157.645 248.358 157.445 248.572C157.246 248.786 157.004 248.956 156.736 249.073C156.468 249.189 156.178 249.25 155.886 249.25C155.593 249.25 155.304 249.189 155.036 249.073C154.768 248.956 154.526 248.786 154.327 248.572C154.127 248.358 153.974 248.105 153.876 247.829C153.779 247.554 153.739 247.261 153.759 246.969C153.739 246.677 153.779 246.384 153.876 246.109C153.974 245.833 154.127 245.58 154.327 245.366C154.526 245.152 154.768 244.982 155.036 244.865C155.304 244.749 155.593 244.688 155.886 244.688C156.178 244.688 156.468 244.749 156.736 244.865C157.004 244.982 157.246 245.152 157.445 245.366C157.645 245.58 157.798 245.833 157.896 246.109C157.993 246.384 158.033 246.677 158.013 246.969V246.969Z" fill="white"/>
<path opacity="0.2" d="M164.616 247C164.585 247.417 164.433 247.815 164.178 248.145C163.924 248.476 163.577 248.725 163.183 248.86C162.788 248.996 162.362 249.013 161.958 248.909C161.554 248.805 161.189 248.584 160.909 248.275C160.629 247.965 160.445 247.58 160.382 247.168C160.319 246.755 160.378 246.333 160.552 245.954C160.727 245.574 161.008 245.255 161.363 245.034C161.717 244.814 162.129 244.702 162.546 244.713C163.122 244.748 163.661 245.007 164.048 245.434C164.435 245.862 164.639 246.424 164.616 247Z" fill="white"/>
<path opacity="0.2" d="M171.208 247.031C171.177 247.448 171.025 247.846 170.77 248.177C170.516 248.507 170.169 248.756 169.775 248.892C169.38 249.027 168.954 249.044 168.55 248.94C168.145 248.836 167.781 248.615 167.5 248.306C167.22 247.996 167.037 247.612 166.974 247.199C166.911 246.786 166.97 246.364 167.144 245.985C167.318 245.606 167.6 245.286 167.955 245.065C168.309 244.845 168.72 244.733 169.138 244.744C169.713 244.779 170.252 245.038 170.639 245.465C171.026 245.893 171.23 246.455 171.208 247.031Z" fill="white"/>
<path opacity="0.2" d="M177.802 247.051C177.774 247.468 177.623 247.867 177.369 248.199C177.116 248.531 176.77 248.782 176.375 248.919C175.981 249.056 175.554 249.075 175.149 248.971C174.744 248.868 174.379 248.649 174.097 248.339C173.816 248.03 173.632 247.645 173.568 247.232C173.504 246.819 173.563 246.397 173.737 246.017C173.911 245.637 174.193 245.316 174.548 245.095C174.903 244.875 175.314 244.763 175.732 244.774C176.306 244.809 176.843 245.066 177.23 245.491C177.617 245.917 177.822 246.476 177.802 247.051Z" fill="white"/>
<path opacity="0.2" d="M184.404 247.085C184.376 247.5 184.227 247.897 183.975 248.228C183.724 248.56 183.382 248.81 182.99 248.949C182.598 249.088 182.174 249.11 181.77 249.011C181.366 248.912 181 248.698 180.717 248.394C180.433 248.089 180.245 247.709 180.175 247.299C180.105 246.889 180.156 246.468 180.323 246.087C180.489 245.706 180.763 245.382 181.111 245.155C181.459 244.927 181.866 244.807 182.282 244.808C182.865 244.83 183.416 245.081 183.813 245.508C184.211 245.935 184.423 246.502 184.404 247.085V247.085Z" fill="white"/>
<path opacity="0.2" d="M190.997 247.115C191.018 247.406 190.978 247.699 190.88 247.975C190.782 248.251 190.629 248.503 190.43 248.717C190.23 248.931 189.989 249.102 189.72 249.218C189.452 249.335 189.163 249.395 188.87 249.395C188.578 249.395 188.288 249.335 188.02 249.218C187.752 249.102 187.511 248.931 187.311 248.717C187.112 248.503 186.958 248.251 186.861 247.975C186.763 247.699 186.723 247.406 186.743 247.115C186.723 246.823 186.763 246.53 186.861 246.254C186.958 245.979 187.112 245.726 187.311 245.512C187.511 245.298 187.752 245.128 188.02 245.011C188.288 244.894 188.578 244.834 188.87 244.834C189.163 244.834 189.452 244.894 189.72 245.011C189.989 245.128 190.23 245.298 190.43 245.512C190.629 245.726 190.782 245.979 190.88 246.254C190.978 246.53 191.018 246.823 190.997 247.115Z" fill="white"/>
<path opacity="0.2" d="M197.589 247.145C197.561 247.56 197.412 247.957 197.161 248.288C196.91 248.619 196.567 248.87 196.175 249.009C195.783 249.148 195.36 249.17 194.956 249.071C194.552 248.972 194.186 248.757 193.902 248.453C193.619 248.149 193.431 247.769 193.361 247.359C193.291 246.949 193.342 246.528 193.508 246.147C193.674 245.766 193.949 245.442 194.297 245.214C194.645 244.987 195.052 244.867 195.468 244.868C196.051 244.889 196.601 245.141 196.999 245.568C197.397 245.995 197.609 246.562 197.589 247.145V247.145Z" fill="white"/>
<path opacity="0.2" d="M204.183 247.175C204.154 247.592 204.004 247.992 203.75 248.324C203.497 248.656 203.151 248.906 202.756 249.043C202.362 249.181 201.935 249.199 201.53 249.096C201.125 248.993 200.759 248.773 200.478 248.464C200.197 248.155 200.013 247.77 199.949 247.357C199.885 246.944 199.944 246.521 200.118 246.141C200.292 245.761 200.574 245.441 200.929 245.22C201.283 244.999 201.695 244.887 202.113 244.898C202.687 244.933 203.224 245.191 203.611 245.616C203.998 246.041 204.203 246.601 204.183 247.175V247.175Z" fill="white"/>
</g>
<path d="M194.816 97.7674C195.535 97.4508 196.145 96.9298 196.57 96.2691C196.995 95.6085 197.217 94.8374 197.207 94.0518C197.234 93.5412 197.156 93.0304 196.979 92.5506C196.802 92.0709 196.53 91.6322 196.178 91.2612C195.826 90.8903 195.402 90.5949 194.932 90.393C194.462 90.1912 193.956 90.0871 193.445 90.0871C192.933 90.0871 192.427 90.1912 191.958 90.393C191.488 90.5949 191.064 90.8903 190.712 91.2612C190.36 91.6322 190.087 92.0709 189.91 92.5506C189.733 93.0304 189.656 93.5412 189.683 94.0518C189.667 94.8452 189.887 95.6255 190.314 96.2942C190.741 96.9629 191.357 97.4899 192.084 97.8088C186.288 98.6782 186.547 104.971 186.547 104.971L200.25 105.033C200.25 105.033 200.571 98.6265 194.816 97.7674Z" fill="#3B46E7"/>
<path opacity="0.1" d="M194.816 97.7674C195.535 97.4508 196.145 96.9298 196.57 96.2691C196.995 95.6085 197.217 94.8374 197.207 94.0518C197.234 93.5412 197.156 93.0304 196.979 92.5506C196.802 92.0709 196.53 91.6322 196.178 91.2612C195.826 90.8903 195.402 90.5949 194.932 90.393C194.462 90.1912 193.956 90.0871 193.445 90.0871C192.933 90.0871 192.427 90.1912 191.958 90.393C191.488 90.5949 191.064 90.8903 190.712 91.2612C190.36 91.6322 190.087 92.0709 189.91 92.5506C189.733 93.0304 189.656 93.5412 189.683 94.0518C189.667 94.8452 189.887 95.6255 190.314 96.2942C190.741 96.9629 191.357 97.4899 192.084 97.8088C186.288 98.6782 186.547 104.971 186.547 104.971L200.25 105.033C200.25 105.033 200.571 98.6265 194.816 97.7674Z" fill="#0D395A"/>
<path d="M217.085 109.09L168.244 108.868L168.218 114.706L217.058 114.927L217.085 109.09Z" fill="#3B46E7"/>
<path opacity="0.2" d="M217.085 109.09L168.244 108.868L168.218 114.706L217.058 114.927L217.085 109.09Z" fill="white"/>
<path d="M37.5276 139.34H37.0411L35.6335 139.444C34.8718 139.489 34.1143 139.59 33.3669 139.744C32.8828 139.812 32.4026 139.905 31.9283 140.023L30.324 140.468C27.5936 141.306 25.0173 142.582 22.6962 144.246C19.6294 146.472 17.0685 149.322 15.1821 152.609C14.0734 154.503 13.191 156.521 12.5533 158.622C11.8831 160.905 11.4972 163.262 11.4044 165.639C11.3427 166.888 11.3635 168.14 11.4665 169.386C11.4665 170.017 11.6425 170.649 11.7253 171.29C11.7949 171.937 11.9161 172.577 12.0875 173.205C13.0182 177.358 14.9066 181.236 17.6021 184.53C20.2975 187.824 23.7254 190.442 27.6124 192.176C30.4256 193.39 33.4408 194.068 36.5029 194.174C39.6656 194.348 42.8314 193.894 45.8178 192.839L46.7286 192.497H46.8528L46.9563 192.559L60.0075 199.183L59.6246 199.514C58.2274 195.188 56.8819 190.996 55.5778 186.97V186.815L55.6916 186.701C58.8577 183.512 61.208 179.607 62.5433 175.316C63.7527 171.394 64.1056 167.257 63.5782 163.186C63.1091 159.568 61.9459 156.075 60.1524 152.898C58.6065 150.17 56.6121 147.72 54.253 145.654C52.3067 144.018 50.1524 142.646 47.8464 141.576C46.1015 140.823 44.2843 140.251 42.4231 139.868L40.3531 139.526L38.8523 139.413L37.9416 139.35H37.6311C37.7342 139.339 37.8384 139.339 37.9416 139.35H38.8627L40.3634 139.413L42.4334 139.713C44.3178 140.068 46.1598 140.619 47.9292 141.358C50.2749 142.416 52.4679 143.784 54.4496 145.426C56.8521 147.483 58.8888 149.933 60.4733 152.671C62.3177 155.882 63.5166 159.422 64.0026 163.093C64.5737 167.227 64.2454 171.435 63.04 175.43C61.696 179.81 59.3094 183.798 56.0849 187.053L56.147 186.784C57.4511 190.81 58.8069 195.002 60.2145 199.318L60.4112 199.949L59.8212 199.649L46.77 193.035H46.9977L46.0662 193.377C43.0223 194.448 39.7979 194.912 36.5754 194.743C33.4473 194.624 30.3689 193.922 27.4985 192.673C22.0231 190.328 17.4676 186.253 14.5301 181.071C13.1783 178.678 12.1911 176.096 11.6011 173.412C11.4395 172.768 11.3185 172.115 11.2388 171.456C11.156 170.804 11.0215 170.162 10.9904 169.52C10.7103 165.838 11.0996 162.135 12.1393 158.591C12.7929 156.462 13.6999 154.418 14.8406 152.505C16.772 149.189 19.3862 146.321 22.5099 144.091C24.8693 142.422 27.4887 141.156 30.2619 140.344L31.8869 139.93C32.3651 139.819 32.8488 139.733 33.3359 139.671C34.091 139.531 34.8556 139.448 35.6232 139.423L37.0411 139.371C37.2023 139.349 37.3649 139.339 37.5276 139.34Z" fill="#3B46E7"/>
<path d="M43.426 163.476H41.5112L37.3713 157.66V153.84C37.3713 153.84 34.4112 153.654 34.7631 158.653C35.115 163.652 34.7631 162.379 34.7631 162.379C34.7631 162.379 28.4807 162.379 27.9632 162.948C27.4457 163.518 27.4147 169.583 27.3422 172.967C27.3026 173.783 27.5367 174.589 28.0073 175.256C28.478 175.924 29.1583 176.415 29.94 176.652C30.1592 176.712 30.3854 176.744 30.6128 176.745C32.186 176.745 40.1864 175.472 40.1864 175.472H43.488L43.426 163.476Z" fill="#3B46E7"/>
<path d="M48.9036 162.453L47.7237 175.535H44.4531V162.722L48.9036 162.453Z" fill="#3B46E7"/>
<path d="M87.9091 428.786V419.937L72.0428 419.823L71.9082 433.205L72.8914 433.278C77.2694 433.557 95.1644 433.971 98.1038 433.061C101.374 432.046 87.9091 428.786 87.9091 428.786Z" fill="#3B46E7"/>
<path d="M98.4754 432.234C98.4754 432.379 92.5346 432.503 85.2172 432.503C77.8998 432.503 71.959 432.379 71.959 432.234C71.959 432.089 77.8998 431.965 85.2172 431.965C92.5346 431.965 98.4754 432.089 98.4754 432.234Z" fill="#0D395A"/>
<path d="M88.1885 430.595C88.054 430.523 88.1885 430.057 88.5094 429.56C88.8302 429.064 89.2649 428.857 89.3684 428.96C89.4719 429.064 89.2546 429.457 88.9441 429.881C88.6336 430.306 88.3231 430.668 88.1885 430.595Z" fill="#0D395A"/>
<path d="M89.2026 431.177C89.0577 431.177 89.1301 430.597 89.4406 430.049C89.7511 429.5 90.1651 429.169 90.279 429.252C90.3928 429.335 90.2065 429.8 89.9167 430.287C89.6269 430.773 89.3371 431.229 89.2026 431.177Z" fill="#0D395A"/>
<path d="M76.7409 432.192C76.6788 432.192 76.4408 432.005 76.0992 431.612C75.6823 431.107 75.2179 430.642 74.7123 430.225C74.2152 429.828 73.623 429.568 72.9942 429.47C72.5078 429.408 72.1973 429.47 72.1663 429.408C72.1352 429.346 72.4353 429.128 73.0046 429.087C73.7558 429.071 74.4887 429.32 75.0746 429.791C75.6235 430.238 76.0865 430.782 76.4408 431.395C76.6788 431.85 76.803 432.15 76.7409 432.192Z" fill="#0D395A"/>
<path d="M88.2417 428.93C88.3142 429.054 88.0451 429.365 87.5897 429.53C87.1343 429.696 86.7306 429.634 86.7099 429.53C86.6892 429.427 87.0101 429.209 87.4034 429.065C87.7967 428.92 88.1589 428.806 88.2417 428.93Z" fill="#0D395A"/>
<path d="M87.9925 428.073C87.9925 428.228 87.5785 428.352 87.0403 428.363C86.5021 428.373 86.0777 428.249 86.0881 428.104C86.0984 427.959 86.5228 427.824 87.0403 427.814C87.5578 427.804 87.9718 427.928 87.9925 428.073Z" fill="#0D395A"/>
<path d="M126.979 428.786V419.937L111.113 419.823L110.979 433.071L111.962 433.143C116.34 433.423 134.245 433.971 137.174 433.061C140.445 432.046 126.979 428.786 126.979 428.786Z" fill="#3B46E7"/>
<path d="M137.547 432.254C137.547 432.399 131.617 432.523 124.289 432.523C116.961 432.523 111.041 432.399 111.041 432.254C111.041 432.109 116.972 431.985 124.289 431.985C131.606 431.985 137.547 432.109 137.547 432.254Z" fill="#0D395A"/>
<path d="M127.26 430.595C127.136 430.523 127.26 430.057 127.581 429.56C127.902 429.064 128.337 428.857 128.44 428.96C128.544 429.064 128.326 429.457 128.016 429.881C127.705 430.306 127.395 430.668 127.26 430.595Z" fill="#0D395A"/>
<path d="M128.274 431.177C128.139 431.177 128.201 430.597 128.522 430.049C128.843 429.5 129.247 429.169 129.361 429.252C129.474 429.335 129.278 429.8 128.988 430.287C128.698 430.773 128.419 431.229 128.274 431.177Z" fill="#0D395A"/>
<path d="M115.813 432.192C115.751 432.192 115.523 432.005 115.171 431.612C114.755 431.107 114.29 430.642 113.785 430.225C113.287 429.828 112.695 429.568 112.067 429.47C111.59 429.408 111.27 429.47 111.239 429.408C111.207 429.346 111.508 429.128 112.077 429.087C112.828 429.071 113.561 429.32 114.147 429.791C114.699 430.235 115.162 430.779 115.513 431.395C115.751 431.85 115.875 432.15 115.813 432.192Z" fill="#0D395A"/>
<path d="M127.312 428.93C127.384 429.054 127.115 429.365 126.66 429.53C126.205 429.696 125.801 429.634 125.78 429.53C125.76 429.427 126.08 429.209 126.474 429.065C126.867 428.92 127.229 428.806 127.312 428.93Z" fill="#0D395A"/>
<path d="M127.084 428.073C127.084 428.228 126.67 428.352 126.131 428.363C125.593 428.373 125.179 428.249 125.19 428.104C125.2 427.959 125.614 427.824 126.131 427.814C126.649 427.804 127.084 427.928 127.084 428.073Z" fill="#0D395A"/>
<path d="M185.436 166.003C185.022 165.578 183.998 165.785 183.998 165.785C184.1 165.189 184.1 164.58 183.998 163.984C183.811 163.405 182.507 163.519 182.507 163.519C182.447 163.031 182.447 162.537 182.507 162.049C182.518 161.941 182.494 161.832 182.441 161.737C182.387 161.643 182.305 161.567 182.207 161.521C181.59 161.269 180.927 161.15 180.261 161.169C179.464 160.6 182.694 156.077 183.894 154.628C185.095 153.179 184.877 152.051 183.811 152.051C183.077 152.051 179.309 156.398 178.15 157.857C176.991 159.317 173.917 163.374 173.813 160.134C173.71 156.895 172.406 154.452 171.588 154.038C170.77 153.624 169.901 154.597 170.346 155.497C170.737 156.52 170.981 157.594 171.071 158.685C171.183 159.555 171.145 160.437 170.957 161.293C170.614 162.887 170.146 164.451 169.56 165.972H169.477C169.477 165.972 146.893 187.634 145.258 189.176C143.799 190.563 114.446 187.53 108.557 186.909C106.556 186.617 104.535 186.478 102.513 186.495C99.9565 186.609 99.5011 186.971 96.9551 187.002C90.5251 187.074 84.1101 187.638 77.7664 188.69C74.8939 189.178 72.2107 190.446 70.0096 192.355C67.8085 194.264 66.1739 196.741 65.2844 199.516C59.3539 218.042 45.9197 261.894 43.5496 286.527C41.7586 289.775 40.1417 293.116 38.7059 296.535C37.0395 301.069 37.4432 301.224 38.0021 301.327C39.5131 301.607 41.2312 293.472 41.8729 295.438C42.5146 297.405 38.6127 305.136 40.1962 305.364C42.2662 305.654 43.9119 297.084 44.1085 296.401C44.3051 295.718 45.3298 295.935 45.1435 296.577C44.8433 297.488 41.935 307.144 43.9636 307.455C45.0814 307.62 45.2056 305.581 45.2056 305.581C45.2056 305.581 47.2756 296.339 48.2174 296.525C49.1592 296.711 48.1553 302.166 47.6792 303.987C47.2031 305.809 47.8655 306.73 48.8384 306.285C49.5008 305.975 51.0843 300.437 51.519 298.636C51.9537 296.836 53.0405 291.847 54.4998 294.735C55.9591 297.622 58.174 299.299 59.0848 299.34C59.29 299.317 59.4835 299.232 59.6403 299.097C59.797 298.963 59.91 298.785 59.9645 298.585C60.0191 298.386 60.0127 298.175 59.9463 297.979C59.8799 297.784 59.7565 297.613 59.5919 297.488C58.8086 296.723 58.1362 295.852 57.5944 294.9C57.1116 294.159 56.7614 293.339 56.5594 292.478C56.1423 290.761 55.8996 289.007 55.8349 287.241L55.6693 286.206C57.9877 274.728 64.6634 241.039 74.2991 219.522L78.2528 227.657L79.9709 233.68L69.4347 259.69L114.374 259.1L107.667 233.287L115.813 206.377C124.62 206.574 147.235 206.905 151.002 205.198C155.742 203.128 180.261 172.161 180.261 172.161C181.86 170.919 183.39 169.592 184.846 168.186C184.846 168.186 186.337 166.934 185.436 166.003Z" fill="#FFBE9D"/>
<path d="M67.4579 240.471C68.762 236.02 75.4584 214.016 75.4584 214.016C75.4584 214.016 78.7496 231.953 77.8803 234.116C77.0805 235.968 76.1357 237.753 75.0547 239.456C67.4579 251.017 68.4515 256.803 68.4515 256.803L114.353 255.405C114.457 248.989 110.658 234.064 109.872 231.683C109.085 229.303 111.704 221.51 111.704 221.51C111.704 221.51 116.879 216.241 116.692 213.53C116.594 211.094 116.293 208.671 115.792 206.285L143.737 207.32L142.857 188.38L102.72 184.364C101.323 188.307 88.6855 186.372 88.6855 186.372C75.0444 186.827 74.1957 189.332 68.5239 193.741C62.8522 198.15 53.4648 235.989 53.4648 235.989L67.4579 240.471Z" fill="#3B46E7"/>
<path d="M94.5956 235.988C93.8001 236.13 92.9899 236.172 92.1841 236.112C90.6833 236.112 88.6237 236.009 86.3571 235.781C84.0905 235.553 82.0412 235.232 80.5819 234.943C79.7772 234.839 78.9882 234.637 78.2324 234.342C79.0416 234.343 79.849 234.419 80.6439 234.57C82.1136 234.756 84.1526 235.015 86.4088 235.243C88.6651 235.47 90.7144 235.626 92.1944 235.729C93.0012 235.739 93.8052 235.826 94.5956 235.988V235.988Z" fill="#0D395A"/>
<path d="M97.7426 232.086C96.9469 232.476 96.1054 232.764 95.238 232.945C91.1087 234.03 86.8485 234.535 82.58 234.446C81.6968 234.474 80.8134 234.391 79.9512 234.197C80.8229 234.087 81.7016 234.042 82.58 234.063C84.205 234.011 86.4405 233.897 88.9038 233.607C91.3671 233.318 93.5613 232.904 95.1138 232.572C95.9761 232.342 96.855 232.179 97.7426 232.086V232.086Z" fill="#0D395A"/>
<path d="M113.185 214.679C113.164 215.468 113.056 216.253 112.864 217.018C112.595 218.457 112.181 220.424 111.653 222.576C111.125 224.729 110.618 226.716 110.163 228.062C109.98 228.832 109.709 229.579 109.355 230.287C109.413 229.5 109.559 228.723 109.79 227.969C110.183 226.354 110.629 224.491 111.125 222.452C111.622 220.413 112.098 218.55 112.491 216.936C112.632 216.158 112.864 215.401 113.185 214.679V214.679Z" fill="#0D395A"/>
<path d="M67.9429 237.83C65.5485 237.46 63.1854 236.91 60.8739 236.185C58.5119 235.632 56.1941 234.906 53.9395 234.011C56.3327 234.387 58.6953 234.937 61.0084 235.657C63.3709 236.207 65.6889 236.933 67.9429 237.83V237.83Z" fill="#0D395A"/>
<path d="M116.29 206.056C115.899 206.124 115.5 206.124 115.11 206.056C114.029 205.946 112.967 205.691 111.953 205.301C110.26 204.665 108.719 203.681 107.428 202.414C106.138 201.147 105.126 199.623 104.46 197.942C103.723 196.093 103.408 194.102 103.539 192.115C103.585 190.476 104.075 188.881 104.956 187.499C105.577 186.568 106.503 185.883 107.575 185.564C107.861 185.485 108.158 185.446 108.455 185.45C108.662 185.45 108.765 185.45 108.765 185.45C108.765 185.45 108.331 185.45 107.637 185.729C106.654 186.093 105.82 186.774 105.267 187.665C103.859 189.88 103.466 193.926 104.967 197.704C105.665 199.485 106.759 201.085 108.165 202.382C109.317 203.444 110.644 204.298 112.088 204.908C113.442 205.443 114.851 205.828 116.29 206.056V206.056Z" fill="#0D395A"/>
<path d="M140.414 206.946C140.156 203.772 140.073 200.587 140.166 197.404C140.085 194.223 140.182 191.041 140.456 187.871C140.715 191.042 140.798 194.224 140.704 197.404C140.791 200.588 140.695 203.774 140.414 206.946V206.946Z" fill="#0D395A"/>
<path d="M102.449 185.522C102.563 183.214 102.801 180.606 102.801 180.606C102.801 180.606 108.514 179.975 108.856 174.075C109.197 168.176 108.856 154.566 108.856 154.566L98.506 149.267L87.0176 158.302L88.7874 187.799L99.3236 188.472C100.129 188.494 100.91 188.196 101.496 187.643C102.082 187.09 102.425 186.328 102.449 185.522V185.522Z" fill="#FFBE9D"/>
<path d="M103.475 169.406C103.475 169.406 103.475 169.52 103.382 169.655C103.305 169.752 103.206 169.83 103.092 169.88C102.978 169.93 102.854 169.953 102.73 169.944C102.068 169.944 101.426 169.178 101.198 168.288C101.09 167.857 101.09 167.405 101.198 166.974C101.22 166.786 101.288 166.606 101.396 166.45C101.504 166.295 101.65 166.169 101.819 166.084C101.959 166.026 102.115 166.026 102.254 166.084C102.357 166.135 102.441 166.219 102.492 166.322C102.565 166.498 102.492 166.612 102.492 166.601C102.492 166.591 102.492 166.498 102.389 166.394C102.334 166.32 102.255 166.269 102.165 166.25C102.075 166.23 101.982 166.245 101.902 166.291C101.775 166.368 101.67 166.475 101.596 166.604C101.521 166.732 101.481 166.877 101.478 167.026C101.391 167.411 101.391 167.81 101.478 168.195C101.685 169.002 102.244 169.655 102.74 169.717C102.838 169.73 102.937 169.723 103.031 169.696C103.125 169.669 103.213 169.624 103.289 169.561C103.413 169.479 103.455 169.396 103.475 169.406Z" fill="#EB996E"/>
<path d="M112.407 151.378C111.61 148.666 108.723 147.321 106.094 146.576C102.088 145.437 97.7622 144.94 93.8499 146.379C89.9377 147.818 85.2388 150.343 85.2388 154.659C82.9308 154.473 81.606 156.491 80.6952 158.995C80.1129 160.521 79.764 162.126 79.6602 163.756V163.756C79.3704 169.407 77.7869 177.211 74.123 181.351C72.0531 183.659 69.1861 185.253 68.0063 188.13C66.9713 190.625 67.5095 193.585 66.5469 196.11C65.6879 198.335 63.7938 199.919 62.407 201.854C60.994 204.05 60.1625 206.569 59.9905 209.174C59.8185 211.779 60.3117 214.386 61.4237 216.748C62.5437 219.05 64.1207 221.099 66.0584 222.772C67.9961 224.444 70.2541 225.705 72.6948 226.477C77.5292 227.948 82.6846 227.998 87.5469 226.622C91.196 225.749 94.6 224.061 97.5034 221.685C100.474 219.259 102.515 215.88 103.279 212.121C104.014 207.899 102.834 203.603 101.954 199.401C99.2008 186.123 99.9874 185.429 103.465 173.102C103.548 172.885 103.589 172.657 103.651 172.44C103.713 172.223 103.744 172.119 103.786 171.954C103.885 171.466 103.937 170.971 103.941 170.473C103.433 170.662 102.882 170.702 102.352 170.589C101.822 170.475 101.336 170.212 100.95 169.832C100.563 169.426 100.294 168.923 100.17 168.376C100.046 167.83 100.072 167.26 100.246 166.727C100.49 166.144 100.854 165.619 101.314 165.186C101.774 164.752 102.32 164.421 102.916 164.212C104.065 163.736 105.297 163.487 106.425 162.959C108.816 161.821 110.472 159.461 111.6 156.988C112.528 155.273 112.814 153.284 112.407 151.378V151.378Z" fill="#0D395A"/>
<path d="M103.889 169.687C104.108 170.01 104.288 170.357 104.427 170.722C104.738 171.374 105.152 172.295 105.607 173.361L105.69 173.557H105.472L104.437 173.651C103.723 173.651 103.123 173.785 102.419 173.775C102.358 173.761 102.301 173.732 102.254 173.69C102.207 173.649 102.171 173.596 102.15 173.537C102.119 173.443 102.119 173.341 102.15 173.247C102.174 173.107 102.205 172.969 102.243 172.833L102.43 172.098C102.523 171.608 102.669 171.129 102.864 170.67C102.845 171.17 102.772 171.666 102.647 172.15L102.502 172.885C102.45 173.133 102.357 173.516 102.502 173.485C103.019 173.485 103.754 173.371 104.437 173.33L105.472 173.237L105.338 173.464C104.893 172.429 104.52 171.456 104.303 170.784C104.112 170.44 103.973 170.071 103.889 169.687V169.687Z" fill="#3B46E7"/>
<path d="M68.4498 256.801L114.352 255.404L134.327 333.38L130.653 422.823H106.382L109.353 335.284L91.6025 280.999L94.3349 426.291L69.8057 426.653L67.2285 290.086C67.1147 286.288 65.8727 277.728 66.3384 273.961L68.4498 256.801Z" fill="#0D395A"/>
<path d="M97.712 282.107C96.9607 282.155 96.2064 282.11 95.4661 281.973C94.0792 281.807 92.1852 281.517 90.1049 281.103C88.0245 280.689 86.1616 280.213 84.8161 279.83C84.0968 279.672 83.4011 279.422 82.7461 279.085C82.7461 278.93 86.1202 279.737 90.2601 280.576C94.4001 281.414 97.7327 281.952 97.712 282.107Z" fill="#455A64"/>
<path d="M130.406 417.919C130.406 418.064 124.91 418.188 118.131 418.188C111.352 418.188 105.846 418.064 105.846 417.919C105.846 417.774 111.342 417.65 118.131 417.65C124.921 417.65 130.406 417.764 130.406 417.919Z" fill="#455A64"/>
<path d="M94.119 422.513C94.119 422.668 88.7785 422.782 82.1959 422.782C75.6134 422.782 70.2832 422.668 70.2832 422.513C70.2832 422.358 75.6238 422.244 82.1959 422.244C88.7681 422.244 94.119 422.368 94.119 422.513Z" fill="#455A64"/>
<path d="M90.9518 422.142C90.8069 422.142 90.1652 390.399 89.5132 351.245C88.8611 312.091 88.4782 280.327 88.6127 280.327C88.7473 280.327 89.4097 312.06 90.0514 351.234C90.6931 390.409 91.1071 422.142 90.9518 422.142Z" fill="#455A64"/>
<path d="M127.147 417.919C127.136 417.777 127.136 417.635 127.147 417.494V416.252C127.147 415.134 127.23 413.53 127.292 411.491C127.437 407.351 127.644 401.338 127.903 393.969C128.462 379.148 129.248 358.717 130.107 336.165C130.107 335.947 130.107 335.74 130.107 335.554V335.627C124.674 313.892 119.757 294.165 116.187 279.892L112.047 263.012C111.571 261.035 111.208 259.493 110.95 258.416C110.825 257.909 110.743 257.516 110.67 257.216C110.63 257.081 110.605 256.942 110.598 256.802C110.651 256.932 110.693 257.067 110.722 257.205C110.805 257.495 110.908 257.889 111.053 258.385C111.332 259.42 111.736 260.994 112.254 262.96C113.289 266.955 114.748 272.71 116.57 279.799C120.171 294.061 125.139 313.737 130.645 335.502V335.575C130.645 335.761 130.645 335.978 130.645 336.185C129.724 358.738 128.886 379.158 128.275 393.979C127.954 401.359 127.685 407.331 127.499 411.491C127.396 413.561 127.313 415.134 127.261 416.252C127.261 416.78 127.199 417.194 127.189 417.494C127.19 417.637 127.176 417.779 127.147 417.919V417.919Z" fill="#455A64"/>
<path d="M119.228 333.733C117.484 334.306 115.689 334.704 113.866 334.923C111.631 335.306 109.727 335.575 108.867 335.616V335.409C109.147 335.492 109.292 335.544 109.292 335.585C109.292 335.627 109.116 335.585 108.826 335.585H108.205L108.826 335.399C109.633 335.161 111.538 334.768 113.773 334.364C115.566 333.975 117.393 333.764 119.228 333.733Z" fill="#455A64"/>
<path d="M118.802 336.704C117.188 336.778 115.57 336.705 113.969 336.486C112.352 336.453 110.742 336.277 109.156 335.958C112.391 335.695 115.647 335.946 118.802 336.704V336.704Z" fill="#455A64"/>
<path opacity="0.2" d="M68.2539 258.446C68.7975 259.144 69.4822 259.72 70.2634 260.136C71.0445 260.551 71.9045 260.797 72.7871 260.858C74.6358 261.077 76.5058 261.042 78.3451 260.754C90.1957 259.44 102.75 258.229 114.352 255.404C99.3346 256.242 83.4683 255.962 68.4506 256.801L68.2953 258.084" fill="black"/>
<g opacity="0.2">
<path opacity="0.2" d="M83.7266 279.613L92.1928 312.463L91.6028 281L83.7266 279.613Z" fill="black"/>
</g>
</svg>
