<svg width="460" height="290" viewBox="0 0 460 290" fill="none" xmlns="http://www.w3.org/2000/svg">
<path d="M460 27.4827H391.631V120.919H460V27.4827Z" fill="#E0E0E0"/>
<path d="M457.589 30.0385H394.01V118.467H457.589V30.0385Z" fill="#FAFAFA"/>
<path d="M436.173 50.7374H415.432V101.391H436.173V50.7374Z" fill="#E0E0E0"/>
<path d="M49.5082 288.775C65.5613 280.981 71.8231 262.768 73.9286 245.849C74.2829 243.021 75.0596 240.105 74.1193 237.427C73.1791 234.75 70.3173 232.569 67.6123 233.339C65.3705 233.986 64.0759 236.269 62.5905 238.109C60.6025 240.538 57.9691 242.356 54.9933 243.355C53.0582 243.996 50.7483 244.214 49.1403 242.96C46.9258 241.236 47.1779 237.836 47.6344 235.043C48.5021 229.846 49.3651 224.643 50.2237 219.432C50.687 216.639 51.1503 213.784 50.7006 210.997C50.2509 208.21 48.7246 205.43 46.1831 204.265C43.6416 203.1 40.1121 204.108 39.1105 206.752C38.6949 207.856 38.7426 209.075 38.4768 210.22C38.2111 211.365 37.4752 212.564 36.3169 212.714C35.1585 212.864 34.1569 211.896 33.4551 210.942C31.0158 207.658 29.6394 203.713 28.3857 199.809C27.132 195.905 25.9396 191.912 23.8137 188.416C21.6878 184.921 18.4513 181.936 14.4857 181.037C10.5202 180.138 5.85958 181.936 4.21747 185.732C2.57537 189.527 4.21747 193.908 6.26158 197.465C9.20863 202.789 12.913 207.657 17.2589 211.917C18.0425 212.687 18.8874 213.511 19.0577 214.601C19.3712 216.564 17.3066 218.131 15.3715 218.451C13.1775 218.812 10.9494 218.24 8.72815 218.151C6.50688 218.063 3.95855 218.642 2.8411 220.57C1.23988 223.248 3.15453 226.621 5.19183 228.958C9.27718 233.638 14.1383 237.58 19.562 240.609C21.497 241.686 23.5548 242.694 25.0129 244.405C26.4711 246.115 27.057 248.786 25.7284 250.591C24.3997 252.397 21.7423 252.636 19.6505 251.879C17.5587 251.123 15.8144 249.665 13.8861 248.561C10.2749 246.517 5.2736 245.979 2.30282 248.902C0.340467 250.83 -0.286394 253.848 0.115615 256.581C0.517624 259.313 1.82586 261.814 3.25674 264.164C8.26482 272.341 15.2216 279.434 23.6434 283.924C32.0651 288.414 40.1871 290.581 49.5355 288.755" fill="#EBEBEB"/>
<path d="M47.2323 289.667C47.6889 282.901 47.9887 286.41 46.844 277.525C45.5102 267.908 43.6219 258.375 41.1886 248.976L39.3284 241.562C38.7356 239.171 38.0952 236.725 37.3729 234.401C35.9346 229.948 34.249 225.578 32.3239 221.312C30.5183 217.224 28.6582 213.415 26.873 209.865C25.0878 206.315 23.3775 203.058 21.7014 200.135C19.0513 195.516 16.0393 191.114 12.6936 186.971C11.5149 185.499 10.5609 184.395 9.90682 183.653L9.1505 182.815C9.06969 182.717 8.9808 182.625 8.88477 182.542C8.94936 182.652 9.02468 182.754 9.10962 182.849L9.79099 183.721C10.4179 184.484 11.3445 185.615 12.5165 187.094C15.7945 191.275 18.7554 195.696 21.3743 200.319C23.0437 203.242 24.7335 206.52 26.4914 210.07C28.2493 213.619 30.089 217.442 31.8742 221.517C33.7775 225.771 35.4448 230.127 36.8687 234.565C37.6114 236.875 38.2314 239.259 38.831 241.699C39.4306 244.138 40.0643 246.605 40.6912 249.105C43.1169 258.485 45.0141 267.994 46.3738 277.587C47.539 286.444 47.28 282.901 46.8712 289.647" fill="#E0E0E0"/>
<path d="M37.209 234.36C37.4025 233.996 37.5578 233.612 37.6723 233.216C37.9381 232.466 38.2924 231.369 38.7148 230.006C39.5529 227.281 40.5818 223.493 41.6992 219.302C42.8167 215.112 43.9 211.337 44.7722 208.639C45.2083 207.276 45.5762 206.193 45.8351 205.443C45.9927 205.061 46.1092 204.664 46.1826 204.257C45.9607 204.608 45.7801 204.983 45.6444 205.375C45.3241 206.104 44.9085 207.174 44.4315 208.516C43.4572 211.194 42.3193 214.969 41.195 219.166L38.3605 229.904C38.0062 231.192 37.6791 232.282 37.4747 233.154C37.342 233.545 37.2528 233.95 37.209 234.36V234.36Z" fill="#E0E0E0"/>
<path d="M2.33594 221.926C2.79028 222.103 3.26019 222.238 3.73956 222.328C4.64578 222.553 5.96764 222.88 7.58249 223.329C10.819 224.208 15.2411 225.578 20.0584 227.308C24.8757 229.039 29.1683 230.797 32.2345 232.16C33.7744 232.841 35.0077 233.4 35.8594 233.795C36.2937 234.029 36.7502 234.218 37.2221 234.361C36.8244 234.075 36.4026 233.824 35.9616 233.611C35.1372 233.161 33.9175 232.535 32.398 231.819C29.3659 230.368 25.0801 228.549 20.2492 226.811C16.1292 225.317 11.9356 224.034 7.6847 222.968C6.05622 222.559 4.72074 222.287 3.79407 222.123C3.31549 222.011 2.82719 221.945 2.33594 221.926V221.926Z" fill="#E0E0E0"/>
<path d="M46.5039 276.796C46.5039 276.796 46.6334 276.666 46.8242 276.394C47.0149 276.121 47.3147 275.672 47.6418 275.195C48.3232 274.145 49.3384 272.599 50.5308 270.677C52.9224 266.841 56.0567 261.431 59.4295 255.414C62.8023 249.398 65.8889 243.961 68.1988 240.077L70.9243 235.484L71.6669 234.224C71.8305 233.938 71.9122 233.781 71.8918 233.767C71.771 233.888 71.6657 234.023 71.5784 234.169C71.3535 234.496 71.0878 234.892 70.7539 235.369C70.0725 236.418 69.0641 237.958 67.8717 239.879C65.4801 243.722 62.3458 249.132 58.9662 255.156C55.5866 261.179 52.5136 266.603 50.2038 270.486L47.4783 275.079L46.7356 276.339C46.6388 276.481 46.5609 276.634 46.5039 276.796V276.796Z" fill="#E0E0E0"/>
<path d="M1.19922 253.8C1.33336 253.911 1.48245 254.003 1.64211 254.072L2.95034 254.754L7.80171 257.227C11.8899 259.312 17.5181 262.262 23.7322 265.526C29.9463 268.79 35.5948 271.699 39.7376 273.703C41.7817 274.704 43.4919 275.495 44.6639 276.019L46.0266 276.619C46.1809 276.696 46.3431 276.755 46.5104 276.796C46.5104 276.796 46.3673 276.687 46.0675 276.523L44.7593 275.842L39.9079 273.375C35.8197 271.284 30.1916 268.333 23.9775 265.07C17.7634 261.806 12.108 258.93 7.96524 256.886C5.92112 255.885 4.21769 255.087 3.03892 254.563L1.67618 253.97C1.5255 253.892 1.36509 253.835 1.19922 253.8V253.8Z" fill="#E0E0E0"/>
<path d="M64.8727 85.1816H10.8809V138.226H64.8727V85.1816Z" fill="#E0E0E0"/>
<path d="M62.9652 86.6318H12.7617V136.835H62.9652V86.6318Z" fill="#FAFAFA"/>
<path d="M46.054 103.551H29.6738V119.932H46.054V103.551Z" fill="#E0E0E0"/>
<path d="M443.921 289.511C443.921 289.606 348.836 289.688 231.572 289.688C114.308 289.688 19.209 289.593 19.209 289.511C19.209 289.429 114.274 289.334 231.572 289.334C348.87 289.334 443.921 289.409 443.921 289.511Z" fill="#263238"/>
<path d="M369.414 46.1516H93.7171C91.4347 46.1516 89.2458 47.0583 87.6319 48.6722C86.018 50.2861 85.1113 52.475 85.1113 54.7573V249.48C85.1113 251.762 86.018 253.951 87.6319 255.565C89.2458 257.179 91.4347 258.085 93.7171 258.085H199.541C199.541 258.085 206.273 278.901 185.409 289.667H284.344C284.344 289.667 260.789 281.593 266.847 258.085H369.414C371.696 258.085 373.885 257.179 375.499 255.565C377.113 253.951 378.019 251.762 378.019 249.48V54.7573C378.019 52.475 377.113 50.2861 375.499 48.6722C373.885 47.0583 371.696 46.1516 369.414 46.1516Z" fill="#0D395A"/>
<path d="M235.245 237.61C239 242.965 233.126 248.839 227.75 245.105C227.572 244.981 227.417 244.827 227.294 244.648C223.553 239.286 229.413 233.426 234.789 237.153C234.965 237.279 235.119 237.434 235.245 237.61V237.61Z" fill="#263238"/>
<path d="M368.991 57.8228H93.5601C92.3296 57.8228 91.332 58.8203 91.332 60.0508V221.611C91.332 222.841 92.3296 223.839 93.5601 223.839H368.991C370.221 223.839 371.219 222.841 371.219 221.611V60.0508C371.219 58.8203 370.221 57.8228 368.991 57.8228Z" fill="#FAFAFA"/>
<path d="M368.992 224.18H93.5678C92.8859 224.18 92.2318 223.909 91.749 223.428C91.2661 222.946 90.994 222.293 90.9922 221.611V60.0511C90.994 59.3692 91.2661 58.7158 91.749 58.2343C92.2318 57.7527 92.8859 57.4823 93.5678 57.4823H368.992C369.673 57.4823 370.326 57.7529 370.808 58.2347C371.29 58.7164 371.561 59.3698 371.561 60.0511V221.611C371.561 222.292 371.29 222.946 370.808 223.427C370.326 223.909 369.673 224.18 368.992 224.18V224.18ZM93.5678 58.1637C93.0666 58.1637 92.5858 58.3623 92.2308 58.7161C91.8757 59.0698 91.6754 59.5499 91.6736 60.0511V221.611C91.6754 222.112 91.8757 222.592 92.2308 222.946C92.5858 223.3 93.0666 223.498 93.5678 223.498H368.992C369.492 223.498 369.972 223.3 370.326 222.946C370.68 222.592 370.879 222.112 370.879 221.611V60.0511C370.879 59.5505 370.68 59.0704 370.326 58.7165C369.972 58.3625 369.492 58.1637 368.992 58.1637H93.5678Z" fill="white"/>
<path d="M114.288 64.2347C114.291 64.6773 114.162 65.1107 113.918 65.48C113.674 65.8493 113.326 66.1379 112.918 66.3092C112.51 66.4804 112.06 66.5266 111.626 66.4419C111.191 66.3572 110.792 66.1455 110.478 65.8335C110.164 65.5215 109.95 65.1233 109.862 64.6894C109.775 64.2555 109.818 63.8054 109.987 63.3962C110.156 62.9871 110.442 62.6372 110.81 62.391C111.178 62.1449 111.611 62.0134 112.053 62.0134C112.644 62.0134 113.21 62.247 113.629 62.6632C114.047 63.0794 114.285 63.6443 114.288 64.2347V64.2347Z" fill="#0D395A"/>
<path d="M100.741 64.2339C100.741 64.6759 100.61 65.108 100.365 65.4756C100.119 65.8431 99.77 66.1295 99.3616 66.2987C98.9533 66.4678 98.5039 66.5121 98.0704 66.4259C97.6369 66.3396 97.2386 66.1268 96.9261 65.8142C96.6135 65.5017 96.4007 65.1035 96.3144 64.6699C96.2282 64.2364 96.2725 63.787 96.4416 63.3787C96.6108 62.9703 96.8972 62.6212 97.2647 62.3757C97.6323 62.1301 98.0644 61.999 98.5064 61.999C99.0991 61.999 99.6676 62.2345 100.087 62.6536C100.506 63.0727 100.741 63.6412 100.741 64.2339V64.2339Z" fill="#0D395A"/>
<path d="M107.243 64.2339C107.243 64.6759 107.112 65.108 106.867 65.4756C106.621 65.8431 106.272 66.1295 105.864 66.2987C105.455 66.4678 105.006 66.5121 104.572 66.4259C104.139 66.3396 103.741 66.1268 103.428 65.8142C103.115 65.5017 102.903 65.1035 102.816 64.6699C102.73 64.2364 102.774 63.787 102.944 63.3787C103.113 62.9703 103.399 62.6212 103.767 62.3757C104.134 62.1301 104.566 61.999 105.008 61.999C105.601 61.999 106.17 62.2345 106.589 62.6536C107.008 63.0727 107.243 63.6412 107.243 64.2339V64.2339Z" fill="#0D395A"/>
<path d="M371.424 70.9462C371.424 71.0416 308.669 71.1234 231.286 71.1234C153.903 71.1234 91.1348 71.0416 91.1348 70.9462C91.1348 70.8508 153.869 70.769 231.286 70.769C308.703 70.769 371.424 70.8713 371.424 70.9462Z" fill="#263238"/>
<path d="M356.068 85.8265L305.504 85.9236L305.582 126.349L356.146 126.252L356.068 85.8265Z" fill="#F5F5F5"/>
<path d="M354.266 88.3779L307.252 88.4681L307.32 123.804L354.334 123.714L354.266 88.3779Z" fill="#EBEBEB"/>
<path d="M307.312 123.828L323.693 101.833L333.893 115.563L340.775 108.197L354.327 123.746L307.312 123.828Z" fill="#E0E0E0"/>
<path d="M338.179 99.1205C338.176 99.8521 337.957 100.567 337.549 101.174C337.141 101.781 336.562 102.254 335.886 102.533C335.21 102.812 334.466 102.885 333.748 102.742C333.031 102.599 332.372 102.247 331.854 101.73C331.336 101.213 330.983 100.555 330.838 99.8375C330.694 99.1202 330.765 98.3762 331.043 97.6994C331.321 97.0225 331.793 96.443 332.4 96.0339C333.006 95.6247 333.72 95.4042 334.452 95.4002C334.941 95.3975 335.427 95.4918 335.88 95.6777C336.333 95.8637 336.744 96.1375 337.091 96.4834C337.437 96.8293 337.712 97.2405 337.899 97.6931C338.086 98.1457 338.181 98.6309 338.179 99.1205V99.1205Z" fill="#E0E0E0"/>
<path d="M356.078 172.381L305.514 172.478L305.591 212.904L356.156 212.807L356.078 172.381Z" fill="#F5F5F5"/>
<path d="M354.276 174.932L307.262 175.023L307.33 210.359L354.344 210.268L354.276 174.932Z" fill="#EBEBEB"/>
<path d="M307.312 210.381L323.693 188.386L333.893 202.109L340.775 194.75L354.327 210.293L307.312 210.381Z" fill="#E0E0E0"/>
<path d="M338.179 185.668C338.182 186.402 337.967 187.12 337.561 187.731C337.155 188.343 336.577 188.82 335.9 189.103C335.223 189.385 334.477 189.461 333.758 189.319C333.038 189.178 332.376 188.826 331.856 188.308C331.336 187.79 330.982 187.13 330.838 186.41C330.694 185.691 330.766 184.945 331.046 184.267C331.327 183.589 331.802 183.009 332.412 182.601C333.021 182.193 333.739 181.975 334.472 181.975C334.958 181.974 335.439 182.069 335.889 182.254C336.338 182.439 336.746 182.711 337.09 183.054C337.435 183.397 337.708 183.804 337.895 184.253C338.081 184.702 338.178 185.183 338.179 185.668Z" fill="#E0E0E0"/>
<path d="M153.346 85.8408L102.781 85.9379L102.859 126.364L153.423 126.266L153.346 85.8408Z" fill="#F5F5F5"/>
<path d="M151.546 88.3933L104.531 88.4835L104.599 123.819L151.614 123.729L151.546 88.3933Z" fill="#EBEBEB"/>
<path d="M104.584 123.828L120.964 101.833L131.164 115.563L138.046 108.197L151.599 123.746L104.584 123.828Z" fill="#E0E0E0"/>
<path d="M135.45 99.1204C135.446 99.851 135.226 100.564 134.817 101.17C134.409 101.775 133.83 102.246 133.154 102.523C132.478 102.8 131.735 102.871 131.019 102.727C130.303 102.582 129.645 102.229 129.13 101.711C128.614 101.194 128.263 100.535 128.121 99.8185C127.979 99.1018 128.053 98.3592 128.332 97.6842C128.612 97.0092 129.085 96.4321 129.692 96.0256C130.299 95.6191 131.013 95.4015 131.744 95.4002C132.232 95.3992 132.715 95.495 133.166 95.6818C133.617 95.8686 134.027 96.1428 134.372 96.4886C134.716 96.8344 134.989 97.245 135.174 97.6967C135.359 98.1484 135.453 98.6323 135.45 99.1204Z" fill="#E0E0E0"/>
<path d="M153.355 129.414L102.791 129.511L102.869 169.937L153.433 169.84L153.355 129.414Z" fill="#F5F5F5"/>
<path d="M151.554 131.959L104.539 132.049L104.607 167.385L151.621 167.295L151.554 131.959Z" fill="#EBEBEB"/>
<path d="M104.584 167.401L120.964 145.4L131.164 159.13L138.046 151.771L151.599 167.313L104.584 167.401Z" fill="#E0E0E0"/>
<path d="M135.45 142.688C135.454 143.42 135.241 144.137 134.837 144.748C134.434 145.359 133.858 145.836 133.182 146.12C132.507 146.403 131.763 146.48 131.044 146.34C130.325 146.2 129.664 145.85 129.144 145.334C128.624 144.818 128.269 144.159 128.124 143.442C127.979 142.724 128.05 141.979 128.329 141.302C128.607 140.624 129.08 140.045 129.688 139.637C130.296 139.228 131.011 139.01 131.744 139.008C132.723 139.006 133.662 139.393 134.357 140.082C135.052 140.772 135.445 141.709 135.45 142.688V142.688Z" fill="#E0E0E0"/>
<path d="M153.357 173.369L102.793 173.466L102.871 213.892L153.435 213.794L153.357 173.369Z" fill="#F5F5F5"/>
<path d="M151.558 175.922L104.543 176.012L104.611 211.348L151.625 211.258L151.558 175.922Z" fill="#EBEBEB"/>
<path d="M104.584 211.356L120.964 189.362L131.164 203.085L138.046 195.726L151.599 211.275L104.584 211.356Z" fill="#E0E0E0"/>
<path d="M135.45 186.643C135.452 187.375 135.236 188.09 134.831 188.699C134.425 189.309 133.848 189.784 133.173 190.065C132.497 190.346 131.753 190.421 131.036 190.28C130.318 190.138 129.658 189.787 129.139 189.271C128.621 188.754 128.267 188.095 128.123 187.378C127.979 186.661 128.051 185.917 128.33 185.24C128.609 184.563 129.082 183.985 129.689 183.577C130.297 183.169 131.012 182.951 131.744 182.95C132.725 182.95 133.665 183.338 134.36 184.031C135.055 184.723 135.447 185.662 135.45 186.643V186.643Z" fill="#E0E0E0"/>
<path d="M363.647 125.607C362.051 125.368 360.421 125.518 358.896 126.047C357.371 126.575 355.997 127.464 354.891 128.639C351.328 132.216 336.494 145.278 336.494 145.278L314.977 140.972L311.965 150.593C311.965 150.593 337.38 158.497 339.22 157.816C341.059 157.134 354.891 147.806 354.891 147.806L363.647 125.607Z" fill="#3B46E7"/>
<path d="M342.005 92.4786L238.412 106.54L249.654 189.358L353.246 175.296L342.005 92.4786Z" fill="#EBEBEB"/>
<path d="M342.007 92.445L341.51 92.52L340.065 92.7312L334.451 93.5147L313.26 96.4378L238.446 106.658L238.602 106.454C241.955 131.106 245.804 159.362 249.872 189.261L249.647 189.091L353.216 175.054L353.073 175.245L345.012 115.162C344.051 107.926 343.295 102.25 342.777 98.3797C342.525 96.4446 342.328 94.9729 342.198 93.9508C342.069 92.9288 342.007 92.4246 342.007 92.4246C342.007 92.4246 342.089 92.922 342.225 93.9099C342.362 94.8979 342.573 96.3833 342.845 98.298C343.377 102.161 344.16 107.837 345.162 115.032C347.145 129.512 349.993 150.225 353.42 175.218V175.388H353.25L249.681 189.493H249.477V189.288C245.423 159.383 241.594 131.126 238.248 106.474V106.297H238.425L313.376 96.213L334.539 93.3853L340.127 92.6494L341.558 92.4654L342.007 92.445Z" fill="#263238"/>
<path d="M338.142 99.7474L241.916 112.383L251.413 184.709L347.639 172.073L338.142 99.7474Z" fill="#3B46E7"/>
<path d="M252.529 183.634L280.057 134.071L304.716 159.39L316.803 142.417L348.841 170.551L252.529 183.634Z" fill="#3B46E7"/>
<path d="M308.988 124.524C309.192 126.024 308.946 127.551 308.281 128.911C307.617 130.271 306.564 131.403 305.256 132.165C303.948 132.927 302.444 133.283 300.933 133.19C299.422 133.096 297.973 132.557 296.769 131.64C295.565 130.723 294.66 129.469 294.169 128.038C293.677 126.606 293.621 125.061 294.008 123.597C294.395 122.134 295.207 120.818 296.341 119.817C297.476 118.815 298.882 118.172 300.382 117.97C302.393 117.698 304.428 118.236 306.042 119.466C307.656 120.695 308.716 122.514 308.988 124.524V124.524Z" fill="#3B46E7"/>
<g opacity="0.2">
<path opacity="0.2" d="M252.529 183.634L280.057 134.071L304.716 159.39L316.803 142.417L348.841 170.551L252.529 183.634Z" fill="black"/>
</g>
<g opacity="0.2">
<path opacity="0.2" d="M308.988 124.524C309.192 126.024 308.946 127.551 308.281 128.911C307.617 130.271 306.564 131.403 305.256 132.165C303.948 132.927 302.444 133.283 300.933 133.19C299.422 133.096 297.973 132.557 296.769 131.64C295.565 130.723 294.66 129.469 294.169 128.038C293.677 126.606 293.621 125.061 294.008 123.597C294.395 122.134 295.207 120.818 296.341 119.817C297.476 118.815 298.882 118.172 300.382 117.97C302.393 117.698 304.428 118.236 306.042 119.466C307.656 120.695 308.716 122.514 308.988 124.524V124.524Z" fill="black"/>
</g>
<path d="M388.103 136.346C389.085 129.607 385.957 127.488 381.044 125.444C374.912 122.902 363.22 124.17 359.241 127.726L354.744 141.054C352.856 143.255 353.156 146.614 354.246 149.305C355.336 151.997 357.094 154.409 357.905 157.189C359.479 162.578 358.375 167.341 358 172.935C357.919 174.23 356.924 176.615 357.878 177.487C358.832 178.359 360.079 178.318 361.285 178.27C370.685 177.886 379.903 175.554 388.356 171.423C385.146 164.95 381.61 157.455 383.675 152.494C385.806 147.313 387.294 141.889 388.103 136.346Z" fill="#3B46E7"/>
<path d="M345.666 150.13L342.627 160.474C342.627 160.474 358.496 166.245 367.088 166.143C375.142 166.04 377.445 165.127 380.28 158.648C383.114 152.168 386.33 144.673 387.005 140.373C387.486 138.947 387.829 137.477 388.027 135.985C389.206 127.161 378.488 124.838 376.9 133.6L375.619 138.295C375.619 138.295 372.696 144.904 372.56 145.272C371.265 148.679 369.023 154.191 367.402 154.811C365.78 155.431 345.666 150.13 345.666 150.13Z" fill="#3B46E7"/>
<path d="M384.416 150.594C384.397 150.678 384.369 150.76 384.334 150.839L384.055 151.52C383.809 152.14 383.428 153.047 382.876 154.191C382.222 155.6 381.477 156.966 380.648 158.28C379.56 160.026 378.258 161.628 376.771 163.049C376.338 163.449 375.883 163.825 375.408 164.173C374.905 164.527 374.384 164.855 373.848 165.155L372.982 165.55L372.539 165.741L372.069 165.87L371.115 166.136L370.114 166.258C367.254 166.417 364.385 166.213 361.576 165.652C355.13 164.434 348.776 162.772 342.559 160.678L342.402 160.623L342.45 160.46L342.832 159.152L345.482 150.117L345.53 149.953L345.693 149.994C351.499 151.548 356.99 152.904 361.985 153.817C363.239 154.035 364.458 154.225 365.644 154.321C366.222 154.379 366.804 154.379 367.381 154.321C367.514 154.304 367.645 154.272 367.77 154.225C367.884 154.185 367.982 154.108 368.049 154.007C368.217 153.792 368.367 153.565 368.499 153.326C369.616 151.398 370.475 149.497 371.286 147.793C372.88 144.386 374.1 141.6 374.951 139.699C375.367 138.765 375.694 138.029 375.926 137.518C376.028 137.28 376.117 137.096 376.178 136.953C376.239 136.81 376.273 136.762 376.28 136.769C376.287 136.776 376.28 136.837 376.212 136.966C376.144 137.096 376.076 137.3 375.98 137.539L375.074 139.692C374.263 141.613 373.071 144.393 371.504 147.834C370.707 149.551 369.868 151.445 368.778 153.408C368.637 153.662 368.477 153.906 368.301 154.137C368.201 154.27 368.067 154.374 367.913 154.437C367.768 154.492 367.617 154.529 367.463 154.546C366.865 154.61 366.262 154.61 365.664 154.546C364.458 154.457 363.232 154.266 361.978 154.055C356.956 153.162 351.465 151.82 345.625 150.273L345.836 150.151L343.193 159.193L342.811 160.501L342.695 160.283C348.893 162.374 355.227 164.04 361.651 165.27C364.432 165.836 367.273 166.049 370.107 165.904L371.081 165.795L372.008 165.543L372.464 165.42L372.901 165.23L373.745 164.855C374.272 164.566 374.781 164.247 375.272 163.901C375.746 163.564 376.201 163.2 376.634 162.811C378.116 161.417 379.416 159.842 380.505 158.123C381.342 156.834 382.102 155.496 382.78 154.116C383.353 152.985 383.748 152.072 384.021 151.473L384.327 150.791C384.349 150.722 384.379 150.656 384.416 150.594V150.594Z" fill="#263238"/>
<path d="M357.126 138.539C356.8 139.19 356.431 139.818 356.023 140.42C355.076 141.871 354.414 143.49 354.074 145.189C353.861 146.909 354.152 148.654 354.912 150.211C355.236 150.862 355.523 151.531 355.77 152.214C355.639 152.067 355.529 151.902 355.443 151.724C355.167 151.267 354.915 150.796 354.687 150.313C354.333 149.599 354.054 148.85 353.856 148.079C353.61 147.117 353.563 146.115 353.72 145.135C354.067 143.389 354.78 141.735 355.811 140.284C356.194 139.662 356.634 139.078 357.126 138.539V138.539Z" fill="#263238"/>
<g opacity="0.2">
<path opacity="0.2" d="M358.53 164.902C358.517 165.493 358.631 166.079 358.867 166.622C359.102 167.164 359.452 167.649 359.893 168.043C360.78 168.827 361.84 169.389 362.986 169.685C364.773 170.19 366.645 170.322 368.486 170.073C370.326 169.823 372.096 169.197 373.684 168.234C376.845 166.305 378.998 162.783 379.87 159.205C379.87 159.205 377.874 161.72 376.559 163.028C374.916 164.685 372.748 165.718 370.427 165.951C366.427 166.516 362.38 165.706 358.428 164.895" fill="black"/>
</g>
<path d="M357.297 128.865C357.677 129.015 358.046 129.193 358.4 129.396L361.187 130.854L361.439 130.99L361.194 131.147C360.594 131.536 359.947 131.965 359.266 132.401C358.584 132.837 358.039 133.191 357.474 133.546L357.215 133.716V133.416C357.215 132.088 357.215 130.95 357.215 130.146C357.192 129.717 357.219 129.287 357.297 128.865C357.383 129.286 357.426 129.715 357.426 130.146C357.467 130.95 357.508 132.081 357.549 133.409L357.283 133.273L359.075 132.108C359.756 131.665 360.438 131.249 361.024 130.861V131.147C358.796 129.907 357.235 128.953 357.297 128.865Z" fill="#FAFAFA"/>
<path d="M349.72 135.603C350.099 135.757 350.467 135.935 350.824 136.134L353.611 137.599L353.856 137.729L353.618 137.886L351.689 139.146L349.897 140.291L349.639 140.454V140.154C349.639 138.833 349.639 137.695 349.639 136.891C349.616 136.46 349.643 136.028 349.72 135.603C349.805 136.024 349.847 136.454 349.843 136.884C349.891 137.688 349.932 138.826 349.972 140.148L349.707 140.011L351.499 138.846L353.447 137.599V137.892C351.219 136.652 349.659 135.705 349.72 135.603Z" fill="#FAFAFA"/>
<path d="M369.99 137.913C369.985 137.503 370.012 137.093 370.072 136.687C370.161 135.808 370.27 134.752 370.392 133.559V133.28L370.631 133.45L372.511 134.772L374.242 136.005L374.494 136.189L374.215 136.305C372.988 136.809 371.932 137.232 371.183 137.518C370.794 137.7 370.384 137.832 369.963 137.913C370.319 137.674 370.701 137.475 371.101 137.32C371.83 136.98 372.866 136.516 374.085 135.958V136.258L372.334 135.024C371.653 134.554 371.046 134.098 370.453 133.661L370.719 133.546C370.399 136.135 370.092 137.934 369.99 137.913Z" fill="#FAFAFA"/>
<path d="M356.608 145.879C356.844 145.544 357.103 145.228 357.385 144.932L359.463 142.567L359.654 142.363L359.749 142.635C359.988 143.317 360.247 144.039 360.513 144.802L361.194 146.846L361.289 147.139L360.996 147.064C359.709 146.764 358.605 146.492 357.828 146.287C357.406 146.209 356.994 146.081 356.602 145.906C357.029 145.922 357.453 145.982 357.869 146.083C358.666 146.233 359.777 146.458 361.071 146.764L360.881 146.989C360.656 146.356 360.417 145.681 360.199 144.945C359.981 144.209 359.681 143.446 359.45 142.758L359.729 142.819C357.971 144.666 356.683 145.954 356.608 145.879Z" fill="#FAFAFA"/>
<path d="M367.068 146.948C367.071 146.538 367.099 146.128 367.15 145.721C367.239 144.836 367.348 143.78 367.47 142.594V142.315L367.709 142.478L369.596 143.8L371.32 145.04L371.572 145.217L371.293 145.333C370.073 145.837 369.017 146.26 368.261 146.546C367.87 146.724 367.461 146.859 367.041 146.948C367.396 146.707 367.778 146.508 368.179 146.355C368.908 146.014 369.95 145.551 371.163 145.026V145.319L369.412 144.086L367.538 142.723L367.804 142.608C367.477 145.142 367.157 146.962 367.068 146.948Z" fill="#FAFAFA"/>
<path d="M363.349 153.319C363.352 152.909 363.379 152.499 363.43 152.093C363.526 151.214 363.635 150.157 363.751 148.965V148.686L363.982 148.856L365.87 150.171L367.6 151.411L367.852 151.595L367.573 151.711C366.347 152.215 365.29 152.631 364.534 152.917C364.146 153.1 363.736 153.235 363.314 153.319C363.672 153.082 364.053 152.883 364.452 152.726C365.188 152.386 366.224 151.922 367.437 151.398V151.691L365.692 150.464L363.812 149.101L364.078 148.985C363.751 151.547 363.458 153.319 363.349 153.319Z" fill="#FAFAFA"/>
<path d="M371.075 174.782C371.069 174.372 371.094 173.962 371.15 173.556C371.245 172.67 371.355 171.62 371.477 170.428V170.149L371.716 170.312L373.596 171.634L375.334 172.874L375.586 173.051L375.306 173.167C374.08 173.671 373.024 174.094 372.274 174.38C371.883 174.557 371.474 174.692 371.055 174.782C371.41 174.541 371.792 174.342 372.193 174.189C372.922 173.849 373.957 173.385 375.177 172.861V173.154L373.426 171.927L371.545 170.564L371.811 170.455C371.477 173.004 371.177 174.802 371.075 174.782Z" fill="#FAFAFA"/>
<path d="M377.785 132.394C377.784 131.984 377.811 131.574 377.867 131.168C377.955 130.282 378.064 129.226 378.187 128.04V127.761L378.426 127.925L380.306 129.246L382.037 130.487L382.289 130.664L382.01 130.78C380.79 131.284 379.734 131.706 378.977 131.992C378.586 132.17 378.178 132.304 377.758 132.394C378.111 132.151 378.493 131.951 378.896 131.802C379.625 131.461 380.667 130.998 381.88 130.439V130.739L380.102 129.533L378.228 128.17L378.494 128.054C378.194 130.609 377.894 132.408 377.785 132.394Z" fill="#FAFAFA"/>
<path d="M361.025 139.91C361.02 139.499 361.047 139.089 361.107 138.683C361.196 137.798 361.305 136.741 361.427 135.549V135.27L361.666 135.44L363.546 136.762L365.277 138.002L365.529 138.179L365.25 138.295C364.023 138.799 362.967 139.222 362.218 139.508C361.827 139.685 361.418 139.82 360.998 139.91C361.352 139.665 361.734 139.464 362.136 139.31C362.865 138.97 363.901 138.513 365.12 137.982V138.281L363.369 137.048L361.489 135.685L361.754 135.569C361.455 138.125 361.148 139.923 361.025 139.91Z" fill="#FAFAFA"/>
<path d="M361.992 173.011C361.996 172.601 362.023 172.191 362.074 171.784C362.162 170.905 362.271 169.849 362.394 168.657V168.377L362.633 168.548L364.52 169.87L366.244 171.103L366.496 171.287L366.217 171.403C364.997 171.907 363.941 172.323 363.184 172.609C362.797 172.795 362.387 172.93 361.965 173.011C362.322 172.773 362.703 172.575 363.103 172.418C363.832 172.077 364.874 171.614 366.087 171.089V171.382L364.336 170.156L362.462 168.793L362.728 168.677C362.387 171.232 362.101 173.031 361.992 173.011Z" fill="#FAFAFA"/>
<path d="M379.932 145.34C379.936 144.93 379.963 144.521 380.014 144.114C380.103 143.228 380.212 142.172 380.335 140.986V140.7L380.566 140.871L382.454 142.192L384.184 143.433L384.43 143.61L384.157 143.725C382.931 144.23 381.874 144.652 381.118 144.938C380.728 145.117 380.319 145.252 379.898 145.34C380.252 145.096 380.634 144.894 381.036 144.741C381.772 144.407 382.808 143.944 384.021 143.412V143.712L382.276 142.479L380.396 141.116L380.662 141C380.341 143.555 380.042 145.354 379.932 145.34Z" fill="#FAFAFA"/>
<path d="M372.164 160.766C372.158 160.356 372.186 159.946 372.246 159.54C372.334 158.654 372.443 157.598 372.566 156.412V156.133L372.804 156.296L374.685 157.618L376.416 158.858L376.668 159.035L376.388 159.151C375.162 159.655 374.106 160.078 373.356 160.364C372.965 160.541 372.556 160.676 372.137 160.766C372.494 160.529 372.875 160.33 373.275 160.173C374.004 159.833 375.039 159.369 376.259 158.845V159.138L374.508 157.911L372.627 156.548L372.893 156.432C372.607 158.988 372.266 160.814 372.164 160.766Z" fill="#FAFAFA"/>
<path d="M378.65 167.914C378.644 167.502 378.669 167.089 378.725 166.681C378.821 165.802 378.93 164.746 379.052 163.553V163.274L379.291 163.444L381.171 164.766C381.778 165.195 382.357 165.618 382.902 165.999L383.154 166.183L382.875 166.299C381.648 166.803 380.592 167.226 379.843 167.512C379.452 167.689 379.043 167.824 378.623 167.914C378.975 167.665 379.357 167.464 379.761 167.314C380.49 166.974 381.526 166.51 382.745 165.952V166.252L380.994 165.018L379.114 163.656L379.379 163.54C379.052 166.129 378.739 167.928 378.65 167.914Z" fill="#FAFAFA"/>
<path d="M374.209 152.923C374.208 152.513 374.235 152.103 374.291 151.697C374.379 150.811 374.488 149.755 374.611 148.569V148.29L374.849 148.453L376.73 149.775L378.461 151.015L378.713 151.192L378.433 151.308C377.214 151.812 376.158 152.235 375.401 152.521C375.01 152.698 374.601 152.833 374.182 152.923C374.535 152.679 374.917 152.48 375.32 152.33C376.049 151.99 377.091 151.526 378.304 150.968V151.261L376.553 150.027L374.679 148.665L374.945 148.549C374.652 151.145 374.318 152.937 374.209 152.923Z" fill="#FAFAFA"/>
<path d="M353.428 162.109C353.422 161.698 353.449 161.288 353.509 160.882C353.598 159.996 353.707 158.947 353.83 157.755V157.475L354.068 157.639L355.949 158.961L357.679 160.201L357.932 160.378L357.652 160.494C356.426 160.998 355.37 161.42 354.62 161.707C354.229 161.884 353.82 162.019 353.4 162.109C353.758 161.871 354.139 161.672 354.538 161.516C355.267 161.175 356.303 160.712 357.523 160.187V160.48L355.772 159.254L353.891 157.891L354.157 157.782C353.836 160.33 353.53 162.129 353.428 162.109Z" fill="#FAFAFA"/>
<path d="M363.669 159.949C363.672 159.538 363.699 159.129 363.751 158.722C363.846 157.843 363.955 156.787 364.071 155.595V155.315L364.309 155.486L366.19 156.807L367.921 158.041L368.173 158.225L367.893 158.34C366.667 158.845 365.611 159.26 364.854 159.547C364.466 159.73 364.056 159.865 363.635 159.949C363.992 159.711 364.373 159.512 364.773 159.356C365.509 159.015 366.544 158.552 367.764 157.993L367.73 158.286L365.986 157.06L364.105 155.697L364.371 155.581C364.078 158.17 363.751 159.969 363.669 159.949Z" fill="#FAFAFA"/>
<path d="M345.844 157.51C345.847 157.1 345.874 156.69 345.925 156.283C346.014 155.404 346.123 154.348 346.246 153.156V152.876L346.484 153.047L348.365 154.362L350.095 155.602L350.348 155.786L350.068 155.902C348.849 156.406 347.792 156.821 347.036 157.108C346.647 157.29 346.238 157.425 345.816 157.51C346.174 157.272 346.555 157.073 346.954 156.917C347.683 156.576 348.726 156.113 349.939 155.588V155.881L348.188 154.655L346.314 153.292L346.58 153.176C346.252 155.731 345.953 157.53 345.844 157.51Z" fill="#FAFAFA"/>
<path d="M386.024 137.736C385.621 137.667 385.225 137.564 384.839 137.429L381.82 136.536L381.555 136.455L381.759 136.257L383.408 134.649L384.941 133.177L385.166 132.966L385.227 133.259C385.5 134.56 385.718 135.671 385.861 136.468C385.963 136.883 386.018 137.308 386.024 137.736C385.857 137.341 385.734 136.93 385.657 136.509C385.452 135.732 385.193 134.622 384.9 133.334L385.186 133.416C384.703 133.879 384.192 134.383 383.653 134.908L381.984 136.502L381.923 136.223C384.355 137.007 386.065 137.647 386.024 137.736Z" fill="#FAFAFA"/>
<path d="M321.292 281.253L324.283 275.468L335.185 281.001L330.899 289.511L330.218 289.211C327.131 287.848 314.628 282.077 312.932 280.449C310.997 278.629 321.292 281.253 321.292 281.253Z" fill="#3B46E7"/>
<g opacity="0.5">
<path opacity="0.5" d="M326.955 287.419C327.58 286.582 328.493 286.007 329.517 285.804C330.527 285.601 331.576 285.781 332.461 286.309L330.921 289.348L326.955 287.419Z" fill="white"/>
</g>
<g opacity="0.4">
<path opacity="0.4" d="M316.184 280.135C316.184 280.135 312.471 279.42 312.607 280.135C312.743 280.851 325.151 287.188 330.875 289.491L330.977 289.239L316.436 282.002C316.436 282.002 316.804 280.483 316.184 280.135Z" fill="white"/>
</g>
<path d="M331.153 289.341L330.956 289.266L330.404 289.021L328.359 288.101C326.663 287.318 324.326 286.193 321.777 284.906C319.229 283.618 316.947 282.385 315.304 281.499L313.369 280.415L312.851 280.109C312.729 280.041 312.668 280 312.674 279.993L312.865 280.082L313.397 280.368L315.373 281.417C317.028 282.296 319.318 283.502 321.866 284.824C324.414 286.146 326.738 287.25 328.428 288.067L330.424 289.028L330.969 289.294C331.032 289.303 331.094 289.319 331.153 289.341V289.341Z" fill="#263238"/>
<path d="M316.354 282.193C316.429 281.821 316.466 281.442 316.463 281.062C316.406 280.687 316.308 280.319 316.17 279.965C316.448 280.257 316.604 280.645 316.606 281.049C316.664 281.448 316.575 281.855 316.354 282.193Z" fill="#263238"/>
<path d="M320.387 282.193C320.346 282.193 320.285 281.935 320.258 281.601C320.208 281.404 320.208 281.198 320.258 281.001C320.299 281.001 320.36 281.26 320.387 281.587C320.436 281.786 320.436 281.994 320.387 282.193V282.193Z" fill="#263238"/>
<path d="M321.505 282.18C321.464 282.18 321.355 281.99 321.253 281.724C321.15 281.458 321.096 281.24 321.137 281.226C321.178 281.213 321.287 281.41 321.389 281.676C321.472 281.831 321.512 282.005 321.505 282.18V282.18Z" fill="#263238"/>
<path d="M322.58 281.416C322.58 281.457 322.294 281.362 321.974 281.205C321.772 281.128 321.589 281.009 321.436 280.858C321.436 280.817 321.729 280.912 322.042 281.069C322.355 281.226 322.601 281.416 322.58 281.416Z" fill="#263238"/>
<path d="M323.14 280.803C322.889 280.836 322.633 280.789 322.411 280.667C322.171 280.594 321.96 280.449 321.805 280.251C322.04 280.322 322.268 280.416 322.486 280.531C322.711 280.605 322.929 280.696 323.14 280.803Z" fill="#263238"/>
<path d="M320.504 281.062C320.258 280.98 320.028 280.858 319.822 280.701C319.58 280.539 319.352 280.356 319.141 280.156C319.016 280.039 318.904 279.908 318.807 279.767C318.747 279.677 318.725 279.567 318.746 279.461C318.758 279.402 318.788 279.349 318.832 279.309C318.876 279.269 318.932 279.243 318.991 279.236C319.324 279.241 319.645 279.362 319.899 279.576C320.154 279.791 320.326 280.087 320.388 280.415C320.431 280.605 320.431 280.803 320.388 280.994C320.38 281.067 320.354 281.137 320.313 281.198C320.359 280.946 320.359 280.687 320.313 280.435C320.247 280.174 320.108 279.937 319.911 279.754C319.684 279.523 319.376 279.391 319.052 279.386C318.896 279.386 318.875 279.563 318.957 279.699C319.048 279.833 319.153 279.956 319.27 280.067C319.462 280.267 319.67 280.452 319.89 280.619C320.245 280.899 320.51 281.035 320.504 281.062Z" fill="#263238"/>
<path d="M320.298 281.002C320.287 280.811 320.348 280.624 320.469 280.477C320.585 280.306 320.739 280.164 320.918 280.061C321.03 279.988 321.159 279.944 321.292 279.933C321.425 279.922 321.559 279.945 321.681 280C321.745 280.052 321.785 280.127 321.794 280.208C321.803 280.29 321.78 280.372 321.729 280.436C321.656 280.537 321.563 280.623 321.457 280.688C321.287 280.796 321.104 280.881 320.911 280.94C320.738 281.008 320.552 281.036 320.366 281.022C320.366 281.022 320.571 280.967 320.871 280.845C321.05 280.772 321.221 280.681 321.382 280.572C321.552 280.47 321.75 280.238 321.593 280.123C321.493 280.084 321.385 280.069 321.279 280.08C321.172 280.091 321.07 280.126 320.98 280.184C320.814 280.271 320.667 280.392 320.55 280.538C320.454 280.686 320.37 280.841 320.298 281.002V281.002Z" fill="#263238"/>
<path d="M332.44 286.248C332.44 286.248 332.147 286.064 331.623 285.873C330.946 285.62 330.212 285.561 329.504 285.703C328.799 285.856 328.149 286.198 327.623 286.691C327.221 287.073 327.044 287.372 327.023 287.372C327.046 287.294 327.083 287.22 327.132 287.154C327.253 286.963 327.392 286.785 327.548 286.623C328.068 286.091 328.735 285.726 329.463 285.576C330.192 285.425 330.948 285.496 331.636 285.778C331.843 285.868 332.041 285.975 332.229 286.098C332.406 286.187 332.447 286.241 332.44 286.248Z" fill="#263238"/>
<path d="M333.611 281.151C333.313 281.932 332.967 282.695 332.575 283.433C332.229 284.196 331.835 284.935 331.396 285.648C331.702 284.868 332.05 284.106 332.439 283.365C332.788 282.606 333.179 281.866 333.611 281.151V281.151Z" fill="#263238"/>
<path d="M326.145 285.662C325.56 285.513 324.998 285.283 324.475 284.98C323.931 284.731 323.419 284.418 322.949 284.047C322.949 284.006 323.665 284.415 324.544 284.844C325.423 285.273 326.158 285.621 326.145 285.662Z" fill="#263238"/>
<path d="M328.278 286.745C328.278 286.786 328.142 286.861 327.985 286.991C327.828 287.12 327.719 287.243 327.685 287.222C327.651 287.202 327.685 287.018 327.896 286.875C328.108 286.732 328.271 286.705 328.278 286.745Z" fill="#263238"/>
<path d="M329.587 286.186C329.587 286.227 329.478 286.302 329.308 286.357C329.137 286.411 328.987 286.432 328.974 286.391C328.96 286.35 329.089 286.275 329.26 286.22C329.43 286.166 329.58 286.111 329.587 286.186Z" fill="#263238"/>
<path d="M330.97 286.281C330.97 286.281 330.8 286.234 330.616 286.213C330.432 286.193 330.268 286.213 330.248 286.172C330.227 286.131 330.404 286.029 330.636 286.063C330.868 286.097 330.997 286.247 330.97 286.281Z" fill="#263238"/>
<path d="M331.897 286.479C331.897 286.52 331.802 286.541 331.699 286.534C331.597 286.527 331.501 286.479 331.508 286.438C331.515 286.397 331.604 286.377 331.713 286.384C331.822 286.391 331.904 286.438 331.897 286.479Z" fill="#263238"/>
<path d="M392.66 283.57L390.071 277.595L401.225 272.675L405.109 281.369L404.427 281.724C401.422 283.25 389.049 289.287 386.712 289.573C384.122 289.893 392.66 283.57 392.66 283.57Z" fill="#3B46E7"/>
<g opacity="0.5">
<path opacity="0.5" d="M401.028 283.073C400.777 282.057 400.911 280.984 401.403 280.061C401.882 279.149 402.683 278.45 403.651 278.099L405.014 281.219L401.028 283.073Z" fill="white"/>
</g>
<g opacity="0.4">
<path opacity="0.4" d="M388.565 286.827C388.565 286.827 385.663 289.252 386.317 289.613C386.971 289.975 399.712 284.346 405.116 281.369L404.986 281.13L390.187 287.828C390.187 287.828 389.226 286.568 388.565 286.827Z" fill="white"/>
</g>
<path d="M405.157 281.048L404.973 281.151L404.442 281.43L402.452 282.411C400.762 283.229 398.418 284.333 395.809 285.491C393.199 286.649 390.801 287.644 389.063 288.339L387.019 289.157L386.453 289.368L386.256 289.429C386.314 289.391 386.375 289.359 386.44 289.334L386.999 289.102L389.043 288.244C390.773 287.521 393.131 286.513 395.768 285.355C398.405 284.196 400.728 283.113 402.425 282.316L404.435 281.375L404.98 281.123L405.157 281.048Z" fill="#263238"/>
<path d="M390.262 287.998C390.025 287.701 389.755 287.431 389.458 287.194C389.13 287.001 388.783 286.843 388.422 286.724C388.824 286.703 389.22 286.826 389.539 287.072C389.887 287.279 390.145 287.61 390.262 287.998V287.998Z" fill="#263238"/>
<path d="M392.817 284.871C392.817 284.906 392.552 284.783 392.279 284.599C392.007 284.415 391.795 284.238 391.816 284.204C391.836 284.17 392.082 284.292 392.361 284.476C392.64 284.66 392.838 284.824 392.817 284.871Z" fill="#263238"/>
<path d="M393.512 283.992C393.512 284.033 393.267 283.992 393.001 283.903C392.735 283.815 392.524 283.713 392.538 283.679C392.551 283.645 392.776 283.679 393.049 283.767C393.321 283.856 393.519 283.958 393.512 283.992Z" fill="#263238"/>
<path d="M393.614 282.691C393.614 282.725 393.382 282.875 393.062 283.018C392.742 283.161 392.469 283.256 392.456 283.215C392.442 283.174 392.68 283.031 393.001 282.888C393.321 282.745 393.6 282.65 393.614 282.691Z" fill="#263238"/>
<path d="M393.485 281.859C393.485 281.859 393.281 282.139 392.92 282.336C392.718 282.472 392.481 282.543 392.238 282.541C392.441 282.41 392.656 282.299 392.879 282.207C393.192 282.023 393.451 281.825 393.485 281.859Z" fill="#263238"/>
<path d="M392.006 284.067C391.787 284.212 391.545 284.318 391.291 284.381C391.017 284.46 390.736 284.515 390.452 284.544C390.28 284.565 390.107 284.565 389.935 284.544C389.829 284.533 389.731 284.482 389.662 284.401C389.629 284.352 389.611 284.294 389.611 284.234C389.611 284.175 389.629 284.117 389.662 284.067C389.876 283.813 390.172 283.641 390.498 283.58C390.825 283.519 391.163 283.574 391.454 283.734C391.629 283.824 391.783 283.952 391.904 284.108C391.952 284.161 391.986 284.224 392.006 284.292C391.835 284.103 391.632 283.946 391.406 283.829C391.164 283.709 390.891 283.664 390.623 283.7C390.3 283.732 390.002 283.888 389.792 284.136C389.717 284.272 389.792 284.388 389.982 284.401C390.141 284.418 390.301 284.418 390.459 284.401C390.737 284.376 391.013 284.33 391.284 284.265C391.727 284.142 391.999 284.047 392.006 284.067Z" fill="#263238"/>
<path d="M391.837 284.183C391.837 284.183 391.646 284.061 391.537 283.72C391.488 283.521 391.488 283.313 391.537 283.113C391.551 282.98 391.598 282.851 391.674 282.741C391.75 282.63 391.853 282.54 391.973 282.48C392.053 282.466 392.134 282.482 392.202 282.527C392.269 282.571 392.316 282.64 392.334 282.718C392.365 282.841 392.365 282.97 392.334 283.093C392.311 283.291 392.263 283.486 392.191 283.672C392.138 283.851 392.04 284.013 391.905 284.142C391.905 284.142 391.994 283.952 392.089 283.638C392.147 283.457 392.184 283.269 392.198 283.079C392.198 282.882 392.198 282.582 391.987 282.623C391.776 282.664 391.694 282.95 391.646 283.141C391.605 283.322 391.605 283.511 391.646 283.693C391.695 283.862 391.758 284.026 391.837 284.183V284.183Z" fill="#263238"/>
<path d="M403.583 278.092C403.583 278.092 403.249 278.208 402.772 278.487C402.149 278.855 401.639 279.388 401.3 280.027C400.967 280.666 400.82 281.386 400.878 282.105C400.919 282.664 401.041 282.991 401.014 282.998C400.969 282.929 400.937 282.853 400.919 282.773C400.845 282.552 400.797 282.323 400.776 282.091C400.684 281.348 400.821 280.594 401.168 279.929C401.515 279.265 402.055 278.722 402.717 278.371C402.914 278.262 403.122 278.175 403.337 278.112C403.418 278.094 403.5 278.087 403.583 278.092V278.092Z" fill="#263238"/>
<path d="M400.373 273.962C400.786 274.69 401.156 275.441 401.484 276.211C401.849 276.963 402.175 277.734 402.458 278.521C402.039 277.796 401.668 277.045 401.347 276.272C400.973 275.524 400.648 274.752 400.373 273.962V273.962Z" fill="#263238"/>
<path d="M399.182 282.602C398.704 282.964 398.179 283.26 397.621 283.481C397.088 283.756 396.52 283.955 395.932 284.074C395.932 284.033 396.668 283.754 397.56 283.352C398.453 282.95 399.12 282.568 399.182 282.602Z" fill="#263238"/>
<path d="M401.329 281.635C401.37 281.635 401.329 281.812 401.329 282.016C401.329 282.221 401.329 282.377 401.329 282.391C401.329 282.404 401.193 282.241 401.199 282.009C401.206 281.778 401.295 281.614 401.329 281.635Z" fill="#263238"/>
<path d="M401.703 280.244C401.703 280.244 401.702 280.408 401.655 280.571C401.607 280.735 401.505 280.864 401.471 280.851C401.437 280.837 401.471 280.687 401.519 280.524C401.566 280.36 401.662 280.231 401.703 280.244Z" fill="#263238"/>
<path d="M402.67 279.25C402.67 279.297 402.534 279.359 402.391 279.488C402.248 279.618 402.173 279.761 402.139 279.747C402.105 279.733 402.139 279.536 402.296 279.379C402.452 279.222 402.67 279.216 402.67 279.25Z" fill="#263238"/>
<path d="M403.414 278.692C403.414 278.692 403.414 278.801 403.325 278.883C403.237 278.965 403.168 278.999 403.134 278.965C403.1 278.931 403.134 278.856 403.223 278.774C403.312 278.692 403.387 278.63 403.414 278.692Z" fill="#263238"/>
<path d="M404.053 276.388L388.382 285.321L366.339 241.216C363.069 229.421 359.914 187.905 359.914 187.905L378.059 189.268C378.059 189.268 380.853 219.078 385.241 234.436L404.053 276.388Z" fill="#263238"/>
<path d="M387.08 169.767C387.516 169.767 390.691 182.032 386.821 189.466C386.439 190.188 383.659 194.235 383.659 194.235C373.773 205.893 363.756 228.522 360.956 234.436C355.219 246.633 334.076 286.738 334.076 286.738L320.496 278.964L340.351 227.902L357.386 177.8L387.08 169.767Z" fill="#263238"/>
<path d="M378.16 201.281C377.943 201.599 377.751 201.934 377.587 202.283L376.116 205.104C374.876 207.454 373.131 210.684 371.203 214.254C369.275 217.825 367.558 221.068 366.372 223.46C365.779 224.652 365.309 225.62 365.009 226.294C364.831 226.637 364.679 226.992 364.553 227.357C364.774 227.041 364.968 226.705 365.132 226.356C365.5 225.674 365.997 224.707 366.597 223.569C367.837 221.218 369.581 217.988 371.516 214.418C373.451 210.848 375.162 207.604 376.34 205.213C376.94 204.02 377.41 203.053 377.703 202.378C377.883 202.024 378.035 201.658 378.16 201.281Z" fill="#0D395A"/>
<path d="M340.672 157.755C338.271 157.562 335.883 157.234 333.518 156.774C330.609 156.092 330.656 155.806 330.793 155.479C331.147 154.593 335.957 156.521 335.147 155.479C334.336 154.436 329.014 153.816 329.416 152.91C329.941 151.725 334.949 153.837 335.378 153.987C335.807 154.137 336.025 153.503 335.63 153.387C335.051 153.23 329.055 151.391 329.566 150.226C329.845 149.544 330.929 150.226 330.929 150.226C330.929 150.226 336.421 152.365 336.646 151.806C336.87 151.248 333.682 149.871 332.557 149.49C331.433 149.108 331.195 148.434 331.746 148.086C332.121 147.848 335.535 148.938 336.618 149.347C337.702 149.755 340.666 150.914 339.644 149.142C338.622 147.371 338.54 145.654 338.812 145.143C339.085 144.632 339.875 144.884 339.943 145.517C340.082 146.192 340.311 146.846 340.625 147.459C340.86 147.961 341.175 148.421 341.558 148.822C341.892 149.169 342.199 149.462 342.478 149.721L344.911 152.011L343.221 157.966L340.672 157.755Z" fill="#FFBE9D"/>
<path d="M371.184 93.113C370.318 91.7502 368.506 91.2119 366.857 91.2324C364.567 91.3242 362.374 92.1789 360.626 93.6604C358.878 95.1419 357.675 97.1652 357.209 99.4088C356.882 101.255 357.072 103.197 356.527 104.976C356.032 106.242 355.372 107.438 354.565 108.532C353.755 109.625 353.193 110.88 352.916 112.212C352.787 112.881 352.846 113.573 353.087 114.21C353.328 114.848 353.74 115.406 354.279 115.823C353.606 116.505 353.167 117.382 353.025 118.33C352.883 119.277 353.046 120.245 353.491 121.094C353.935 121.942 354.638 122.627 355.497 123.051C356.356 123.474 357.328 123.613 358.272 123.448C359.26 123.277 360.316 122.766 361.215 123.257C361.632 123.544 362.002 123.893 362.312 124.293C363.675 125.689 365.951 125.914 367.763 125.212C369.564 124.413 371.073 123.075 372.083 121.383C372.369 120.954 372.764 120.45 373.255 120.497C373.549 120.57 373.817 120.721 374.032 120.933C374.933 121.644 376.067 121.991 377.211 121.907C378.355 121.824 379.426 121.315 380.214 120.481C381.001 119.647 381.449 118.548 381.467 117.401C381.486 116.254 381.074 115.142 380.314 114.283C381.123 114.025 381.859 113.577 382.458 112.976C383.058 112.375 383.505 111.638 383.762 110.829C384.251 109.193 384.184 107.441 383.571 105.848C382.712 103.483 381.009 101.548 379.34 99.6746C377.813 97.9507 377.364 95.3002 375.837 93.5831C375.146 92.6305 374.135 91.9582 372.989 91.6889C371.85 91.5925 370.709 91.8469 369.719 92.418" fill="#263238"/>
<path d="M367.757 93.9302C368.886 93.9301 370.003 94.1539 371.045 94.5884C372.086 95.023 373.031 95.6598 373.825 96.462C374.619 97.2642 375.246 98.2159 375.67 99.2619C376.094 100.308 376.306 101.428 376.294 102.556L376.015 125.893C375.983 126.621 375.806 127.335 375.496 127.993C375.185 128.652 374.747 129.242 374.206 129.73C373.665 130.217 373.033 130.593 372.345 130.833C371.658 131.074 370.93 131.176 370.203 131.133V131.133C366.987 131.065 364.371 128.578 364.364 125.573C364.364 122.418 364.282 119.1 364.282 119.1C364.282 119.1 360.194 118.419 359.383 113.124C359.165 111.762 359.151 106.903 359.192 102.393C359.212 100.142 360.12 97.9892 361.719 96.4042C363.318 94.8193 365.478 93.9301 367.73 93.9302H367.757Z" fill="#FFBE9D"/>
<path d="M360.432 105.623C360.432 105.804 360.503 105.977 360.631 106.105C360.759 106.233 360.932 106.304 361.113 106.304C361.283 106.305 361.446 106.243 361.572 106.13C361.698 106.016 361.777 105.86 361.794 105.691C361.794 105.511 361.723 105.337 361.595 105.209C361.467 105.082 361.294 105.01 361.113 105.01C360.944 105.009 360.78 105.071 360.654 105.185C360.528 105.298 360.449 105.454 360.432 105.623Z" fill="#263238"/>
<path d="M360.282 104.88C360.364 104.969 360.882 104.587 361.645 104.587C362.408 104.587 362.912 104.955 363.008 104.867C363.103 104.778 362.96 104.669 362.728 104.499C362.41 104.279 362.032 104.163 361.645 104.165C361.266 104.163 360.896 104.283 360.589 104.506C360.344 104.676 360.241 104.839 360.282 104.88Z" fill="#263238"/>
<path d="M367.75 105.623C367.75 105.804 367.822 105.977 367.95 106.105C368.077 106.233 368.251 106.304 368.431 106.304C368.517 106.31 368.602 106.298 368.683 106.27C368.763 106.242 368.838 106.199 368.901 106.141C368.965 106.084 369.016 106.015 369.052 105.938C369.089 105.86 369.109 105.777 369.113 105.691C369.113 105.511 369.041 105.337 368.913 105.209C368.785 105.082 368.612 105.01 368.431 105.01C368.262 105.009 368.098 105.071 367.972 105.185C367.846 105.298 367.767 105.454 367.75 105.623Z" fill="#263238"/>
<path d="M367.471 105.017C367.559 105.105 368.07 104.724 368.834 104.724C369.597 104.724 370.101 105.092 370.196 105.003C370.292 104.914 370.155 104.805 369.917 104.635C369.601 104.416 369.225 104.299 368.84 104.301C368.459 104.3 368.087 104.419 367.777 104.642C367.512 104.812 367.43 104.976 367.471 105.017Z" fill="#263238"/>
<path d="M364.819 110.441C364.431 110.324 364.031 110.253 363.627 110.23C363.443 110.23 363.265 110.168 363.231 110.046C363.217 109.851 363.262 109.656 363.361 109.487C363.531 109.037 363.715 108.567 363.913 108.07C364.422 106.863 364.836 105.62 365.153 104.349C364.542 105.509 364.027 106.717 363.613 107.961L363.082 109.392C362.966 109.616 362.932 109.874 362.986 110.121C363.013 110.187 363.054 110.245 363.108 110.293C363.161 110.34 363.224 110.374 363.293 110.393C363.397 110.424 363.505 110.44 363.613 110.441C364.013 110.493 364.419 110.493 364.819 110.441V110.441Z" fill="#263238"/>
<path d="M364.309 119.101C366.805 119.14 369.263 118.484 371.408 117.207C371.408 117.207 369.691 120.845 364.384 120.354L364.309 119.101Z" fill="#EB996E"/>
<path d="M365.114 112.205C365.256 112.032 365.439 111.897 365.645 111.812C365.852 111.726 366.077 111.693 366.299 111.715C366.46 111.73 366.616 111.778 366.758 111.855C366.899 111.933 367.024 112.038 367.124 112.164C367.224 112.284 367.283 112.432 367.294 112.587C367.305 112.742 367.267 112.897 367.185 113.03C367.068 113.163 366.914 113.257 366.743 113.301C366.571 113.345 366.391 113.336 366.224 113.275C365.878 113.154 365.561 112.964 365.291 112.716C365.207 112.658 365.136 112.584 365.08 112.498C365.054 112.457 365.041 112.41 365.041 112.362C365.041 112.314 365.054 112.267 365.08 112.226" fill="#EB996E"/>
<path d="M366.972 110.944C366.849 110.944 366.849 111.734 366.168 112.307C365.487 112.879 364.642 112.784 364.635 112.893C364.628 113.002 364.826 113.05 365.187 113.056C365.65 113.062 366.101 112.905 366.461 112.613C366.807 112.329 367.03 111.921 367.081 111.476C367.115 111.142 367.027 110.944 366.972 110.944Z" fill="#263238"/>
<path d="M367.442 102.965C367.51 103.163 368.246 103.075 369.105 103.177C369.963 103.279 370.651 103.511 370.767 103.333C370.883 103.156 370.699 103.061 370.42 102.87C370.046 102.631 369.621 102.481 369.18 102.434C368.742 102.381 368.297 102.435 367.885 102.591C367.565 102.713 367.408 102.897 367.442 102.965Z" fill="#263238"/>
<path d="M360.547 102.761C360.677 102.925 361.181 102.761 361.787 102.761C362.394 102.761 362.905 102.87 363.027 102.7C363.15 102.529 362.993 102.448 362.775 102.291C362.474 102.103 362.123 102.008 361.768 102.019C361.412 102.03 361.068 102.146 360.779 102.352C360.561 102.509 360.493 102.679 360.547 102.761Z" fill="#263238"/>
<path d="M378.209 102.413C377.834 99.2039 376.321 95.9674 373.562 94.2776C371.15 92.7922 368.676 92.4583 366.278 93.7665C365.268 93.6276 364.239 93.7137 363.266 94.0188C362.293 94.3239 361.4 94.8404 360.65 95.5313C359.104 97.0119 358.138 98.9956 357.924 101.125C357.728 103.246 358.058 105.383 358.885 107.346L359.294 101.977C362.019 100.805 365.058 98.4952 366.108 95.688C366.642 97.583 367.666 99.304 369.076 100.678C370.486 102.052 372.233 103.031 374.141 103.517C373.885 105.087 374.041 106.697 374.594 108.189C375.147 109.681 376.078 111.003 377.296 112.027C377.963 108.866 378.583 105.622 378.209 102.413Z" fill="#263238"/>
<path d="M374.693 105.623C375.108 107.667 374.4 109.766 373.882 111.797C373.364 113.827 373.051 116.11 374.141 117.929C374.535 118.389 374.79 118.951 374.877 119.551C374.763 120.078 374.577 120.587 374.325 121.063C374.211 121.545 374.252 122.051 374.441 122.508C374.631 122.965 374.96 123.351 375.381 123.611C376.248 124.115 377.276 124.264 378.25 124.027C379.2 123.78 380.116 123.414 380.975 122.937L383.557 121.656C383.95 121.484 384.315 121.254 384.641 120.975C385.14 120.443 385.468 119.773 385.581 119.053C386.137 116.266 385.652 113.372 384.218 110.918C382.856 108.465 383.455 104.397 381.077 102.891" fill="#263238"/>
<path d="M382.263 122.024C382.741 121.907 383.2 121.723 383.626 121.479C384.194 121.117 384.673 120.633 385.027 120.06C385.381 119.488 385.601 118.843 385.67 118.174C385.747 117.241 385.587 116.304 385.207 115.448C384.994 114.979 384.729 114.536 384.416 114.127C384.082 113.704 383.735 113.309 383.299 112.893C382.877 112.469 382.488 112.013 382.134 111.531C381.766 111.004 381.532 110.396 381.452 109.759C381.296 108.451 381.786 107.163 381.575 105.916C381.471 105.305 381.134 104.758 380.635 104.39C380.129 104.036 379.57 103.764 378.979 103.586C377.805 103.263 376.686 102.764 375.661 102.107C373.968 100.959 372.441 99.5831 371.123 98.019C369.978 96.6971 369.147 95.5592 368.581 94.7688C368.302 94.3668 368.091 94.0874 367.948 93.8422C367.87 93.7358 367.804 93.6216 367.75 93.5015C367.75 93.5015 367.852 93.5968 368.009 93.8013L368.69 94.687C369.29 95.4502 370.148 96.5608 371.307 97.8486C372.63 99.3812 374.148 100.733 375.824 101.869C376.836 102.498 377.933 102.977 379.081 103.293C379.711 103.48 380.307 103.768 380.846 104.144C381.414 104.563 381.798 105.186 381.916 105.882C382.134 107.245 381.636 108.553 381.793 109.752C381.95 110.951 382.781 111.878 383.558 112.696C383.954 113.098 384.33 113.521 384.682 113.963C385.007 114.395 385.279 114.864 385.493 115.36C385.885 116.255 386.038 117.236 385.936 118.208C385.847 119.01 385.544 119.773 385.057 120.416C384.69 120.903 384.226 121.309 383.694 121.608C383.361 121.79 383.003 121.92 382.631 121.996C382.51 122.02 382.386 122.029 382.263 122.024V122.024Z" fill="#0D395A"/>
<path d="M380.627 101.139C380.436 101.128 380.248 101.089 380.068 101.023C379.564 100.885 379.068 100.719 378.583 100.526C375.35 99.2702 372.445 97.2968 370.086 94.7548C369.643 94.2642 369.296 93.8485 369.077 93.5555C368.859 93.2626 368.744 93.0854 368.764 93.0718C369.292 93.5474 369.794 94.05 370.27 94.5776C372.69 96.9926 375.542 98.9317 378.678 100.294C379.877 100.853 380.647 101.085 380.627 101.139Z" fill="#0D395A"/>
<path d="M361.992 92.9496C361.992 92.9155 362.237 92.6226 362.769 92.2682C363.471 91.7641 364.304 91.4753 365.167 91.437C365.652 91.4244 366.132 91.5247 366.571 91.73C366.928 91.9052 367.24 92.1591 367.484 92.4727C367.608 92.606 367.703 92.7627 367.765 92.9336C367.827 93.1044 367.854 93.2859 367.845 93.4675C367.682 93.1754 367.495 92.8973 367.286 92.6362C367.016 92.3515 366.687 92.1286 366.323 91.9828C365.958 91.837 365.566 91.7717 365.174 91.7913C364.372 91.8318 363.591 92.0656 362.898 92.4727C362.615 92.664 362.311 92.824 361.992 92.9496V92.9496Z" fill="#0D395A"/>
<path d="M60.0133 210.73C60.0133 210.73 64.4967 210.928 62.9227 220.835C61.3487 230.742 59.7203 235.934 59.7203 235.934C59.7203 235.934 59.5976 238.162 61.3556 237.924C63.1135 237.685 66.5885 235.914 67.9853 237.706C69.3821 239.498 68.5577 242.053 66.023 244.812C63.4883 247.572 58.1531 253.806 57.6693 254.351C57.1856 254.897 56.9062 256.021 58.1327 256.055C59.3591 256.089 67.8627 254.263 68.4827 258.351C69.1028 262.439 60.7832 268.953 59.8838 269.682C58.9844 270.411 58.8822 270.929 59.1479 271.467C59.4136 272.006 62.2209 271.12 64.6602 270.698C67.0995 270.275 70.0022 270.221 70.1657 272.612C70.3292 275.004 66.241 281.47 53.0837 287.221L46.8151 289.49L41.623 285.258C31.0618 275.528 29.3038 268.088 30.2373 265.88C31.1708 263.673 33.8963 264.681 36.0631 265.88C38.2298 267.079 40.5942 268.817 41.0234 268.401C41.4527 267.986 41.5208 267.461 40.9076 266.48C40.2944 265.499 34.5504 256.62 36.4719 252.961C38.3933 249.302 45.8407 253.793 47.0127 254.161C48.1846 254.529 48.2664 253.384 48.0007 252.703C47.7349 252.021 44.7165 244.376 43.2311 240.942C41.7457 237.508 41.7116 234.871 43.6876 233.59C45.6636 232.309 48.3005 235.157 49.8881 235.954C51.4757 236.752 52.0821 234.592 52.0821 234.592C52.0821 234.592 52.2252 229.141 53.9763 219.274C55.7274 209.408 60.1087 210.716 60.1087 210.716" fill="#3B46E7"/>
<path d="M58.6302 219.609V219.793L58.5485 220.324C58.4667 220.801 58.3577 221.489 58.2146 222.368C57.908 224.153 57.4787 226.709 56.9473 229.863C55.9048 236.207 54.4603 244.942 52.859 254.59C51.2578 264.238 49.8201 272.987 48.7027 279.31L47.3399 286.805C47.1696 287.671 47.0469 288.352 46.9515 288.85C46.9107 289.074 46.8766 289.245 46.8493 289.381C46.84 289.442 46.824 289.501 46.8016 289.558C46.7927 289.497 46.7927 289.435 46.8016 289.374L46.8834 288.843C46.9584 288.359 47.0742 287.678 47.2173 286.799C47.5171 285.013 47.9532 282.458 48.4846 279.304C49.5476 272.974 50.9853 264.232 52.5728 254.57C54.1604 244.908 55.6118 236.173 56.7292 229.856L58.092 222.361C58.2555 221.496 58.3849 220.815 58.4735 220.317C58.5212 220.099 58.5553 219.922 58.5825 219.793C58.5914 219.73 58.6074 219.668 58.6302 219.609V219.609Z" fill="#263238"/>
<path d="M63.2642 240.383C62.8403 240.814 62.3848 241.213 61.9015 241.576L58.6241 244.39C57.3431 245.494 56.1711 246.482 55.3058 247.17C54.8697 247.517 54.5154 247.79 54.2633 247.967C54.1363 248.071 53.9966 248.158 53.8477 248.226C54.2779 247.802 54.7329 247.404 55.2104 247.034L58.4742 244.192C59.7551 243.095 60.9339 242.114 61.8061 241.433L62.8554 240.642C62.9809 240.54 63.1182 240.453 63.2642 240.383V240.383Z" fill="#263238"/>
<path d="M53.2756 247.96C53.2211 248.001 51.2314 245.548 48.8398 242.509C46.4482 239.47 44.5404 236.915 44.5949 236.867C44.6494 236.82 46.639 239.279 49.0374 242.352C51.4359 245.425 53.3369 247.912 53.2756 247.96Z" fill="#263238"/>
<path d="M51.3058 265.138C51.1512 265.077 51.0048 264.997 50.8697 264.9C50.5971 264.743 50.1883 264.491 49.7386 264.177C48.7983 263.551 47.5173 262.651 46.1614 261.581C44.8055 260.512 43.6199 259.49 42.7545 258.72C42.3389 258.338 42.005 258.038 41.787 257.793C41.662 257.684 41.5499 257.56 41.4531 257.425C41.9506 257.782 42.4261 258.169 42.8772 258.583C43.7357 259.312 44.9213 260.314 46.2841 261.377C47.6468 262.44 48.9005 263.367 49.8067 264.028C50.3304 264.364 50.8312 264.735 51.3058 265.138V265.138Z" fill="#263238"/>
<path d="M61.8192 260.294C61.3387 260.592 60.8352 260.852 60.3133 261.07C59.373 261.52 58.058 262.12 56.6067 262.767C55.1553 263.414 53.8267 263.994 52.8659 264.402C52.3547 264.643 51.8263 264.846 51.2852 265.009C51.7656 264.71 52.2691 264.45 52.791 264.232C53.7313 263.789 55.0463 263.183 56.4976 262.535C57.949 261.888 59.2776 261.309 60.2384 260.9C60.7491 260.658 61.2776 260.455 61.8192 260.294V260.294Z" fill="#263238"/>
<path d="M62.0027 275.651C61.8428 275.762 61.6715 275.856 61.4917 275.931L60.054 276.612C58.8343 277.171 57.1445 277.92 55.2844 278.738C53.4242 279.556 51.714 280.285 50.4739 280.782L49.0089 281.375C48.8319 281.457 48.6469 281.521 48.457 281.566C48.6138 281.449 48.7857 281.355 48.9681 281.286L50.4058 280.605C51.6186 280.053 53.3084 279.297 55.1754 278.479C57.0423 277.661 58.7526 276.939 59.9858 276.435L61.4576 275.835C61.6317 275.753 61.8146 275.692 62.0027 275.651Z" fill="#263238"/>
<path d="M48.723 281.334C48.5365 281.238 48.3587 281.126 48.1916 281C47.8645 280.775 47.3875 280.441 46.8288 280.019C45.6705 279.167 44.1033 277.975 42.4135 276.564C40.7237 275.154 39.252 273.839 38.2027 272.858C37.678 272.367 37.2624 271.958 36.983 271.672C36.8278 271.534 36.6863 271.381 36.5605 271.215C36.74 271.323 36.9049 271.454 37.0511 271.604C37.3918 271.897 37.8211 272.285 38.3253 272.721C39.4019 273.668 40.8941 274.97 42.5771 276.367C44.26 277.763 45.8136 278.99 46.9378 279.876L48.3006 280.918C48.5663 281.17 48.7367 281.313 48.723 281.334Z" fill="#263238"/>
<path d="M424.533 246.12C425.518 246.593 426.398 247.258 427.12 248.078C427.842 248.897 428.392 249.854 428.737 250.89C429.413 252.97 429.604 255.177 429.296 257.343C428.825 261.533 426.441 265.758 423.845 269.11C420.315 266.03 419.504 260.661 419.266 257.908C418.884 253.561 420.84 245.473 424.499 246.12" fill="#3B46E7"/>
<path d="M427.981 276.019C427.741 274.822 427.822 273.583 428.214 272.428C428.606 271.272 429.297 270.24 430.215 269.437C431.153 268.648 432.239 268.054 433.409 267.69C434.579 267.326 435.81 267.2 437.029 267.318C438.153 267.406 439.359 267.733 440.007 268.681C440.28 269.132 440.429 269.649 440.437 270.177C440.446 270.705 440.314 271.225 440.054 271.685C439.517 272.598 438.748 273.352 437.826 273.873C434.774 275.794 431.462 277.089 428.008 276.046" fill="#3B46E7"/>
<path d="M423.457 288.863C423.474 288.574 423.515 288.287 423.58 288.005C423.696 287.398 423.839 286.642 424.009 285.681C424.413 283.089 425.232 280.579 426.435 278.247C427.679 275.918 429.52 273.962 431.77 272.578C432.454 272.174 433.184 271.851 433.943 271.618C434.149 271.554 434.359 271.502 434.57 271.461C434.643 271.437 434.719 271.426 434.795 271.427C433.78 271.783 432.803 272.239 431.879 272.79C429.709 274.204 427.93 276.142 426.707 278.425C425.527 280.73 424.698 283.199 424.247 285.749C424.036 286.724 423.859 287.514 423.723 288.059C423.661 288.335 423.572 288.605 423.457 288.863V288.863Z" fill="#263238"/>
<path d="M423.586 252.41C423.618 252.534 423.634 252.663 423.634 252.791C423.634 253.064 423.668 253.425 423.695 253.868C423.749 254.808 423.804 256.164 423.858 257.84C423.961 261.199 424.049 265.84 424.029 270.964C424.008 276.087 423.879 280.728 423.743 284.08C423.674 285.763 423.606 287.119 423.545 288.052C423.545 288.495 423.49 288.856 423.477 289.136C423.472 289.262 423.456 289.387 423.429 289.51C423.414 289.384 423.414 289.256 423.429 289.129C423.429 288.85 423.429 288.495 423.429 288.052C423.429 287.071 423.484 285.722 423.525 284.073C423.606 280.721 423.702 276.081 423.722 270.964C423.743 265.846 423.722 261.206 423.64 257.847C423.64 256.198 423.593 254.849 423.579 253.875C423.579 253.425 423.579 253.071 423.579 252.791C423.571 252.664 423.574 252.537 423.586 252.41V252.41Z" fill="#263238"/>
<path d="M421.878 278.574C421.451 276.034 420.425 273.632 418.884 271.568C417.344 269.504 415.333 267.836 413.02 266.704C411.841 266.139 410.294 265.771 409.333 266.65C408.373 267.529 408.577 269.103 409.054 270.323C410.089 272.852 411.851 275.018 414.116 276.547C416.381 278.076 419.049 278.9 421.782 278.915" fill="#3B46E7"/>
<path d="M413.604 270.677C413.865 270.76 414.116 270.869 414.354 271.004C414.644 271.138 414.926 271.288 415.199 271.454C415.512 271.651 415.88 271.842 416.275 272.135C416.701 272.422 417.11 272.731 417.502 273.062C417.962 273.434 418.401 273.833 418.817 274.254C419.766 275.224 420.602 276.299 421.311 277.457C421.999 278.624 422.548 279.868 422.946 281.163C423.119 281.729 423.258 282.305 423.362 282.887C423.464 283.393 423.534 283.905 423.573 284.42C423.618 284.841 423.639 285.264 423.634 285.688C423.653 286.008 423.653 286.328 423.634 286.648C423.633 286.921 423.601 287.193 423.539 287.459C423.471 287.459 423.593 286.294 423.389 284.441C423.335 283.937 423.253 283.436 423.144 282.942C423.028 282.371 422.883 281.807 422.707 281.252C422.297 279.983 421.749 278.763 421.072 277.613C420.375 276.476 419.56 275.417 418.64 274.452C418.24 274.031 417.817 273.633 417.372 273.259C416.99 272.923 416.589 272.607 416.173 272.312C414.633 271.195 413.57 270.738 413.604 270.677Z" fill="#263238"/>
<path d="M294.461 79.1517H158.568V215.044H294.461V79.1517Z" fill="#F5F5F5"/>
<path d="M294.455 215.043C294.455 213.735 294.393 160.615 294.305 79.1504L294.455 79.3071H158.583L158.76 79.1299C158.76 128.87 158.76 175.53 158.76 215.023L158.61 214.866L294.496 215.023L158.61 215.173H158.453V215.023C158.453 175.503 158.453 128.89 158.453 79.1299V78.9528H158.644H294.516H294.673V79.1027C294.516 160.615 294.455 213.735 294.455 215.043Z" fill="#263238"/>
<path d="M282.271 206.942C283.627 206.767 284.994 206.707 286.36 206.765L286.183 206.942V206.131C286.183 205.872 286.183 205.62 286.183 205.368C286.183 204.918 286.183 204.489 286.217 204.067C286.197 203.663 286.24 203.258 286.346 202.867C286.443 203.259 286.484 203.663 286.469 204.067C286.469 204.489 286.469 204.918 286.51 205.368C286.51 205.62 286.51 205.872 286.51 206.131V206.942L286.332 207.119C284.976 207.179 283.617 207.12 282.271 206.942V206.942Z" fill="#0D395A"/>
<path d="M265.113 206.942C267.968 206.706 270.837 206.706 273.692 206.942C270.837 207.178 267.968 207.178 265.113 206.942Z" fill="#0D395A"/>
<path d="M247.957 206.942C250.812 206.706 253.681 206.706 256.535 206.942C253.681 207.178 250.812 207.178 247.957 206.942Z" fill="#0D395A"/>
<path d="M230.801 206.942C233.655 206.706 236.525 206.706 239.379 206.942C236.525 207.178 233.655 207.178 230.801 206.942V206.942Z" fill="#0D395A"/>
<path d="M213.643 206.942C216.497 206.706 219.366 206.706 222.221 206.942C219.366 207.178 216.497 207.178 213.643 206.942V206.942Z" fill="#0D395A"/>
<path d="M196.486 206.942C199.341 206.706 202.21 206.706 205.065 206.942C202.21 207.178 199.341 207.178 196.486 206.942Z" fill="#0D395A"/>
<path d="M179.33 206.942C180.754 206.766 182.189 206.707 183.623 206.764C185.054 206.707 186.487 206.767 187.909 206.942C186.487 207.121 185.054 207.18 183.623 207.119C182.189 207.18 180.753 207.121 179.33 206.942V206.942Z" fill="#0D395A"/>
<path d="M166.663 202.854C166.838 204.209 166.898 205.577 166.841 206.942L166.663 206.765H168.258L169.552 206.806C169.956 206.791 170.36 206.832 170.752 206.929C170.361 207.034 169.957 207.078 169.552 207.058L168.258 207.092L167.515 207.147H166.691L166.514 206.97C166.446 205.596 166.496 204.219 166.663 202.854V202.854Z" fill="#0D395A"/>
<path d="M166.663 185.697C166.838 187.12 166.898 188.556 166.84 189.989C166.898 191.42 166.839 192.854 166.663 194.275C166.488 192.854 166.429 191.42 166.486 189.989C166.429 188.556 166.488 187.12 166.663 185.697V185.697Z" fill="#0D395A"/>
<path d="M166.663 168.54C166.838 169.964 166.898 171.399 166.84 172.833C166.898 174.264 166.839 175.697 166.663 177.119C166.488 175.697 166.429 174.264 166.486 172.833C166.429 171.399 166.488 169.964 166.663 168.54V168.54Z" fill="#0D395A"/>
<path d="M166.663 151.39C166.839 152.811 166.898 154.245 166.84 155.676C166.898 157.109 166.838 158.545 166.663 159.968C166.488 158.545 166.429 157.109 166.486 155.676C166.429 154.245 166.488 152.811 166.663 151.39V151.39Z" fill="#0D395A"/>
<path d="M166.663 134.239C166.839 135.66 166.898 137.093 166.84 138.524C166.898 139.958 166.838 141.393 166.663 142.817C166.488 141.393 166.429 139.958 166.486 138.524C166.429 137.093 166.488 135.66 166.663 134.239V134.239Z" fill="#0D395A"/>
<path d="M166.663 117.076C166.838 118.497 166.897 119.931 166.84 121.362C166.898 122.795 166.838 124.231 166.663 125.654C166.488 124.231 166.429 122.795 166.486 121.362C166.429 119.931 166.488 118.497 166.663 117.076V117.076Z" fill="#0D395A"/>
<path d="M166.663 99.9194C166.838 101.341 166.897 102.774 166.84 104.205C166.898 105.639 166.838 107.074 166.663 108.498C166.488 107.074 166.429 105.639 166.486 104.205C166.429 102.774 166.488 101.341 166.663 99.9194V99.9194Z" fill="#0D395A"/>
<path d="M170.751 87.2252C169.396 87.4002 168.028 87.4595 166.663 87.4024L166.833 87.2252V88.036C166.833 88.295 166.833 88.5471 166.833 88.7992C166.833 89.2489 166.833 89.6781 166.799 90.1006C166.815 90.5045 166.771 90.9085 166.669 91.2998C166.568 90.9085 166.527 90.5042 166.547 90.1006C166.547 89.6781 166.547 89.2489 166.506 88.7992C166.506 88.5471 166.506 88.295 166.506 88.036C166.506 87.8998 166.506 87.7635 166.506 87.6272V87.2252L166.683 87.0481C168.042 86.988 169.403 87.0473 170.751 87.2252V87.2252Z" fill="#0D395A"/>
<path d="M187.909 87.225C186.487 87.4001 185.054 87.4593 183.623 87.4022C182.189 87.4595 180.754 87.4002 179.33 87.225C180.753 87.0457 182.189 86.9865 183.623 87.0479C185.054 86.9866 186.487 87.0459 187.909 87.225V87.225Z" fill="#0D395A"/>
<path d="M205.065 87.2251C202.21 87.4613 199.341 87.4613 196.486 87.2251C199.341 86.9889 202.21 86.9889 205.065 87.2251V87.2251Z" fill="#0D395A"/>
<path d="M222.221 87.2251C219.366 87.4613 216.497 87.4613 213.643 87.2251C216.497 86.9889 219.366 86.9889 222.221 87.2251V87.2251Z" fill="#0D395A"/>
<path d="M239.379 87.2251C236.525 87.4613 233.655 87.4613 230.801 87.2251C233.655 86.9889 236.525 86.9889 239.379 87.2251Z" fill="#0D395A"/>
<path d="M256.535 87.2251C253.681 87.4613 250.812 87.4613 247.957 87.2251C250.812 86.9889 253.681 86.9889 256.535 87.2251V87.2251Z" fill="#0D395A"/>
<path d="M273.692 87.2251C270.837 87.4613 267.968 87.4613 265.113 87.2251C267.968 86.9889 270.837 86.9889 273.692 87.2251V87.2251Z" fill="#0D395A"/>
<path d="M286.36 91.313C286.181 89.9581 286.121 88.5901 286.183 87.2248C286.537 87.5791 286.278 87.3201 286.353 87.4019H284.765L283.464 87.361C283.063 87.3761 282.661 87.3348 282.271 87.2384C282.66 87.1368 283.062 87.0932 283.464 87.1089H284.765H285.535H286.353C286.435 87.1839 286.183 86.9318 286.537 87.2861C286.591 88.631 286.531 89.978 286.36 91.313V91.313Z" fill="#0D395A"/>
<path d="M286.361 108.498C286.181 107.075 286.122 105.639 286.184 104.205C286.122 102.774 286.182 101.341 286.361 99.9194C286.536 101.341 286.595 102.774 286.538 104.205C286.595 105.639 286.536 107.074 286.361 108.498V108.498Z" fill="#0D395A"/>
<path d="M286.361 125.654C286.182 124.231 286.122 122.795 286.184 121.362C286.122 119.931 286.181 118.497 286.361 117.076C286.536 118.497 286.595 119.931 286.538 121.362C286.595 122.795 286.536 124.231 286.361 125.654V125.654Z" fill="#0D395A"/>
<path d="M286.361 142.811C286.182 141.387 286.122 139.951 286.184 138.518C286.122 137.087 286.181 135.653 286.361 134.232C286.536 135.654 286.595 137.087 286.538 138.518C286.595 139.951 286.536 141.387 286.361 142.811V142.811Z" fill="#0D395A"/>
<path d="M286.361 159.968C286.182 158.545 286.122 157.109 286.184 155.676C286.122 154.245 286.181 152.811 286.361 151.39C286.536 152.811 286.595 154.245 286.538 155.676C286.595 157.109 286.536 158.545 286.361 159.968V159.968Z" fill="#0D395A"/>
<path d="M286.361 177.119C286.181 175.698 286.122 174.264 286.184 172.833C286.122 171.399 286.182 169.964 286.361 168.54C286.536 169.964 286.595 171.399 286.538 172.833C286.595 174.264 286.536 175.697 286.361 177.119V177.119Z" fill="#0D395A"/>
<path d="M286.361 194.275C286.181 192.854 286.122 191.42 286.184 189.989C286.122 188.556 286.182 187.12 286.361 185.697C286.536 187.12 286.595 188.556 286.538 189.989C286.595 191.42 286.536 192.854 286.361 194.275V194.275Z" fill="#0D395A"/>
<path d="M220.663 124.053C220.433 124.051 220.204 124.022 219.982 123.964C219.314 123.809 218.706 123.463 218.23 122.969C217.84 122.589 217.54 122.126 217.351 121.614C217.163 121.102 217.091 120.555 217.14 120.012C217.225 119.326 217.528 118.686 218.006 118.186C218.532 117.606 219.267 117.258 220.05 117.219L219.913 117.355C219.831 116.339 220.095 115.326 220.663 114.479C221.009 114.04 221.487 113.723 222.026 113.573C222.595 113.44 223.187 113.44 223.756 113.573L223.566 113.75C223.503 113.115 223.594 112.474 223.831 111.881C224.068 111.288 224.444 110.76 224.928 110.344C225.442 109.91 226.044 109.594 226.693 109.417L227.184 109.281L227.688 109.199C228.025 109.136 228.367 109.104 228.71 109.103C230.13 108.978 231.555 109.284 232.798 109.982C233.424 110.403 233.938 110.968 234.297 111.631C234.645 112.304 234.858 113.037 234.924 113.791C234.955 114.12 234.955 114.451 234.924 114.779L234.74 114.582C236.093 114.486 237.437 114.864 238.542 115.651C239.555 116.452 240.331 117.515 240.784 118.724C241.051 119.294 241.171 119.922 241.131 120.551C241.081 121.166 240.877 121.758 240.539 122.274C240.216 122.76 239.792 123.17 239.296 123.476C238.799 123.782 238.242 123.976 237.663 124.046V124.046L225.358 124.162H220.99H220.677C220.781 124.15 220.886 124.15 220.99 124.162L221.903 124.121L225.364 124.025L237.629 123.78C238.16 123.713 238.67 123.531 239.124 123.248C239.579 122.964 239.966 122.586 240.259 122.138C240.574 121.664 240.759 121.115 240.795 120.547C240.831 119.979 240.717 119.412 240.464 118.902C240.067 117.707 239.345 116.648 238.379 115.842C237.336 115.11 236.073 114.758 234.801 114.847H234.597V114.643C234.624 114.337 234.624 114.029 234.597 113.723C234.559 113.023 234.363 112.34 234.023 111.726C233.684 111.112 233.209 110.583 232.635 110.18C231.445 109.513 230.082 109.221 228.724 109.342C227.436 109.319 226.178 109.724 225.146 110.493C224.702 110.878 224.357 111.365 224.141 111.912C223.925 112.459 223.844 113.05 223.906 113.635V113.853L223.695 113.805C223.196 113.66 222.667 113.659 222.167 113.799C221.667 113.94 221.217 114.218 220.867 114.602C220.336 115.406 220.095 116.368 220.186 117.328V117.457H220.05C219.335 117.491 218.662 117.804 218.176 118.329C217.722 118.787 217.431 119.38 217.345 120.019C217.275 120.869 217.502 121.717 217.986 122.418C218.47 123.12 219.183 123.633 220.002 123.869C220.438 124.019 220.663 124.019 220.663 124.053Z" fill="#263238"/>
<path d="M232.19 119.931C231.034 118.899 229.957 117.783 228.967 116.592H229.226L229.165 116.66C228.111 117.83 226.972 118.921 225.758 119.924C226.723 118.675 227.782 117.502 228.926 116.415L228.994 116.347L229.124 116.21L229.253 116.353C230.32 117.471 231.302 118.666 232.19 119.931V119.931Z" fill="#263238"/>
<path d="M229.099 127.903C228.923 126.005 228.864 124.098 228.922 122.193C228.864 120.288 228.923 118.381 229.099 116.483C229.278 118.381 229.338 120.288 229.276 122.193C229.338 124.098 229.278 126.005 229.099 127.903Z" fill="#263238"/>
<path d="M200.651 139.881H197.53L196.883 141.353H196.018L198.682 135.479H199.54L202.211 141.353H201.332L200.651 139.881ZM200.358 139.2L199.091 136.324L197.823 139.2H200.358Z" fill="#263238"/>
<path d="M207.084 135.125V141.352H206.314V140.671C206.129 140.915 205.888 141.11 205.612 141.241C205.335 141.371 205.031 141.433 204.726 141.42C204.124 141.42 203.547 141.181 203.122 140.756C202.696 140.33 202.457 139.753 202.457 139.152C202.457 138.55 202.696 137.973 203.122 137.547C203.547 137.122 204.124 136.883 204.726 136.883C205.023 136.872 205.318 136.931 205.588 137.055C205.858 137.179 206.095 137.365 206.28 137.598V135.145L207.084 135.125ZM206.286 139.131C206.273 138.838 206.174 138.555 206.001 138.317C205.828 138.079 205.589 137.898 205.314 137.795C205.039 137.692 204.739 137.673 204.453 137.738C204.167 137.804 203.906 137.953 203.703 138.166C203.501 138.378 203.365 138.646 203.313 138.935C203.262 139.224 203.296 139.522 203.412 139.792C203.528 140.062 203.721 140.292 203.967 140.453C204.213 140.614 204.5 140.699 204.794 140.698C204.998 140.704 205.201 140.666 205.389 140.588C205.578 140.51 205.748 140.394 205.888 140.246C206.029 140.098 206.137 139.923 206.206 139.731C206.274 139.539 206.302 139.334 206.286 139.131V139.131Z" fill="#263238"/>
<path d="M212.806 135.125V141.352H212.036V140.671C211.852 140.915 211.611 141.11 211.335 141.241C211.058 141.371 210.754 141.433 210.449 141.42C209.847 141.42 209.27 141.181 208.844 140.756C208.419 140.33 208.18 139.753 208.18 139.152C208.18 138.55 208.419 137.973 208.844 137.547C209.27 137.122 209.847 136.883 210.449 136.883C210.745 136.873 211.04 136.932 211.31 137.056C211.58 137.181 211.817 137.366 212.002 137.598V135.145L212.806 135.125ZM212.009 139.131C211.996 138.838 211.896 138.555 211.723 138.317C211.55 138.079 211.312 137.898 211.036 137.795C210.761 137.692 210.462 137.673 210.175 137.738C209.889 137.804 209.629 137.953 209.426 138.166C209.223 138.378 209.088 138.646 209.036 138.935C208.984 139.224 209.019 139.522 209.135 139.792C209.251 140.062 209.444 140.292 209.69 140.453C209.935 140.614 210.223 140.699 210.517 140.698C210.721 140.704 210.923 140.666 211.112 140.588C211.3 140.51 211.47 140.394 211.611 140.246C211.752 140.098 211.86 139.923 211.928 139.731C211.997 139.539 212.024 139.334 212.009 139.131V139.131Z" fill="#263238"/>
<path d="M216.445 135.527C216.445 135.456 216.459 135.386 216.487 135.321C216.515 135.256 216.555 135.198 216.606 135.149C216.657 135.1 216.717 135.061 216.783 135.036C216.849 135.011 216.92 135 216.99 135.002C217.06 134.999 217.13 135.009 217.195 135.033C217.261 135.057 217.321 135.094 217.372 135.142C217.423 135.189 217.464 135.247 217.492 135.311C217.52 135.375 217.535 135.444 217.536 135.513C217.536 135.658 217.478 135.797 217.376 135.899C217.274 136.001 217.135 136.058 216.99 136.058C216.846 136.058 216.707 136.001 216.605 135.899C216.503 135.797 216.445 135.658 216.445 135.513V135.527ZM216.588 136.89H217.392V141.339H216.575L216.588 136.89Z" fill="#263238"/>
<path d="M221.425 141.094C221.149 141.307 220.806 141.415 220.458 141.401C220.271 141.423 220.083 141.403 219.905 141.343C219.727 141.283 219.565 141.184 219.43 141.054C219.295 140.923 219.191 140.764 219.124 140.589C219.058 140.413 219.032 140.225 219.047 140.038V137.599H218.291V136.917H219.047V135.943H219.851V136.917H221.126V137.599H219.851V140.004C219.842 140.099 219.852 140.195 219.882 140.286C219.912 140.377 219.961 140.46 220.025 140.531C220.089 140.601 220.168 140.658 220.255 140.696C220.343 140.734 220.437 140.754 220.533 140.754C220.762 140.757 220.985 140.682 221.166 140.542L221.425 141.094Z" fill="#263238"/>
<path d="M226.248 139.398H222.644C222.695 139.779 222.89 140.126 223.189 140.368C223.488 140.61 223.869 140.729 224.252 140.699C224.493 140.708 224.733 140.664 224.955 140.572C225.178 140.479 225.377 140.338 225.54 140.161L225.983 140.679C225.655 141.013 225.238 141.245 224.781 141.347C224.324 141.449 223.847 141.416 223.408 141.252C222.97 141.089 222.588 140.801 222.31 140.425C222.031 140.048 221.868 139.599 221.84 139.132C221.827 138.834 221.875 138.536 221.982 138.258C222.089 137.979 222.252 137.726 222.461 137.513C222.67 137.3 222.92 137.132 223.197 137.021C223.473 136.909 223.77 136.855 224.068 136.863C224.367 136.855 224.664 136.909 224.941 137.022C225.218 137.136 225.468 137.305 225.675 137.521C225.882 137.736 226.042 137.993 226.144 138.274C226.246 138.555 226.289 138.854 226.269 139.152C226.269 139.234 226.262 139.316 226.248 139.398V139.398ZM222.644 138.818H225.499C225.457 138.469 225.289 138.148 225.026 137.914C224.763 137.681 224.423 137.552 224.072 137.552C223.72 137.552 223.38 137.681 223.117 137.914C222.854 138.148 222.686 138.469 222.644 138.818V138.818Z" fill="#263238"/>
<path d="M234.767 138.791V141.353H233.963V138.886C233.963 138.014 233.54 137.585 232.811 137.585C232.619 137.573 232.426 137.604 232.248 137.675C232.069 137.747 231.908 137.858 231.778 138C231.647 138.141 231.55 138.31 231.493 138.494C231.436 138.678 231.421 138.873 231.449 139.064V141.353H230.645V138.886C230.645 138.014 230.229 137.585 229.493 137.585C228.757 137.585 228.164 138.096 228.164 139.064V141.353H227.354V136.904H228.158V137.585C228.338 137.355 228.572 137.173 228.839 137.054C229.107 136.935 229.399 136.883 229.691 136.904C230 136.883 230.309 136.949 230.582 137.094C230.855 137.24 231.082 137.46 231.237 137.728C231.432 137.459 231.69 137.243 231.988 137.1C232.287 136.956 232.616 136.888 232.948 136.904C233.197 136.885 233.448 136.922 233.682 137.011C233.915 137.1 234.127 137.24 234.3 137.42C234.474 137.6 234.606 137.817 234.686 138.054C234.767 138.29 234.795 138.542 234.767 138.791Z" fill="#263238"/>
<path d="M238.379 135.527C238.379 135.456 238.393 135.386 238.421 135.321C238.448 135.256 238.489 135.198 238.54 135.149C238.591 135.1 238.651 135.061 238.717 135.036C238.783 135.011 238.853 135 238.924 135.002C238.994 134.999 239.063 135.009 239.129 135.033C239.195 135.057 239.255 135.094 239.305 135.142C239.356 135.189 239.397 135.247 239.425 135.311C239.453 135.375 239.468 135.444 239.469 135.513C239.469 135.658 239.412 135.797 239.309 135.899C239.207 136.001 239.069 136.058 238.924 136.058C238.779 136.058 238.641 136.001 238.539 135.899C238.436 135.797 238.379 135.658 238.379 135.513V135.527ZM238.522 136.89H239.326V141.339H238.522V136.89Z" fill="#263238"/>
<path d="M248.23 138.791V141.353H247.426V138.887C247.426 138.014 247.003 137.585 246.274 137.585C246.082 137.573 245.889 137.604 245.711 137.676C245.532 137.747 245.371 137.858 245.241 138C245.11 138.142 245.013 138.311 244.956 138.495C244.899 138.679 244.884 138.873 244.911 139.064V141.353H244.107V138.887C244.107 138.014 243.692 137.585 242.956 137.585C242.22 137.585 241.627 138.096 241.627 139.064V141.353H240.816V136.904H241.593V137.585C241.774 137.356 242.008 137.174 242.275 137.055C242.543 136.936 242.835 136.884 243.126 136.904C243.435 136.883 243.744 136.949 244.018 137.095C244.291 137.24 244.518 137.46 244.673 137.728C244.867 137.46 245.125 137.244 245.424 137.1C245.722 136.956 246.052 136.888 246.383 136.904C246.635 136.881 246.889 136.914 247.126 137.002C247.363 137.089 247.578 137.228 247.755 137.409C247.931 137.59 248.066 137.808 248.148 138.047C248.23 138.286 248.258 138.54 248.23 138.791V138.791Z" fill="#263238"/>
<path d="M253.239 138.668V141.352H252.476V140.766C252.306 140.986 252.083 141.159 251.828 141.27C251.573 141.38 251.295 141.425 251.018 141.4C250.01 141.4 249.369 140.862 249.369 140.092C249.369 139.322 249.832 138.79 251.161 138.79H252.435V138.634C252.435 137.952 252.04 137.557 251.243 137.557C250.731 137.551 250.233 137.722 249.832 138.041L249.499 137.434C250.029 137.045 250.674 136.844 251.331 136.862C252.551 136.862 253.239 137.448 253.239 138.668ZM252.435 139.99V139.37H251.188C250.398 139.37 250.166 139.683 250.166 140.051C250.166 140.419 250.534 140.773 251.148 140.773C251.417 140.794 251.687 140.73 251.918 140.59C252.149 140.449 252.33 140.239 252.435 139.99V139.99Z" fill="#263238"/>
<path d="M259.01 136.904V140.747C259.01 142.321 258.212 143.029 256.7 143.029C255.936 143.056 255.186 142.815 254.581 142.348L254.962 141.728C255.453 142.108 256.058 142.312 256.679 142.307C257.729 142.307 258.206 141.817 258.206 140.815V140.461C258.005 140.685 257.758 140.862 257.481 140.98C257.204 141.098 256.905 141.153 256.604 141.142C256.322 141.142 256.042 141.086 255.78 140.978C255.519 140.87 255.282 140.711 255.082 140.511C254.882 140.311 254.723 140.074 254.615 139.813C254.507 139.552 254.451 139.272 254.451 138.989C254.451 138.706 254.507 138.426 254.615 138.165C254.723 137.904 254.882 137.666 255.082 137.466C255.282 137.266 255.519 137.108 255.78 137C256.042 136.891 256.322 136.836 256.604 136.836C256.915 136.824 257.225 136.884 257.51 137.01C257.794 137.137 258.046 137.326 258.246 137.565V136.883L259.01 136.904ZM258.219 139.009C258.236 138.703 258.16 138.399 258.001 138.136C257.843 137.873 257.609 137.664 257.33 137.535C257.051 137.407 256.741 137.365 256.438 137.415C256.135 137.465 255.854 137.605 255.632 137.817C255.409 138.028 255.256 138.301 255.19 138.601C255.125 138.901 255.151 139.214 255.265 139.499C255.38 139.783 255.577 140.027 255.831 140.199C256.086 140.37 256.386 140.462 256.693 140.461C256.891 140.476 257.09 140.45 257.277 140.383C257.464 140.317 257.635 140.212 257.779 140.075C257.923 139.938 258.036 139.772 258.112 139.589C258.188 139.405 258.225 139.208 258.219 139.009V139.009Z" fill="#263238"/>
<path d="M264.541 139.398H260.937C260.988 139.779 261.183 140.126 261.482 140.368C261.781 140.61 262.162 140.729 262.545 140.699C262.786 140.708 263.026 140.664 263.248 140.572C263.471 140.479 263.67 140.338 263.833 140.161L264.276 140.679C263.948 141.013 263.531 141.245 263.074 141.347C262.617 141.449 262.14 141.416 261.701 141.252C261.263 141.089 260.881 140.801 260.603 140.425C260.324 140.048 260.161 139.599 260.133 139.132C260.12 138.834 260.168 138.536 260.275 138.258C260.382 137.979 260.545 137.726 260.754 137.513C260.963 137.3 261.213 137.132 261.49 137.021C261.766 136.909 262.063 136.855 262.361 136.863C262.66 136.855 262.957 136.909 263.234 137.022C263.511 137.136 263.761 137.305 263.968 137.521C264.175 137.736 264.335 137.993 264.437 138.274C264.539 138.555 264.582 138.854 264.562 139.152C264.562 139.234 264.555 139.316 264.541 139.398V139.398ZM260.937 138.818H263.792C263.75 138.469 263.582 138.148 263.319 137.914C263.056 137.681 262.716 137.552 262.364 137.552C262.013 137.552 261.673 137.681 261.41 137.914C261.147 138.148 260.979 138.469 260.937 138.818V138.818Z" fill="#263238"/>
<path d="M226.7 172.451H188.305C187.669 172.449 187.06 172.196 186.611 171.746C186.161 171.297 185.908 170.688 185.906 170.052C185.908 169.417 186.161 168.808 186.611 168.359C187.06 167.909 187.669 167.656 188.305 167.654H226.7C227.336 167.654 227.946 167.907 228.396 168.357C228.846 168.806 229.098 169.416 229.098 170.052C229.098 170.689 228.846 171.299 228.396 171.748C227.946 172.198 227.336 172.451 226.7 172.451Z" fill="#3B46E7"/>
<path d="M217.835 177.848V180.396H217.392V180.014C217.292 180.148 217.161 180.255 217.01 180.326C216.859 180.398 216.693 180.431 216.526 180.423C216.377 180.44 216.226 180.422 216.084 180.372C215.943 180.322 215.814 180.24 215.709 180.134C215.603 180.027 215.523 179.897 215.475 179.755C215.427 179.613 215.411 179.462 215.429 179.313V177.848H215.893V179.265C215.893 179.762 216.145 180.014 216.574 180.014C216.685 180.022 216.796 180.004 216.9 179.963C217.003 179.922 217.096 179.858 217.172 179.776C217.247 179.695 217.304 179.597 217.337 179.491C217.371 179.385 217.38 179.273 217.364 179.163V177.848H217.835Z" fill="#263238"/>
<path d="M221.343 179.114C221.352 179.286 221.324 179.458 221.263 179.619C221.201 179.78 221.107 179.927 220.986 180.049C220.865 180.171 220.719 180.267 220.559 180.33C220.399 180.394 220.227 180.423 220.055 180.416C219.885 180.422 219.715 180.389 219.56 180.318C219.405 180.247 219.269 180.14 219.163 180.007V181.322H218.699V177.847H219.142V178.249C219.25 178.111 219.388 177.999 219.547 177.925C219.706 177.85 219.88 177.814 220.055 177.82C220.227 177.813 220.398 177.842 220.557 177.905C220.717 177.967 220.862 178.063 220.983 178.184C221.104 178.306 221.199 178.452 221.261 178.612C221.323 178.772 221.351 178.943 221.343 179.114V179.114ZM220.88 179.114C220.873 178.945 220.817 178.781 220.718 178.643C220.618 178.506 220.481 178.4 220.322 178.34C220.164 178.279 219.991 178.267 219.826 178.304C219.66 178.341 219.509 178.426 219.391 178.549C219.274 178.671 219.195 178.825 219.164 178.992C219.133 179.159 219.152 179.331 219.219 179.487C219.285 179.643 219.396 179.776 219.537 179.87C219.679 179.964 219.845 180.014 220.014 180.014C220.133 180.019 220.251 179.999 220.361 179.955C220.472 179.911 220.572 179.845 220.654 179.76C220.737 179.675 220.801 179.574 220.843 179.463C220.884 179.351 220.901 179.233 220.893 179.114H220.88Z" fill="#263238"/>
<path d="M222.025 176.818H222.489V180.388H222.025V176.818Z" fill="#263238"/>
<path d="M223.108 179.115C223.103 178.852 223.175 178.594 223.316 178.373C223.458 178.152 223.661 177.977 223.902 177.872C224.142 177.766 224.408 177.734 224.666 177.779C224.925 177.825 225.164 177.946 225.354 178.127C225.544 178.308 225.676 178.542 225.733 178.798C225.79 179.054 225.77 179.322 225.676 179.566C225.581 179.811 225.417 180.023 225.202 180.174C224.988 180.325 224.733 180.41 224.471 180.416C224.294 180.43 224.116 180.406 223.948 180.346C223.781 180.286 223.628 180.192 223.499 180.069C223.371 179.946 223.27 179.798 223.202 179.634C223.135 179.469 223.103 179.292 223.108 179.115ZM225.295 179.115C225.306 178.995 225.291 178.875 225.253 178.761C225.215 178.647 225.153 178.543 225.072 178.454C224.991 178.365 224.892 178.295 224.782 178.246C224.672 178.198 224.553 178.173 224.433 178.173C224.313 178.173 224.194 178.198 224.084 178.246C223.975 178.295 223.876 178.365 223.795 178.454C223.714 178.543 223.652 178.647 223.614 178.761C223.575 178.875 223.561 178.995 223.571 179.115C223.561 179.235 223.575 179.355 223.614 179.469C223.652 179.583 223.714 179.687 223.795 179.776C223.876 179.864 223.975 179.935 224.084 179.984C224.194 180.032 224.313 180.057 224.433 180.057C224.553 180.057 224.672 180.032 224.782 179.984C224.892 179.935 224.991 179.864 225.072 179.776C225.153 179.687 225.215 179.583 225.253 179.469C225.291 179.355 225.306 179.235 225.295 179.115V179.115Z" fill="#263238"/>
<path d="M228.403 178.848V180.388H227.96V180.054C227.863 180.181 227.735 180.281 227.588 180.344C227.441 180.407 227.281 180.432 227.122 180.415C226.55 180.415 226.182 180.109 226.182 179.666C226.182 179.223 226.447 178.923 227.204 178.923H227.94V178.828C227.94 178.439 227.715 178.215 227.258 178.215C226.965 178.21 226.678 178.306 226.447 178.487L226.257 178.14C226.56 177.916 226.929 177.8 227.306 177.812C228.008 177.847 228.403 178.153 228.403 178.848ZM227.94 179.611V179.257H227.224C226.768 179.257 226.638 179.434 226.638 179.645C226.638 179.857 226.849 180.061 227.204 180.061C227.358 180.073 227.512 180.036 227.644 179.955C227.777 179.875 227.88 179.754 227.94 179.611V179.611Z" fill="#263238"/>
<path d="M231.68 176.818V180.388H231.237V179.986C231.132 180.126 230.995 180.239 230.837 180.314C230.679 180.388 230.505 180.423 230.331 180.416C229.986 180.416 229.655 180.278 229.41 180.034C229.166 179.79 229.029 179.459 229.029 179.114C229.029 178.769 229.166 178.438 229.41 178.194C229.655 177.95 229.986 177.813 230.331 177.813C230.5 177.807 230.668 177.841 230.822 177.912C230.976 177.983 231.111 178.089 231.216 178.221V176.818H231.68ZM231.223 179.114C231.215 178.946 231.158 178.784 231.059 178.649C230.96 178.513 230.823 178.409 230.666 178.351C230.509 178.292 230.337 178.281 230.174 178.318C230.01 178.356 229.861 178.441 229.745 178.562C229.629 178.684 229.551 178.837 229.521 179.002C229.491 179.167 229.51 179.338 229.576 179.492C229.642 179.647 229.752 179.779 229.892 179.871C230.033 179.964 230.197 180.013 230.365 180.014C230.482 180.017 230.598 179.995 230.707 179.951C230.815 179.906 230.913 179.839 230.994 179.754C231.075 179.67 231.137 179.569 231.176 179.459C231.216 179.348 231.232 179.231 231.223 179.114V179.114Z" fill="#263238"/>
<path d="M232.477 177.051C232.474 176.988 232.49 176.926 232.523 176.873C232.556 176.82 232.604 176.777 232.661 176.751C232.718 176.726 232.781 176.717 232.843 176.728C232.904 176.738 232.961 176.767 233.007 176.81C233.052 176.854 233.083 176.909 233.096 176.971C233.11 177.032 233.104 177.095 233.081 177.154C233.058 177.212 233.018 177.261 232.966 177.296C232.914 177.332 232.853 177.35 232.79 177.35C232.75 177.352 232.709 177.346 232.671 177.332C232.633 177.317 232.599 177.296 232.569 177.268C232.54 177.239 232.517 177.206 232.501 177.169C232.485 177.131 232.477 177.091 232.477 177.051V177.051ZM232.559 177.841H233.022V180.389H232.559V177.841Z" fill="#263238"/>
<path d="M236.333 178.924V180.389H235.87V178.979C235.87 178.474 235.617 178.229 235.188 178.229C235.077 178.22 234.964 178.236 234.859 178.276C234.755 178.316 234.66 178.378 234.583 178.459C234.505 178.54 234.446 178.637 234.411 178.743C234.375 178.85 234.364 178.963 234.377 179.074V180.389H233.914V177.847H234.357V178.229C234.467 178.093 234.608 177.985 234.768 177.914C234.928 177.843 235.102 177.811 235.277 177.82C235.422 177.81 235.568 177.832 235.704 177.885C235.84 177.938 235.962 178.02 236.063 178.125C236.164 178.23 236.24 178.356 236.287 178.494C236.334 178.633 236.349 178.779 236.333 178.924V178.924Z" fill="#263238"/>
<path d="M239.639 177.847V180.048C239.666 180.227 239.65 180.411 239.593 180.583C239.536 180.755 239.439 180.911 239.31 181.039C239.182 181.167 239.025 181.263 238.852 181.319C238.68 181.376 238.496 181.391 238.317 181.363C237.878 181.382 237.447 181.247 237.097 180.981L237.316 180.62C237.597 180.842 237.946 180.96 238.303 180.954C238.903 180.954 239.176 180.675 239.176 180.096V179.891C239.062 180.022 238.92 180.125 238.761 180.193C238.601 180.262 238.429 180.294 238.256 180.286C238.086 180.299 237.915 180.277 237.754 180.22C237.593 180.164 237.445 180.075 237.32 179.959C237.195 179.842 237.095 179.702 237.027 179.545C236.959 179.389 236.924 179.22 236.924 179.05C236.924 178.879 236.959 178.71 237.027 178.554C237.095 178.398 237.195 178.257 237.32 178.141C237.445 178.025 237.593 177.936 237.754 177.879C237.915 177.823 238.086 177.8 238.256 177.813C238.435 177.806 238.614 177.841 238.779 177.914C238.943 177.987 239.088 178.097 239.203 178.236V177.847H239.639ZM239.189 179.053C239.197 178.878 239.153 178.704 239.061 178.554C238.97 178.404 238.836 178.285 238.676 178.213C238.516 178.14 238.338 178.116 238.165 178.146C237.992 178.175 237.832 178.255 237.705 178.376C237.578 178.497 237.49 178.654 237.452 178.825C237.415 178.997 237.43 179.176 237.495 179.339C237.56 179.502 237.673 179.641 237.818 179.74C237.963 179.838 238.135 179.891 238.31 179.891C238.425 179.899 238.54 179.883 238.647 179.843C238.755 179.804 238.854 179.743 238.936 179.663C239.019 179.583 239.084 179.488 239.128 179.381C239.171 179.275 239.192 179.161 239.189 179.046V179.053Z" fill="#263238"/>
<path d="M240.307 180.088C240.306 180.045 240.313 180.002 240.33 179.962C240.346 179.922 240.37 179.886 240.4 179.855C240.431 179.825 240.467 179.801 240.507 179.784C240.547 179.768 240.59 179.76 240.634 179.761C240.724 179.761 240.811 179.797 240.874 179.861C240.938 179.925 240.974 180.012 240.974 180.102C240.974 180.192 240.938 180.279 240.874 180.343C240.811 180.407 240.724 180.443 240.634 180.443C240.588 180.444 240.543 180.435 240.5 180.418C240.458 180.4 240.421 180.373 240.39 180.34C240.359 180.306 240.335 180.267 240.321 180.223C240.307 180.18 240.302 180.134 240.307 180.088V180.088Z" fill="#263238"/>
<path d="M241.396 180.088C241.395 180.045 241.403 180.002 241.419 179.962C241.435 179.922 241.46 179.886 241.49 179.855C241.521 179.825 241.557 179.801 241.597 179.784C241.637 179.768 241.68 179.76 241.723 179.761C241.814 179.761 241.9 179.797 241.964 179.861C242.028 179.925 242.064 180.012 242.064 180.102C242.064 180.192 242.028 180.279 241.964 180.343C241.9 180.407 241.814 180.443 241.723 180.443C241.678 180.444 241.632 180.435 241.59 180.418C241.548 180.4 241.51 180.373 241.479 180.34C241.448 180.306 241.425 180.267 241.411 180.223C241.396 180.18 241.391 180.134 241.396 180.088V180.088Z" fill="#263238"/>
<path d="M242.467 180.088C242.466 180.045 242.474 180.002 242.49 179.962C242.506 179.922 242.53 179.886 242.56 179.855C242.591 179.825 242.627 179.801 242.667 179.784C242.708 179.768 242.751 179.76 242.794 179.761C242.884 179.761 242.971 179.797 243.035 179.861C243.099 179.925 243.134 180.012 243.134 180.102C243.134 180.192 243.099 180.279 243.035 180.343C242.971 180.407 242.884 180.443 242.794 180.443C242.748 180.444 242.703 180.435 242.661 180.418C242.619 180.4 242.581 180.373 242.55 180.34C242.519 180.306 242.495 180.267 242.481 180.223C242.467 180.18 242.462 180.134 242.467 180.088V180.088Z" fill="#263238"/>
<path d="M226.167 162.856C226.167 163.66 225.588 164.315 224.389 164.315C223.768 164.328 223.161 164.126 222.672 163.742L222.978 163.217C223.37 163.548 223.869 163.725 224.382 163.715C225.063 163.715 225.493 163.388 225.493 162.877C225.493 162.366 225.159 162.025 224.075 162.025H223.013L223.258 159.572H225.902V160.131H223.823L223.694 161.419H224.219C225.615 161.405 226.167 161.991 226.167 162.856Z" fill="#3B46E7"/>
<path d="M226.719 161.882C226.719 160.356 227.536 159.484 228.633 159.484C229.73 159.484 230.541 160.356 230.541 161.882C230.541 163.409 229.724 164.281 228.633 164.281C227.543 164.281 226.719 163.409 226.719 161.882ZM229.873 161.882C229.873 160.683 229.362 160.084 228.633 160.084C227.904 160.084 227.386 160.683 227.386 161.882C227.386 163.082 227.898 163.681 228.633 163.681C229.369 163.681 229.873 163.082 229.873 161.882Z" fill="#3B46E7"/>
<path d="M231.114 160.813C231.093 160.656 231.105 160.496 231.149 160.344C231.194 160.192 231.27 160.051 231.373 159.93C231.476 159.809 231.603 159.711 231.746 159.643C231.889 159.574 232.045 159.537 232.204 159.532C232.851 159.532 233.287 160.043 233.287 160.813C233.287 161.583 232.851 162.087 232.204 162.087C232.046 162.084 231.89 162.047 231.747 161.979C231.604 161.912 231.476 161.815 231.374 161.694C231.271 161.574 231.194 161.433 231.149 161.282C231.105 161.13 231.092 160.97 231.114 160.813V160.813ZM232.858 160.813C232.858 160.248 232.613 159.914 232.177 159.914C231.74 159.914 231.495 160.254 231.495 160.813C231.495 161.372 231.754 161.706 232.177 161.706C232.599 161.706 232.858 161.338 232.858 160.813ZM235.025 159.573H235.542L232.34 164.261H231.829L235.025 159.573ZM234.084 163.021C234.118 162.813 234.211 162.618 234.352 162.461C234.493 162.304 234.676 162.191 234.879 162.134C235.082 162.078 235.298 162.081 235.499 162.143C235.701 162.205 235.88 162.324 236.017 162.485C236.153 162.646 236.24 162.843 236.268 163.052C236.296 163.261 236.263 163.474 236.174 163.665C236.085 163.857 235.942 164.018 235.764 164.131C235.586 164.244 235.379 164.303 235.168 164.302C235.006 164.297 234.848 164.258 234.703 164.187C234.558 164.116 234.43 164.015 234.327 163.89C234.225 163.766 234.15 163.621 234.108 163.465C234.066 163.309 234.058 163.146 234.084 162.987V163.021ZM235.822 163.021C235.822 162.469 235.57 162.121 235.14 162.121C234.711 162.121 234.459 162.462 234.459 163.021C234.459 163.58 234.704 163.92 235.14 163.92C235.577 163.92 235.822 163.539 235.822 162.987V163.021Z" fill="#3B46E7"/>
<path d="M266.702 172.45C266.702 172.45 266.852 172.45 267.138 172.389C267.694 172.277 268.192 171.97 268.541 171.522C268.89 171.074 269.067 170.517 269.039 169.95C269.017 169.477 268.852 169.022 268.565 168.645C268.277 168.269 267.882 167.99 267.431 167.844C266.877 167.721 266.307 167.682 265.741 167.728H263.84H259.52H249.007L188.106 167.776C187.761 167.777 187.421 167.857 187.113 168.011C186.804 168.164 186.535 168.387 186.327 168.662C186.121 168.935 185.98 169.252 185.916 169.589C185.852 169.925 185.867 170.272 185.959 170.602C186.051 170.932 186.219 171.236 186.448 171.49C186.678 171.745 186.963 171.943 187.281 172.069C187.601 172.19 187.942 172.243 188.283 172.226H214.093L241.478 172.266L259.936 172.321H264.951H266.259H266.702H266.259H264.951L259.936 172.355L241.478 172.409L214.093 172.45H197.924H188.283C187.895 172.466 187.508 172.404 187.145 172.266C186.589 172.044 186.127 171.635 185.84 171.109C185.553 170.583 185.459 169.974 185.572 169.386C185.686 168.798 186.001 168.267 186.464 167.887C186.926 167.506 187.507 167.298 188.106 167.299L249.007 167.354H259.52H263.84H265.741C266.321 167.314 266.904 167.357 267.472 167.483C267.944 167.643 268.357 167.943 268.656 168.341C268.955 168.74 269.126 169.22 269.148 169.718C269.162 170.079 269.095 170.439 268.952 170.772C268.81 171.104 268.595 171.4 268.324 171.64C267.992 171.935 267.583 172.129 267.145 172.198C267.011 172.304 266.862 172.389 266.702 172.45Z" fill="#263238"/>
</svg>
