<svg width="419" height="380" viewBox="0 0 419 380" fill="none" xmlns="http://www.w3.org/2000/svg">
<path d="M76.0581 186.674C71.0747 193.375 64.2155 198.446 56.3485 201.246C48.4816 204.046 39.9608 204.449 31.8646 202.405C23.7684 200.36 16.461 195.959 10.8672 189.759C5.2735 183.559 1.64497 175.839 0.440967 167.576C-0.763032 159.312 0.511633 150.878 4.10361 143.339C7.69559 135.801 13.4434 129.498 20.6194 125.228C27.7954 120.958 36.077 118.912 44.4159 119.351C52.7547 119.79 60.7759 122.693 67.4641 127.693C76.4242 134.375 82.3631 144.343 83.9747 155.404C85.5864 166.465 82.7387 177.713 76.0581 186.674V186.674Z" fill="#EBEBEB"/>
<path d="M68.021 180.657C64.2275 185.765 59.0039 189.632 53.0115 191.77C47.019 193.908 40.527 194.22 34.3572 192.667C28.1874 191.113 22.617 187.764 18.3511 183.044C14.0853 178.324 11.3156 172.444 10.3928 166.149C9.46996 159.854 10.4354 153.426 13.1669 147.68C15.8984 141.934 20.2732 137.127 25.7376 133.869C31.202 130.61 37.5104 129.045 43.8643 129.373C50.2182 129.701 56.332 131.906 61.432 135.71C64.8164 138.229 67.6716 141.389 69.8344 145.011C71.9973 148.632 73.4254 152.645 74.0373 156.819C74.6492 160.993 74.4328 165.246 73.4005 169.336C72.3682 173.427 70.5403 177.273 68.021 180.657V180.657Z" fill="#F5F5F5"/>
<path d="M68.6125 179.85C68.4525 179.737 69.1867 178.532 70.2504 176.244C71.7456 173.047 72.7333 169.636 73.1778 166.135C73.836 160.972 73.2187 155.727 71.3799 150.858C70.8521 149.461 70.2229 148.105 69.4974 146.801C68.7598 145.443 67.9196 144.143 66.9841 142.913C66.0119 141.634 64.9419 140.431 63.7837 139.317C61.3977 137.018 58.6622 135.112 55.6792 133.67C52.8316 132.282 49.7918 131.33 46.6616 130.846C45.1883 130.617 43.7002 130.497 42.2093 130.488C39.4444 130.452 36.6862 130.769 34.0012 131.429C31.662 132.035 29.3958 132.893 27.2427 133.99C24.1138 135.613 21.2559 137.712 18.771 140.212C16.992 141.991 16.1072 143.101 15.9472 143.036C15.7871 142.97 16.446 141.652 18.0557 139.619C20.3783 136.749 23.2163 134.339 26.4238 132.512C31.2327 129.749 36.673 128.274 42.2187 128.229C45.5007 128.193 48.7694 128.653 51.914 129.594C53.5761 130.095 55.1968 130.725 56.7617 131.476C58.3674 132.26 59.9123 133.164 61.3834 134.178C62.8418 135.211 64.2201 136.354 65.5063 137.595C66.7509 138.807 67.8966 140.116 68.9326 141.511C70.8906 144.14 72.4393 147.05 73.5261 150.142C75.3911 155.365 75.871 160.982 74.9192 166.446C74.3136 170.085 73.0369 173.58 71.154 176.753C69.7421 178.908 68.7349 179.934 68.6125 179.85Z" fill="#E0E0E0"/>
<path d="M33.6904 178.956L30.4053 183.484L26.3577 180.566L29.5581 176.161C25.727 173.007 22.7902 168.969 21.8301 165.609L27.6379 162.286C28.7826 165.595 30.7716 168.548 33.408 170.852L38.3121 164.093C34.6034 159.744 30.6688 154.605 34.867 148.816C37.9827 144.524 43.7716 143.102 50.6996 147.009L53.9564 142.519L58.004 145.456L54.8036 149.861C57.5868 152.136 59.7902 155.04 61.2326 158.333L55.5849 161.844C54.4721 159.355 52.8718 157.114 50.8784 155.255L45.8895 162.135C49.6547 166.446 53.4764 171.548 49.3347 177.196C46.332 181.385 40.6089 182.797 33.6904 178.956ZM42.6233 158.125L46.7932 152.374C44.2988 151.301 42.595 151.866 41.6255 153.202C40.656 154.539 41.249 156.262 42.6233 158.125ZM42.5103 172.932C43.5363 171.511 42.9245 169.892 41.6255 168.018L37.5685 173.61C39.9217 174.636 41.569 174.222 42.5103 172.932V172.932Z" fill="#E0E0E0"/>
<path d="M329.445 306.528C325.12 312.342 319.168 316.742 312.342 319.172C305.515 321.602 298.121 321.952 291.096 320.177C284.071 318.402 277.73 314.583 272.876 309.203C268.023 303.823 264.874 297.124 263.83 289.954C262.785 282.784 263.892 275.465 267.009 268.924C270.126 262.382 275.114 256.913 281.341 253.208C287.568 249.503 294.754 247.729 301.99 248.11C309.226 248.491 316.186 251.011 321.989 255.35C329.763 261.149 334.915 269.798 336.313 279.395C337.711 288.992 335.24 298.752 329.445 306.528V306.528Z" fill="#EBEBEB"/>
<path d="M322.471 301.313C319.171 305.74 314.633 309.088 309.43 310.934C304.227 312.78 298.594 313.041 293.243 311.684C287.891 310.326 283.063 307.412 279.369 303.31C275.674 299.207 273.28 294.101 272.489 288.638C271.698 283.174 272.546 277.598 274.925 272.617C277.304 267.635 281.107 263.471 285.854 260.652C290.6 257.833 296.077 256.485 301.589 256.779C307.102 257.074 312.404 258.997 316.823 262.306C322.744 266.73 326.666 273.325 327.725 280.64C328.784 287.955 326.894 295.392 322.471 301.313V301.313Z" fill="#F5F5F5"/>
<path d="M322.989 300.608C322.848 300.504 323.488 299.459 324.401 297.473C325.699 294.699 326.557 291.739 326.943 288.7C327.2 286.62 327.226 284.517 327.018 282.431C326.777 280.042 326.226 277.694 325.38 275.447C324.93 274.234 324.389 273.057 323.761 271.926C323.119 270.742 322.386 269.609 321.568 268.538C320.722 267.428 319.794 266.383 318.791 265.413C317.75 264.422 316.639 263.507 315.468 262.673C314.287 261.857 313.047 261.127 311.76 260.49C309.289 259.289 306.652 258.467 303.937 258.052C302.657 257.852 301.364 257.748 300.069 257.741C297.67 257.719 295.279 258.004 292.952 258.588C290.922 259.115 288.956 259.864 287.088 260.819C284.367 262.225 281.881 264.044 279.718 266.213C278.174 267.756 277.402 268.717 277.271 268.613C277.139 268.51 277.704 267.418 279.097 265.657C281.115 263.168 283.579 261.077 286.363 259.492C288.292 258.384 290.346 257.508 292.482 256.885C294.949 256.173 297.501 255.8 300.069 255.774C301.457 255.755 302.845 255.843 304.22 256.037C305.661 256.238 307.083 256.553 308.474 256.979C309.917 257.412 311.324 257.957 312.682 258.607C315.478 259.96 318.04 261.753 320.269 263.916C321.346 264.971 322.34 266.107 323.243 267.314C324.112 268.477 324.886 269.708 325.559 270.995C326.213 272.205 326.773 273.464 327.234 274.76C328.088 277.189 328.61 279.722 328.788 282.29C328.936 284.511 328.819 286.742 328.439 288.936C327.903 292.096 326.782 295.128 325.135 297.878C323.959 299.789 323.083 300.674 322.989 300.608Z" fill="#E0E0E0"/>
<path d="M292.687 299.827L289.864 303.761L286.343 301.21L289.12 297.379C285.797 294.649 283.256 291.138 282.418 288.23L287.454 285.349C288.453 288.219 290.178 290.781 292.462 292.786L296.716 286.912C293.506 283.147 290.127 278.685 293.732 273.659C296.434 269.893 301.46 268.698 307.466 272.096L310.29 268.19L313.801 270.741L311.024 274.572C313.439 276.532 315.352 279.039 316.606 281.886L311.711 284.926C310.76 282.766 309.383 280.82 307.663 279.203L303.334 285.18C306.572 288.945 309.923 293.322 306.327 298.273C303.644 301.935 298.684 303.159 292.687 299.827ZM300.434 281.754L304.049 276.765C301.884 275.824 300.406 276.322 299.559 277.48C298.712 278.638 299.239 280.144 300.434 281.754ZM300.331 294.602C301.225 293.369 300.689 291.967 299.559 290.338L296.048 295.186C298.081 296.08 299.521 295.723 300.331 294.602Z" fill="#E0E0E0"/>
<path d="M108.071 54.9393C107.214 59.6208 104.987 63.9429 101.673 67.3584C98.3589 70.774 94.1058 73.1294 89.4522 74.1265C84.7985 75.1236 79.9537 74.7177 75.5309 72.9599C71.1082 71.2022 67.3064 68.1718 64.6068 64.2523C61.9072 60.3328 60.4311 55.7004 60.3656 50.9416C60.3 46.1828 61.6478 41.5116 64.2384 37.5192C66.829 33.5268 70.5458 30.3927 74.9185 28.5138C79.2911 26.6349 84.123 26.0955 88.8023 26.9641C95.0669 28.1192 100.616 31.7154 104.23 36.9616C107.843 42.2078 109.225 48.6745 108.071 54.9393V54.9393Z" fill="#EBEBEB"/>
<path d="M102.442 53.894C101.788 57.4615 100.091 60.7549 97.5646 63.3572C95.0383 65.9596 91.7966 67.7538 88.25 68.5127C84.7034 69.2717 81.0114 68.9613 77.6413 67.6208C74.2712 66.2804 71.3747 63.9701 69.3183 60.9825C67.262 57.9949 66.1383 54.4643 66.0895 50.8378C66.0408 47.2112 67.0692 43.6517 69.0445 40.61C71.0199 37.5682 73.8533 35.1809 77.1862 33.7504C80.519 32.3198 84.2014 31.9103 87.7671 32.5737C90.1307 33.0097 92.3853 33.9071 94.4021 35.2146C96.4189 36.5221 98.1583 38.2141 99.5211 40.1939C100.884 42.1738 101.843 44.4027 102.344 46.7534C102.845 49.1041 102.879 51.5305 102.442 53.894Z" fill="#F5F5F5"/>
<path d="M102.546 53.3283C102.437 52.5805 102.411 51.8227 102.471 51.0692C102.427 49.0593 102.071 47.0684 101.417 45.1673C100.965 43.8501 100.369 42.5872 99.6377 41.4022C98.8034 40.0651 97.797 38.8435 96.6444 37.7688C96.025 37.1855 95.3644 36.6475 94.6676 36.1591C93.9437 35.6504 93.1822 35.1973 92.3897 34.8037C91.5695 34.3958 90.72 34.0497 89.8482 33.7683C88.9484 33.4878 88.0299 33.2707 87.0996 33.1188C86.1642 32.985 85.2207 32.9158 84.2758 32.9117C83.3584 32.9199 82.4429 32.9954 81.5366 33.1376C80.6626 33.2759 79.8004 33.4805 78.9575 33.7494C78.1474 34.0036 77.3577 34.3182 76.5948 34.6907C73.9145 35.9802 71.5932 37.9103 69.8363 40.3103C68.625 41.9259 67.6723 43.7201 67.0124 45.6286C66.8408 46.3621 66.5915 47.0752 66.2688 47.7559C66.1736 46.9899 66.2475 46.2123 66.4853 45.478C66.9529 43.4257 67.7988 41.4785 68.9797 39.7361C70.734 37.1102 73.1409 34.9855 75.9641 33.5706C76.7799 33.1549 77.6265 32.8024 78.4962 32.5163C79.3995 32.2136 80.3247 31.9808 81.2636 31.8198C82.2411 31.6599 83.229 31.5718 84.2193 31.5562C85.2367 31.5536 86.2529 31.626 87.2597 31.7727C88.2643 31.9335 89.2554 32.1695 90.2247 32.4787C91.1651 32.7889 92.0808 33.1697 92.9639 33.6177C93.8171 34.0474 94.6326 34.548 95.4019 35.1143C96.1455 35.6428 96.8444 36.2315 97.4915 36.8745C98.6958 38.0516 99.7373 39.3843 100.588 40.8374C101.318 42.1064 101.899 43.455 102.32 44.8567C102.918 46.873 103.139 48.9824 102.97 51.0787C102.984 51.8496 102.84 52.6152 102.546 53.3283V53.3283Z" fill="#E0E0E0"/>
<path d="M84.463 61.67L83.9265 64.8233L81.1026 64.3433L81.6203 61.2747C79.1458 60.7684 76.8629 59.5781 75.0312 57.8389L77.1586 54.6762C78.5804 56.0757 80.3418 57.0812 82.2698 57.5942L83.0699 52.8877C80.086 51.5982 76.7821 49.9603 77.4692 45.941C77.9775 42.9665 80.5755 40.7827 85.1031 41.0368L85.6302 37.9117L88.4541 38.3918L87.927 41.4604C89.9172 41.9159 91.7717 42.8351 93.3394 44.1431L91.3439 47.3623C90.153 46.3685 88.7775 45.62 87.2963 45.1597L86.4774 49.9415C89.4707 51.2028 92.7182 52.8313 92.0404 56.7847C91.5321 59.7309 88.9624 61.8959 84.463 61.67ZM83.7759 48.7837L84.463 44.7926C82.9099 44.8773 82.1851 45.5927 82.0251 46.5246C81.865 47.4565 82.6087 48.1718 83.7759 48.7837ZM87.4563 56.3799C87.6258 55.4386 86.901 54.7233 85.762 54.102L85.1031 57.9707C86.5621 57.8954 87.3057 57.2553 87.4563 56.3705V56.3799Z" fill="#E0E0E0"/>
<path d="M419 379.064C419 379.205 331.94 379.318 224.576 379.318C117.212 379.318 30.1426 379.177 30.1426 379.064C30.1426 378.951 117.175 378.819 224.576 378.819C331.978 378.819 419 378.932 419 379.064Z" fill="#0D395A"/>
<path d="M145.073 82.7256C145.073 82.7256 145.892 40.5463 110.998 19.1224H221.591C221.591 19.1224 253.209 44.7444 253.472 82.7256H145.073Z" fill="#EBEBEB"/>
<path d="M213.155 34.5024C213.155 34.6436 200.523 34.7566 184.917 34.7566C169.31 34.7566 156.678 34.6436 156.678 34.5024C156.678 34.3612 169.31 34.2577 184.917 34.2577C200.523 34.2577 213.155 34.3706 213.155 34.5024Z" fill="#455A64"/>
<path d="M225.224 42.137C225.224 42.2687 208.488 42.3817 187.846 42.3817C167.203 42.3817 150.467 42.2687 150.467 42.137C150.467 42.0052 167.203 41.8828 187.846 41.8828C208.488 41.8828 225.224 41.9958 225.224 42.137Z" fill="#0D395A"/>
<path d="M231.511 61.4341C231.511 61.5659 214.775 61.6788 194.132 61.6788C173.49 61.6788 156.744 61.5659 156.744 61.4341C156.744 61.3023 173.48 61.1893 194.132 61.1893C214.784 61.1893 231.511 61.3023 231.511 61.4341Z" fill="#0D395A"/>
<path d="M192.448 50.9187C191.944 50.9967 191.434 51.0314 190.923 51.0222L186.744 51.0975C183.214 51.1446 178.348 51.1728 172.963 51.1728C167.579 51.1728 162.713 51.1728 159.183 51.0975L155.003 51.0222C154.493 51.0314 153.983 50.9967 153.479 50.9187C153.984 50.8477 154.493 50.8162 155.003 50.8246L159.183 50.7492C162.713 50.7492 167.579 50.674 172.963 50.674C178.348 50.674 183.214 50.6739 186.744 50.7492L190.923 50.8246C191.433 50.8162 191.943 50.8477 192.448 50.9187V50.9187Z" fill="#0D395A"/>
<path d="M225.224 50.9187C224.853 50.9966 224.474 51.0313 224.095 51.0222L221.007 51.0975C218.409 51.1446 214.804 51.1728 210.832 51.1728C206.86 51.1728 203.254 51.1728 200.656 51.0975L197.569 51.0222C197.19 51.0304 196.811 50.9957 196.439 50.9187C196.812 50.8485 197.19 50.817 197.569 50.8246L200.656 50.7492C203.254 50.7492 206.86 50.674 210.832 50.674C214.804 50.674 218.362 50.6739 221.007 50.7492L224.095 50.8246C224.473 50.8162 224.852 50.8477 225.224 50.9187V50.9187Z" fill="#0D395A"/>
<path d="M199.385 71.7788C198.878 71.8564 198.364 71.8911 197.851 71.8823L193.681 71.9576C190.151 71.9576 185.275 72.0329 179.9 72.0329C174.526 72.0329 169.64 72.0329 166.111 71.9576L161.941 71.8823C161.427 71.8911 160.914 71.8564 160.406 71.7788C160.915 71.7082 161.427 71.6767 161.941 71.6847L166.111 71.6094C169.64 71.6094 174.516 71.5341 179.9 71.5341C185.285 71.5341 190.151 71.5341 193.681 71.6094L197.851 71.6847C198.364 71.6767 198.877 71.7082 199.385 71.7788Z" fill="#0D395A"/>
<path d="M232.161 71.7788C231.79 71.8558 231.411 71.8906 231.032 71.8823L227.944 71.9576C225.337 71.9576 221.741 72.0329 217.769 72.0329C213.797 72.0329 210.239 72.0329 207.584 71.9576L204.497 71.8823C204.118 71.8906 203.739 71.8558 203.367 71.7788C203.739 71.7086 204.118 71.6771 204.497 71.6847L207.584 71.6094C210.192 71.6094 213.787 71.5341 217.769 71.5341C221.751 71.5341 225.299 71.5341 227.944 71.6094L231.032 71.6847C231.411 71.6771 231.789 71.7086 232.161 71.7788V71.7788Z" fill="#0D395A"/>
<path d="M122.463 81.5304H285.627L294.512 364.201C294.573 366.138 294.243 368.067 293.543 369.873C292.843 371.68 291.787 373.328 290.437 374.718C289.087 376.108 287.472 377.213 285.686 377.966C283.901 378.719 281.982 379.105 280.045 379.102H110.405C108.008 379.102 105.702 378.181 103.966 376.528C102.23 374.876 101.195 372.619 101.077 370.225L93.2356 210.61C93.2356 210.61 44.8437 193.036 45.6626 139.448C45.6626 139.448 47.8652 81.5304 122.463 81.5304Z" fill="#0D395A"/>
<path d="M131.319 378.669L124.203 81.5304H291.546L294.568 366.168C294.621 367.845 294.336 369.516 293.73 371.08C293.124 372.644 292.209 374.071 291.04 375.274C289.87 376.477 288.471 377.433 286.925 378.084C285.379 378.735 283.717 379.069 282.039 379.064L131.319 378.669Z" fill="#455A64"/>
<path d="M138.031 98.7454L141.42 237.097H277.71L275.874 98.7454H138.031Z" fill="#FCFCFC"/>
<path d="M153.112 116.648C159.767 118.446 168.173 117.684 175.007 117.354C175.506 117.354 175.985 117.156 176.338 116.803C176.691 116.45 176.89 115.971 176.89 115.472C176.89 114.973 176.691 114.494 176.338 114.141C175.985 113.788 175.506 113.589 175.007 113.589C168.173 113.25 159.758 112.488 153.112 114.295C152.854 114.372 152.627 114.53 152.465 114.747C152.304 114.963 152.217 115.226 152.217 115.495C152.217 115.765 152.304 116.028 152.465 116.244C152.627 116.46 152.854 116.619 153.112 116.696V116.648Z" fill="#E0E0E0"/>
<path d="M186.641 116.378C193.173 118.044 201.617 117.743 208.291 117.103C208.79 117.103 209.269 116.904 209.622 116.551C209.975 116.198 210.173 115.719 210.173 115.22C210.173 114.721 209.975 114.242 209.622 113.889C209.269 113.536 208.79 113.337 208.291 113.337C201.617 112.688 193.173 112.396 186.641 114.062C186.391 114.138 186.172 114.291 186.017 114.501C185.861 114.71 185.777 114.964 185.777 115.225C185.777 115.486 185.861 115.739 186.017 115.949C186.172 116.158 186.391 116.312 186.641 116.387V116.378Z" fill="#E0E0E0"/>
<path d="M219.716 115.783C223.001 116.781 226.55 116.612 229.958 116.668C233.437 116.875 236.927 116.809 240.396 116.47C242.1 116.226 242.1 113.261 240.396 113.025C236.928 112.678 233.437 112.609 229.958 112.818C226.55 112.875 223.001 112.705 219.716 113.703C219.491 113.768 219.292 113.905 219.151 114.092C219.01 114.28 218.934 114.508 218.934 114.743C218.934 114.978 219.01 115.206 219.151 115.394C219.292 115.582 219.491 115.718 219.716 115.783Z" fill="#E0E0E0"/>
<path d="M250.367 115.972C252.846 116.333 255.346 116.525 257.85 116.546C260.335 116.602 263.018 117.007 265.428 116.32C265.766 116.218 266.063 116.009 266.273 115.725C266.484 115.441 266.598 115.097 266.598 114.743C266.598 114.39 266.484 114.045 266.273 113.761C266.063 113.478 265.766 113.269 265.428 113.167C263.018 112.479 260.335 112.884 257.85 112.941C255.345 112.96 252.845 113.155 250.367 113.524C250.105 113.605 249.876 113.767 249.713 113.987C249.551 114.207 249.463 114.474 249.463 114.748C249.463 115.022 249.551 115.288 249.713 115.509C249.876 115.729 250.105 115.891 250.367 115.972V115.972Z" fill="#E0E0E0"/>
<path d="M180.963 253.552H141.467V281.781H180.963V253.552Z" fill="#3B46E7"/>
<path d="M148.611 253.552H141.467V281.781H148.611V253.552Z" fill="#0D395A"/>
<path d="M229.329 253.552H189.832V281.781H229.329V253.552Z" fill="#3B46E7"/>
<path d="M196.572 253.552H189.428V281.781H196.572V253.552Z" fill="#0D395A"/>
<path d="M277.702 253.552H238.205V281.781H277.702V253.552Z" fill="#3B46E7"/>
<path d="M244.221 253.552H237.076V281.781H244.221V253.552Z" fill="#0D395A"/>
<path d="M277.702 291.109H238.205V319.338H277.702V291.109Z" fill="#3B46E7"/>
<path d="M245.566 291.109H238.205V319.338H245.566V291.109Z" fill="#0D395A"/>
<path d="M180.963 291.109H141.467V319.338H180.963V291.109Z" fill="#3B46E7"/>
<path d="M148.611 291.053H141.467V319.282H148.611V291.053Z" fill="#0D395A"/>
<path d="M180.963 328.291H141.467V356.52H180.963V328.291Z" fill="#3B46E7"/>
<path opacity="0.3" d="M180.963 328.291H141.467V356.52H180.963V328.291Z" fill="black"/>
<path d="M148.611 328.291H141.467V356.52H148.611V328.291Z" fill="#0D395A"/>
<path d="M229.112 291.109H189.615V319.338H229.112V291.109Z" fill="#3B46E7"/>
<path d="M196.76 291.053H189.615V319.282H196.76V291.053Z" fill="#0D395A"/>
<path d="M229.329 328.291H189.832V356.52H229.329V328.291Z" fill="#3B46E7"/>
<path opacity="0.3" d="M229.329 328.291H189.832V356.52H229.329V328.291Z" fill="black"/>
<path d="M196.976 328.291H189.832V356.52H196.976V328.291Z" fill="#0D395A"/>
<path d="M277.702 328.291H238.205V356.52H277.702V328.291Z" fill="#E0E0E0"/>
<path d="M245.35 328.291H238.205V356.52H245.35V328.291Z" fill="#0D395A"/>
<path d="M118.283 379.101C117.605 379.101 115.129 312.513 112.748 230.376C110.366 148.239 108.983 81.567 109.66 81.5482C110.338 81.5294 112.814 148.117 115.195 230.273C117.577 312.429 118.96 379.082 118.283 379.101Z" fill="#455A64"/>
<path d="M277.504 221.341V226.415L293.129 230.302L293.045 222.48L277.504 221.341Z" fill="#455A64"/>
<path d="M87.8228 211.164C86.9684 210.822 86.0496 210.671 85.1307 210.722C84.2061 210.809 83.2992 211.031 82.4386 211.381L71.7455 214.958L50.8488 221.98L11.3145 235.158C9.75458 235.603 8.41392 236.609 7.5493 237.982C6.69514 239.326 6.37606 240.941 6.65508 242.509C6.8288 243.286 7.05523 244.05 7.3328 244.797L8.09525 247.075C8.60355 248.59 9.10244 250.087 9.61074 251.583C11.5937 257.539 13.5265 263.321 15.4091 268.931C19.1743 280.133 22.6382 290.581 25.8292 300.079C32.1735 319.121 37.3224 334.54 40.8899 345.195C42.6596 350.523 44.0244 354.655 44.9657 357.432C45.4176 358.834 45.7752 359.898 46.0106 360.623C46.2459 361.348 46.3494 361.715 46.3494 361.715C46.3494 361.715 46.4624 362.091 46.8295 362.75C47.3723 363.731 48.1563 364.557 49.1074 365.15C49.8781 365.628 50.739 365.941 51.6363 366.071C52.5336 366.2 53.4479 366.143 54.3222 365.903C56.3742 365.245 58.7274 364.416 61.3913 363.531L100.7 350.278L58.7745 219.344L79.7465 212.313L117.615 328.346L115.958 287.983C108.334 265.27 100.097 240.711 91.4845 215.08C91.1924 214.202 90.714 213.397 90.082 212.722C89.45 212.046 88.6793 211.514 87.8228 211.164V211.164ZM39.4968 270.814L30.1403 241.201L33.3125 240.194L42.669 269.807L39.4968 270.814ZM45.9917 254.501L40.5322 237.238L43.7044 236.24L49.1639 253.494L45.9917 254.501ZM53.315 276.396L47.8649 259.132L51.0371 258.135L56.4872 275.389L53.315 276.396ZM55.1976 281.027L58.3697 280.02L73.4775 327.819L70.3053 328.816L55.1976 281.027ZM74.9648 343.567L71.7361 333.354L74.9083 332.346L78.1369 342.569L74.9648 343.567ZM88.0205 338.145L84.8483 339.142L64.9212 276.076L68.0933 275.078L88.0205 338.145ZM66.4649 269.044L63.2927 270.042L51.7336 233.492L54.9058 232.484L66.4649 269.044Z" fill="#3B46E7"/>
<path opacity="0.3" d="M87.8228 211.164C86.9684 210.822 86.0496 210.671 85.1307 210.722C84.2061 210.809 83.2992 211.031 82.4386 211.381L71.7455 214.958L50.8488 221.98L11.3145 235.158C9.75458 235.603 8.41392 236.609 7.5493 237.982C6.69514 239.326 6.37606 240.941 6.65508 242.509C6.8288 243.286 7.05523 244.05 7.3328 244.797L8.09525 247.075C8.60355 248.59 9.10244 250.087 9.61074 251.583C11.5937 257.539 13.5265 263.321 15.4091 268.931C19.1743 280.133 22.6382 290.581 25.8292 300.079C32.1735 319.121 37.3224 334.54 40.8899 345.195C42.6596 350.523 44.0244 354.655 44.9657 357.432C45.4176 358.834 45.7752 359.898 46.0106 360.623C46.2459 361.348 46.3494 361.715 46.3494 361.715C46.3494 361.715 46.4624 362.091 46.8295 362.75C47.3723 363.731 48.1563 364.557 49.1074 365.15C49.8781 365.628 50.739 365.941 51.6363 366.071C52.5336 366.2 53.4479 366.143 54.3222 365.903C56.3742 365.245 58.7274 364.416 61.3913 363.531L100.7 350.278L58.7745 219.344L79.7465 212.313L117.615 328.346L115.958 287.983C108.334 265.27 100.097 240.711 91.4845 215.08C91.1924 214.202 90.714 213.397 90.082 212.722C89.45 212.046 88.6793 211.514 87.8228 211.164V211.164ZM39.4968 270.814L30.1403 241.201L33.3125 240.194L42.669 269.807L39.4968 270.814ZM45.9917 254.501L40.5322 237.238L43.7044 236.24L49.1639 253.494L45.9917 254.501ZM53.315 276.396L47.8649 259.132L51.0371 258.135L56.4872 275.389L53.315 276.396ZM55.1976 281.027L58.3697 280.02L73.4775 327.819L70.3053 328.816L55.1976 281.027ZM74.9648 343.567L71.7361 333.354L74.9083 332.346L78.1369 342.569L74.9648 343.567ZM88.0205 338.145L84.8483 339.142L64.9212 276.076L68.0933 275.078L88.0205 338.145ZM66.4649 269.044L63.2927 270.042L51.7336 233.492L54.9058 232.484L66.4649 269.044Z" fill="black"/>
<path d="M100.729 350.458L100.682 350.307L61.3739 363.561C58.71 364.446 56.3568 365.274 54.3048 365.933C53.4305 366.173 52.5162 366.23 51.6189 366.1C50.7216 365.971 49.8607 365.657 49.09 365.18C48.1389 364.586 47.3549 363.76 46.8121 362.779C46.445 362.121 46.3603 361.735 46.332 361.744L46.4262 362.017C46.5242 362.285 46.6406 362.546 46.7744 362.798C47.3032 363.801 48.0853 364.648 49.043 365.255C49.819 365.753 50.6909 366.082 51.6021 366.221C52.5133 366.361 53.4437 366.307 54.333 366.065C56.4039 365.415 58.7571 364.606 61.4304 363.721L106.547 348.66L117.249 345.083L118.285 344.556L100.729 350.458Z" fill="#0D395A"/>
<path d="M45.9922 360.644C45.7569 359.919 45.3992 358.855 44.9474 357.453C44.0061 354.629 42.6412 350.506 40.8716 345.216C37.3229 334.561 32.1741 319.142 25.8109 300.1C22.6199 290.583 19.1371 280.154 15.3908 268.952C13.5082 263.355 11.5754 257.572 9.59242 251.604C9.08412 250.108 8.58524 248.611 8.07694 247.096L7.31449 244.818C7.03692 244.071 6.81049 243.307 6.63676 242.53C6.35775 240.962 6.67683 239.347 7.53099 238.003C8.39561 236.63 9.73626 235.624 11.2962 235.179L50.8305 222.001L71.7272 214.997L82.4203 211.421C83.2808 211.071 84.1878 210.849 85.1124 210.762C86.0313 210.711 86.9501 210.862 87.8045 211.204C88.6626 211.55 89.4357 212.077 90.0709 212.75C90.7062 213.423 91.1885 214.225 91.485 215.101C100.079 240.732 108.315 265.291 115.959 288.004L115.893 286.479C108.419 264.152 100.343 240.073 91.9368 214.941C91.6183 214.002 91.1012 213.142 90.4206 212.421C89.74 211.7 88.9119 211.134 87.9928 210.762C87.0756 210.395 86.0891 210.234 85.103 210.291C84.1338 210.378 83.1825 210.607 82.2791 210.969L71.5954 214.555L50.6987 221.558L11.1644 234.812C9.51098 235.267 8.08343 236.316 7.15447 237.758C6.24781 239.193 5.91196 240.916 6.21318 242.587C6.39285 243.383 6.62555 244.166 6.90974 244.931C7.16389 245.693 7.42745 246.446 7.6816 247.208C8.18048 248.715 8.68878 250.221 9.18767 251.708C11.1958 257.663 13.138 263.446 15.0143 269.056L25.5191 300.166L40.7022 345.235C42.5095 350.544 43.9026 354.648 44.8533 357.472C45.3333 358.865 45.7004 359.928 45.9452 360.653L46.3311 361.736C46.3311 361.736 46.2276 361.369 45.9922 360.644Z" fill="#0D395A"/>
<path d="M68.0609 275.092L64.8926 276.094L84.8239 339.154L87.9921 338.153L68.0609 275.092Z" fill="#FAFAFA"/>
<path d="M54.9046 232.486L51.7363 233.487L63.2963 270.061L66.4645 269.06L54.9046 232.486Z" fill="#FAFAFA"/>
<path d="M43.7093 236.235L40.541 237.237L45.9962 254.496L49.1644 253.495L43.7093 236.235Z" fill="#FAFAFA"/>
<path d="M32.7113 239.315L29.5547 240.312L38.8735 269.821L42.0301 268.824L32.7113 239.315Z" fill="#FAFAFA"/>
<path d="M74.9495 332.342L71.7812 333.344L75.0095 343.558L78.1778 342.556L74.9495 332.342Z" fill="#FAFAFA"/>
<path d="M51.0296 258.134L47.8613 259.136L53.3165 276.395L56.4848 275.394L51.0296 258.134Z" fill="#FAFAFA"/>
<path d="M58.3343 280.043L55.166 281.045L70.2719 328.838L73.4402 327.837L58.3343 280.043Z" fill="#FAFAFA"/>
<path d="M58.7754 219.346L100.682 350.308L100.729 350.458L118.284 344.575L117.616 328.329L79.7474 212.314L58.7754 219.346Z" fill="#FAFAFA"/>
<path d="M100.494 358.28L117.513 352.294L117.146 344.829L100.729 350.458L100.494 358.28Z" fill="#0D395A"/>
<path d="M315.072 141.605C315.072 141.737 314.545 141.821 313.886 141.793C313.228 141.765 312.719 141.633 312.729 141.492C312.738 141.351 313.265 141.275 313.915 141.304C314.564 141.332 315.082 141.464 315.072 141.605Z" fill="#0D395A"/>
<path d="M324.288 141.209C323.565 141.514 322.785 141.658 322.001 141.633C321.23 141.774 320.438 141.752 319.676 141.567C321.171 141.123 322.743 141.001 324.288 141.209V141.209Z" fill="#0D395A"/>
<path d="M333.418 139.58C332.74 139.974 331.986 140.221 331.206 140.305C330.459 140.542 329.671 140.626 328.891 140.549C330.316 139.92 331.86 139.599 333.418 139.608V139.58Z" fill="#0D395A"/>
<path d="M342.22 136.767C341.601 137.243 340.889 137.586 340.13 137.774C339.424 138.113 338.654 138.299 337.871 138.32C338.488 137.839 339.201 137.496 339.961 137.313C340.67 136.982 341.438 136.797 342.22 136.767Z" fill="#0D395A"/>
<path d="M350.569 132.785C350.018 133.341 349.358 133.777 348.63 134.065C347.975 134.496 347.238 134.788 346.465 134.921C347.017 134.365 347.677 133.926 348.404 133.632C349.059 133.202 349.796 132.914 350.569 132.785V132.785Z" fill="#0D395A"/>
<path d="M358.257 127.655C358.342 127.759 357.57 128.455 356.525 129.208C355.942 129.731 355.256 130.126 354.511 130.366C354.436 130.253 355.208 129.557 356.243 128.804C357.278 128.051 358.173 127.542 358.257 127.655Z" fill="#0D395A"/>
<path d="M365.053 121.386C365.157 121.48 364.498 122.327 363.594 123.193C362.69 124.059 361.872 124.756 361.787 124.652C361.702 124.549 362.342 123.711 363.246 122.845C364.149 121.979 364.95 121.264 365.053 121.386Z" fill="#0D395A"/>
<path d="M370.674 114.053C370.797 114.119 370.288 114.994 369.554 116.086C368.82 117.178 368.133 117.969 368.029 117.846C368.261 117.097 368.642 116.402 369.149 115.804C369.884 114.768 370.561 113.978 370.674 114.053Z" fill="#0D395A"/>
<path d="M374.816 105.789C374.495 107.318 373.853 108.761 372.934 110.024C373.01 109.247 373.247 108.494 373.63 107.812C373.88 107.062 374.284 106.373 374.816 105.789V105.789Z" fill="#0D395A"/>
<path d="M377.264 96.8832C377.334 97.6625 377.241 98.4478 376.991 99.1893C376.899 99.9686 376.642 100.719 376.238 101.392C376.257 99.8333 376.607 98.2965 377.264 96.8832V96.8832Z" fill="#0D395A"/>
<path d="M378.206 87.6882C378.443 89.2287 378.343 90.8022 377.914 92.3006C377.723 91.5435 377.691 90.7551 377.82 89.985C377.791 89.2011 377.922 88.4196 378.206 87.6882Z" fill="#0D395A"/>
<path d="M377.744 78.462C378.21 79.949 378.348 81.5194 378.149 83.065C377.85 82.3429 377.7 81.5683 377.706 80.787C377.56 80.0176 377.573 79.2264 377.744 78.462V78.462Z" fill="#0D395A"/>
<path d="M375.869 69.4083C376.286 70.0721 376.559 70.8162 376.669 71.5921C376.935 72.3303 377.044 73.1157 376.99 73.8983C376.577 73.2324 376.305 72.4893 376.189 71.7145C375.928 70.9753 375.819 70.1908 375.869 69.4083V69.4083Z" fill="#0D395A"/>
<path d="M372.52 60.7949C373.042 61.3779 373.437 62.0642 373.677 62.8093C374.068 63.491 374.309 64.2484 374.383 65.0307C373.867 64.4397 373.473 63.7517 373.226 63.007C372.841 62.3259 372.6 61.5729 372.52 60.7949V60.7949Z" fill="#0D395A"/>
<path d="M367.586 52.9732C367.689 52.8885 368.367 53.6698 369.111 54.724C369.62 55.3176 370.001 56.0098 370.231 56.7572C370.118 56.8325 369.431 56.0418 368.706 55.0064C368.198 54.4125 367.816 53.7204 367.586 52.9732V52.9732Z" fill="#0D395A"/>
<path d="M361.177 46.3456C361.262 46.242 362.118 46.8068 363.059 47.6822C364.001 48.5576 364.641 49.386 364.547 49.4801C364.453 49.5742 363.662 48.9059 362.73 48.0399C361.798 47.1739 361.092 46.4491 361.177 46.3456Z" fill="#0D395A"/>
<path d="M355.427 42.3746C355.493 42.2617 356.001 42.4405 356.557 42.7794C357.112 43.1183 357.498 43.4854 357.432 43.5983C357.366 43.7113 356.848 43.5324 356.302 43.203C355.756 42.8735 355.352 42.497 355.427 42.3746Z" fill="#0D395A"/>
<path d="M329.897 65.623C347.905 65.623 362.504 51.0246 362.504 33.0166C362.504 15.0085 347.905 0.410156 329.897 0.410156C311.889 0.410156 297.291 15.0085 297.291 33.0166C297.291 51.0246 311.889 65.623 329.897 65.623Z" fill="#3B46E7"/>
<path d="M310.609 35.3977L315.655 30.3524L325.388 39.0028L344.496 20.6194L349.184 25.6647L324.672 48.7358L310.609 35.3977Z" fill="#FAFAFA"/>
<path d="M357.684 116.181C355.735 119.428 355.933 123.504 356.479 127.26C357.025 131.016 357.872 134.847 357.034 138.555C356.479 140.993 355.152 143.431 355.792 145.85C356.215 147.573 357.505 148.928 358.145 150.557C359.086 152.91 358.55 155.527 358.239 158.031C357.928 160.535 357.947 163.33 359.604 165.222C361.665 167.575 365.459 167.472 368.283 166.163C371.107 164.855 373.347 162.53 375.964 160.826C378.58 159.123 381.988 158.002 384.802 159.358C386.101 159.979 387.222 161.09 388.652 161.241C390.657 161.391 392.239 159.556 394.178 159.019C395.844 158.567 397.623 159.123 399.336 158.925C402.828 158.539 405.407 154.774 404.918 151.3C404.59 149.566 403.733 147.976 402.466 146.748C401.199 145.519 399.583 144.713 397.839 144.438C396.361 144.194 394.582 144.156 393.773 142.895C392.568 141.012 394.714 138.649 394.309 136.475C394.046 134.913 392.559 133.868 391.1 133.228C389.641 132.588 388.031 132.164 386.901 131.053C384.878 129.077 385.104 125.838 384.482 123.071C383.456 118.515 379.192 109.187 369.911 108.274" fill="#0D395A"/>
<path d="M353.381 375.412L353.56 368.767L366.013 369.021L365.853 378.744H365.081C361.646 378.867 347.583 379.121 345.314 378.377C342.754 377.577 353.381 375.412 353.381 375.412Z" fill="#3B46E7"/>
<path d="M361.346 378.547C361.548 377.502 362.132 376.569 362.984 375.93C363.818 375.289 364.863 374.986 365.911 375.083L365.845 378.556L361.346 378.547Z" fill="#3B46E7"/>
<path d="M348.185 376.646C348.185 376.646 344.42 377.643 344.909 378.265C345.399 378.886 359.574 379.206 365.853 378.735V378.462L349.277 378.274C349.277 378.274 348.91 376.693 348.185 376.646Z" fill="#3B46E7"/>
<path d="M366.033 378.452H365.816H365.204L362.945 378.508C361.063 378.508 358.389 378.508 355.471 378.508C352.553 378.508 349.908 378.348 347.998 378.245L345.738 378.103L345.127 378.056H344.91H345.127H345.738L348.007 378.141C349.89 378.216 352.553 378.311 355.471 378.367C358.389 378.424 361.025 378.433 362.936 378.424H366.033V378.452Z" fill="#0D395A"/>
<path d="M349.261 378.471C349.167 378.094 349.031 377.728 348.857 377.379C348.638 377.058 348.386 376.762 348.104 376.495C348.488 376.646 348.803 376.934 348.988 377.304C349.217 377.648 349.314 378.062 349.261 378.471V378.471Z" fill="#0D395A"/>
<path d="M352.968 376.673C352.968 376.673 352.761 376.475 352.582 376.193C352.403 375.911 352.29 375.647 352.328 375.628C352.365 375.61 352.535 375.826 352.713 376.108C352.892 376.391 353.005 376.654 352.968 376.673Z" fill="#0D395A"/>
<path d="M353.983 376.164C353.983 376.164 353.766 376.061 353.55 375.863C353.333 375.665 353.192 375.477 353.22 375.449C353.249 375.421 353.446 375.552 353.653 375.75C353.86 375.948 354.011 376.136 353.983 376.164Z" fill="#0D395A"/>
<path d="M354.643 374.998C354.643 375.045 354.351 375.073 353.993 375.073C353.636 375.073 353.344 375.073 353.344 374.989C353.552 374.918 353.775 374.895 353.993 374.923C354.213 374.901 354.434 374.927 354.643 374.998V374.998Z" fill="#0D395A"/>
<path d="M354.879 374.179C354.663 374.317 354.41 374.386 354.154 374.376C353.899 374.417 353.638 374.374 353.41 374.254C353.654 374.233 353.9 374.233 354.144 374.254C354.385 374.199 354.632 374.174 354.879 374.179Z" fill="#0D395A"/>
<path d="M352.524 375.581C352.259 375.628 351.988 375.628 351.723 375.581C351.436 375.536 351.152 375.466 350.876 375.374C350.71 375.322 350.549 375.252 350.396 375.167C350.302 375.109 350.232 375.018 350.199 374.913C350.188 374.852 350.194 374.79 350.217 374.733C350.241 374.677 350.28 374.628 350.33 374.593C350.64 374.451 350.989 374.421 351.318 374.506C351.647 374.592 351.937 374.789 352.138 375.063C352.259 375.221 352.342 375.405 352.382 375.6C352.382 375.732 352.382 375.816 352.382 375.816C352.308 375.568 352.19 375.336 352.034 375.129C351.859 374.911 351.623 374.751 351.356 374.668C351.049 374.558 350.71 374.575 350.415 374.715C350.283 374.809 350.33 374.96 350.472 375.044C350.613 375.124 350.761 375.19 350.914 375.242C351.18 375.342 351.454 375.421 351.733 375.477C352.26 375.553 352.524 375.553 352.524 375.581Z" fill="#0D395A"/>
<path d="M352.355 375.618C352.264 375.448 352.237 375.251 352.28 375.063C352.307 374.847 352.392 374.642 352.524 374.47C352.593 374.351 352.692 374.251 352.811 374.182C352.93 374.113 353.064 374.076 353.202 374.074C353.281 374.097 353.349 374.147 353.393 374.217C353.436 374.287 353.452 374.37 353.437 374.451C353.414 374.575 353.366 374.694 353.296 374.799C353.186 374.974 353.057 375.135 352.91 375.279C352.781 375.422 352.62 375.532 352.44 375.599C352.44 375.599 352.609 375.458 352.835 375.204C352.966 375.061 353.08 374.903 353.174 374.733C353.287 374.564 353.371 374.263 353.174 374.225C352.976 374.187 352.76 374.395 352.637 374.555C352.519 374.706 352.438 374.883 352.402 375.072C352.373 375.253 352.357 375.435 352.355 375.618V375.618Z" fill="#0D395A"/>
<path d="M365.844 375.045C365.844 375.045 365.495 374.998 364.902 375.045C364.166 375.112 363.464 375.386 362.878 375.836C362.291 376.286 361.844 376.893 361.589 377.587C361.391 378.114 361.363 378.471 361.335 378.471C361.323 378.387 361.323 378.302 361.335 378.217C361.449 377.34 361.868 376.532 362.518 375.933C363.169 375.334 364.01 374.983 364.893 374.942C365.118 374.924 365.345 374.924 365.571 374.942C365.759 375.007 365.853 375.036 365.844 375.045Z" fill="#0D395A"/>
<path d="M364.658 369.84C364.729 370.691 364.748 371.546 364.714 372.4C364.737 373.251 364.706 374.104 364.62 374.951C364.554 374.102 364.535 373.251 364.564 372.4C364.546 371.546 364.578 370.691 364.658 369.84V369.84Z" fill="#0D395A"/>
<path d="M359.803 377.294C359.203 377.422 358.589 377.469 357.977 377.435C357.366 377.452 356.756 377.392 356.16 377.256C356.16 377.209 356.979 377.256 357.986 377.256C358.993 377.256 359.794 377.294 359.803 377.294Z" fill="#0D395A"/>
<path d="M362.24 377.351C362.24 377.351 362.174 377.521 362.08 377.7C361.986 377.879 361.948 378.057 361.901 378.048C361.854 378.039 361.845 377.85 361.948 377.643C362.052 377.436 362.212 377.295 362.24 377.351Z" fill="#0D395A"/>
<path d="M363.182 376.221C363.182 376.221 363.125 376.381 362.993 376.504C362.862 376.626 362.739 376.711 362.711 376.683C362.683 376.654 362.758 376.523 362.89 376.4C363.022 376.278 363.153 376.193 363.182 376.221Z" fill="#0D395A"/>
<path d="M364.509 375.722C364.509 375.769 364.33 375.722 364.152 375.826C363.973 375.929 363.832 375.976 363.803 375.948C363.775 375.92 363.879 375.751 364.105 375.675C364.33 375.6 364.519 375.685 364.509 375.722Z" fill="#0D395A"/>
<path d="M365.448 375.496C365.448 375.496 365.391 375.6 365.288 375.638C365.184 375.675 365.081 375.638 365.071 375.638C365.062 375.638 365.128 375.534 365.231 375.496C365.335 375.459 365.429 375.459 365.448 375.496Z" fill="#0D395A"/>
<path d="M388.708 375.412L388.887 368.767L401.331 369.021L401.171 378.744H400.399C396.963 378.867 382.91 379.121 380.632 378.377C378.081 377.577 388.708 375.412 388.708 375.412Z" fill="#3B46E7"/>
<path d="M396.662 378.546C396.869 377.5 397.456 376.568 398.309 375.929C399.142 375.286 400.189 374.983 401.237 375.082L401.161 378.555L396.662 378.546Z" fill="#3B46E7"/>
<path d="M383.511 376.646C383.511 376.646 379.746 377.643 380.226 378.265C380.706 378.886 394.891 379.206 401.17 378.735V378.462L384.584 378.274C384.584 378.274 384.236 376.693 383.511 376.646Z" fill="#3B46E7"/>
<path d="M401.359 378.452H401.142H400.53L398.262 378.508C396.379 378.508 393.706 378.508 390.788 378.508C387.87 378.508 385.225 378.348 383.323 378.245L381.055 378.103L380.443 378.056H380.227H380.443H381.064L383.323 378.141C385.206 378.216 387.87 378.311 390.788 378.367C393.706 378.424 396.351 378.433 398.262 378.424H401.359V378.452Z" fill="#0D395A"/>
<path d="M384.576 378.471C384.488 378.093 384.355 377.727 384.181 377.379C383.962 377.058 383.71 376.762 383.428 376.495C383.798 376.668 384.106 376.95 384.311 377.303C384.516 377.657 384.609 378.064 384.576 378.471Z" fill="#0D395A"/>
<path d="M388.294 376.673C388.294 376.673 388.087 376.475 387.917 376.193C387.748 375.911 387.625 375.647 387.663 375.628C387.701 375.61 387.87 375.826 388.04 376.108C388.209 376.391 388.294 376.654 388.294 376.673Z" fill="#0D395A"/>
<path d="M389.313 376.164C389.313 376.164 389.087 376.061 388.88 375.863C388.673 375.665 388.522 375.477 388.55 375.449C388.579 375.421 388.767 375.552 388.983 375.75C389.2 375.948 389.341 376.136 389.313 376.164Z" fill="#0D395A"/>
<path d="M389.971 374.998C389.971 375.045 389.679 375.073 389.321 375.073C388.964 375.073 388.672 375.073 388.672 374.989C388.881 374.918 389.103 374.895 389.321 374.923C389.541 374.901 389.762 374.927 389.971 374.998V374.998Z" fill="#0D395A"/>
<path d="M390.177 374.179C389.956 374.314 389.701 374.382 389.443 374.376C389.188 374.417 388.927 374.374 388.699 374.254C388.944 374.234 389.189 374.234 389.433 374.254C389.677 374.199 389.927 374.174 390.177 374.179V374.179Z" fill="#0D395A"/>
<path d="M387.888 375.582C387.624 375.628 387.353 375.628 387.088 375.582C386.8 375.536 386.517 375.467 386.241 375.374C386.071 375.324 385.906 375.254 385.751 375.167C385.66 375.109 385.592 375.018 385.563 374.913C385.553 374.854 385.559 374.793 385.581 374.737C385.602 374.68 385.639 374.631 385.686 374.593C385.995 374.45 386.344 374.418 386.674 374.504C387.003 374.59 387.293 374.788 387.493 375.064C387.616 375.222 387.703 375.405 387.747 375.6C387.763 375.672 387.763 375.746 387.747 375.817C387.671 375.568 387.55 375.335 387.389 375.13C387.216 374.914 386.984 374.754 386.721 374.668C386.413 374.562 386.076 374.579 385.78 374.716C385.657 374.81 385.704 374.96 385.836 375.045C385.98 375.126 386.131 375.192 386.288 375.243C386.554 375.344 386.828 375.423 387.107 375.478C387.578 375.553 387.888 375.553 387.888 375.582Z" fill="#0D395A"/>
<path d="M387.684 375.62C387.586 375.453 387.556 375.254 387.599 375.065C387.631 374.855 387.712 374.655 387.835 374.481C387.903 374.364 388 374.265 388.117 374.196C388.234 374.127 388.367 374.089 388.503 374.086C388.584 374.106 388.654 374.156 388.7 374.226C388.745 374.296 388.762 374.38 388.748 374.463C388.727 374.589 388.675 374.709 388.597 374.811C388.49 374.987 388.361 375.149 388.211 375.291C388.085 375.432 387.927 375.542 387.75 375.611C387.75 375.611 387.91 375.47 388.136 375.216C388.268 375.071 388.384 374.913 388.484 374.745C388.597 374.576 388.673 374.274 388.484 374.237C388.296 374.199 388.08 374.406 387.948 374.566C387.837 374.722 387.757 374.898 387.712 375.084C387.687 375.261 387.677 375.441 387.684 375.62V375.62Z" fill="#0D395A"/>
<path d="M401.172 375.045C401.172 375.045 400.814 374.998 400.231 375.045C399.497 375.12 398.797 375.393 398.207 375.836C397.628 376.293 397.182 376.898 396.917 377.586C396.72 378.113 396.691 378.471 396.663 378.471C396.649 378.387 396.649 378.301 396.663 378.217C396.689 377.989 396.739 377.765 396.814 377.549C397.048 376.82 397.499 376.181 398.106 375.715C398.713 375.249 399.448 374.979 400.212 374.941C400.441 374.924 400.67 374.924 400.899 374.941C400.996 374.957 401.089 374.992 401.172 375.045V375.045Z" fill="#0D395A"/>
<path d="M399.986 369.84C400.052 370.691 400.07 371.546 400.042 372.4C400.059 373.251 400.028 374.103 399.948 374.951C399.876 374.103 399.857 373.251 399.891 372.4C399.869 371.545 399.9 370.69 399.986 369.84V369.84Z" fill="#0D395A"/>
<path d="M395.12 377.294C394.523 377.422 393.912 377.47 393.303 377.435C392.692 377.453 392.082 377.393 391.486 377.256C391.486 377.209 392.305 377.256 393.303 377.256C394.301 377.256 395.12 377.294 395.12 377.294Z" fill="#0D395A"/>
<path d="M397.557 377.351C397.557 377.351 397.491 377.521 397.406 377.7C397.321 377.879 397.265 378.057 397.227 378.048C397.189 378.039 397.171 377.85 397.227 377.643C397.284 377.436 397.538 377.295 397.557 377.351Z" fill="#0D395A"/>
<path d="M398.509 376.221C398.509 376.221 398.452 376.381 398.321 376.504C398.189 376.626 398.057 376.711 398.029 376.683C398.001 376.654 398.085 376.523 398.217 376.4C398.349 376.278 398.471 376.193 398.509 376.221Z" fill="#0D395A"/>
<path d="M399.824 375.722C399.824 375.769 399.655 375.722 399.467 375.826C399.278 375.929 399.156 375.976 399.118 375.948C399.081 375.92 399.194 375.751 399.42 375.675C399.646 375.6 399.843 375.685 399.824 375.722Z" fill="#0D395A"/>
<path d="M400.766 375.496C400.766 375.496 400.709 375.6 400.606 375.638C400.502 375.675 400.408 375.638 400.389 375.638C400.371 375.638 400.455 375.534 400.559 375.496C400.662 375.459 400.756 375.459 400.766 375.496Z" fill="#0D395A"/>
<path d="M350.87 204.614L344.902 293.576V373.802H368.755C368.755 373.802 369.762 304.617 369.131 300.09C369.131 300.09 373.028 230.792 373.471 231.78C374.412 233.804 374.355 292.71 375.692 300.005C377.029 307.3 383.222 373.802 383.222 373.802H406.181L398.462 297.558C398.302 288.371 395.939 207.692 395.939 207.692L350.87 204.614Z" fill="#0D395A"/>
<path d="M405.661 369.246C405.401 369.431 405.095 369.538 404.776 369.556C403.914 369.631 403.047 369.489 402.254 369.142C401.152 368.6 399.993 368.184 398.799 367.9C397.453 367.702 396.051 368.408 394.714 369.302C393.485 370.273 392.043 370.938 390.506 371.241C389.233 371.363 387.948 371.206 386.741 370.78C385.938 370.515 385.152 370.201 384.388 369.839C384.099 369.728 383.829 369.572 383.588 369.378C383.588 369.293 384.821 369.867 386.835 370.47C388.005 370.827 389.235 370.942 390.45 370.808C391.911 370.499 393.28 369.854 394.45 368.926C395.119 368.472 395.832 368.087 396.578 367.777C397.301 367.491 398.085 367.394 398.856 367.495C400.094 367.783 401.289 368.23 402.414 368.822C403.154 369.176 403.965 369.359 404.786 369.359C405.341 369.34 405.642 369.199 405.661 369.246Z" fill="#455A64"/>
<path d="M368.949 368.691C368.714 368.469 368.462 368.265 368.196 368.079C367.432 367.653 366.539 367.519 365.683 367.703C364.414 368.061 363.226 368.659 362.181 369.463C361.511 369.914 360.798 370.298 360.054 370.611C359.223 370.952 358.315 371.059 357.428 370.922C355.621 370.612 354.19 369.67 352.721 369.35C351.442 369.073 350.112 369.131 348.862 369.52C346.697 370.169 345.426 370.837 345.389 370.743C345.654 370.537 345.945 370.366 346.255 370.235C347.063 369.817 347.903 369.465 348.768 369.181C350.072 368.732 351.472 368.638 352.825 368.908C354.359 369.237 355.809 370.169 357.465 370.442C359.122 370.715 360.638 369.858 361.89 369.077C362.988 368.262 364.24 367.68 365.57 367.364C366.505 367.195 367.47 367.394 368.262 367.919C368.569 368.095 368.811 368.366 368.949 368.691Z" fill="#455A64"/>
<path d="M394.329 223.064C393.911 223.334 393.432 223.496 392.935 223.534C391.75 223.712 390.541 223.636 389.387 223.311C388.234 222.987 387.162 222.421 386.243 221.652C385.546 221.059 385.236 220.579 385.302 220.541C386.522 221.614 387.971 222.396 389.538 222.828C391.105 223.26 392.749 223.331 394.347 223.035L394.329 223.064Z" fill="#455A64"/>
<path d="M354.729 219.591C354.785 219.591 354.785 220.071 354.54 220.768C354.208 221.68 353.655 222.495 352.931 223.14C352.204 223.785 351.332 224.243 350.389 224.477C349.664 224.637 349.203 224.58 349.203 224.524C350.467 224.237 351.637 223.634 352.603 222.772C353.57 221.909 354.301 220.814 354.729 219.591V219.591Z" fill="#455A64"/>
<path d="M348.92 175.18L344.12 157.587C344.12 157.587 321.529 163.47 320.089 161.644C311.89 151.507 307.748 137.575 306.459 132.577C306.638 131.862 306.882 131.024 307.212 130.045C307.498 129.207 307.924 128.424 308.473 127.73C309.12 126.844 309.887 126.052 310.751 125.376C310.932 125.274 311.077 125.119 311.167 124.932C311.258 124.745 311.288 124.535 311.255 124.33C311.223 124.125 311.128 123.935 310.984 123.786C310.84 123.636 310.653 123.534 310.45 123.494C309.509 123.428 307.136 124.859 305.357 127.579C303.578 130.299 303.042 125.216 302.816 123.371C302.59 121.526 301.602 115.841 300.98 115.436C300.039 114.881 299.295 115.756 299.568 117.601C299.841 119.446 300.265 125.037 299.286 125.132C298.307 125.226 297.272 115.719 297.272 115.719C297.272 115.719 297.375 113.667 296.236 113.714C294.175 113.798 296.029 123.757 296.236 124.708C296.377 125.357 295.295 125.48 295.201 124.764C295.107 124.049 294.373 115.352 292.283 115.352C290.673 115.408 293.723 123.56 292.866 125.452C292.01 127.344 291.182 119.032 289.647 119.145C289.082 119.145 288.659 119.296 289.826 124.002C290.81 127.356 291.972 130.656 293.309 133.886H293.224C293.224 133.886 301.602 183.04 323.346 180.291C346.492 177.43 348.92 175.18 348.92 175.18Z" fill="#FFBE9D"/>
<path d="M316.116 223.948L178.151 213.904C177.219 213.84 176.309 213.592 175.473 213.175C174.637 212.758 173.891 212.18 173.279 211.475C172.667 210.769 172.2 209.949 171.905 209.063C171.611 208.176 171.494 207.24 171.562 206.308L177.737 121.545C177.801 120.613 178.049 119.703 178.466 118.867C178.883 118.03 179.461 117.285 180.167 116.673C180.872 116.061 181.692 115.594 182.579 115.299C183.465 115.004 184.401 114.888 185.333 114.956L323.345 125.027C324.277 125.093 325.186 125.342 326.022 125.759C326.857 126.177 327.602 126.754 328.214 127.46C328.826 128.165 329.293 128.985 329.588 129.871C329.883 130.757 330.001 131.692 329.934 132.624L323.76 217.387C323.693 218.322 323.442 219.233 323.021 220.07C322.6 220.907 322.017 221.652 321.306 222.262C320.595 222.872 319.771 223.335 318.88 223.624C317.989 223.914 317.05 224.024 316.116 223.948V223.948Z" fill="#3B46E7"/>
<path d="M316.116 223.948C316.536 223.971 316.957 223.971 317.377 223.948C318.612 223.815 319.788 223.353 320.785 222.612C321.589 222.015 322.257 221.254 322.744 220.38C323.231 219.505 323.526 218.536 323.609 217.538C323.778 215.147 323.976 212.389 324.192 209.292L327.957 156.796C328.353 151.255 328.77 145.454 329.209 139.392C329.322 137.886 329.426 136.352 329.539 134.817C329.652 133.283 329.915 131.702 329.426 130.233C329.001 128.733 328.07 127.425 326.79 126.534C326.149 126.08 325.436 125.736 324.682 125.517C323.903 125.337 323.109 125.232 322.31 125.207L280.695 122.204L185.351 115.229C184.331 115.156 183.307 115.311 182.354 115.684C181.402 116.057 180.544 116.638 179.845 117.385C179.147 118.128 178.625 119.019 178.32 119.992C178.056 120.987 177.917 122.012 177.906 123.042C177.592 127.221 177.278 131.369 176.965 135.486C176.337 143.725 175.747 151.833 175.195 159.809C174.028 175.754 172.898 191.144 171.825 205.791C171.578 207.57 172.023 209.376 173.068 210.836C174.096 212.274 175.641 213.259 177.379 213.585C180.89 213.933 184.448 214.121 187.912 214.404L208.103 215.881L244.361 218.555L296.848 222.452L311.108 223.544L314.874 223.864L316.135 223.977C316.135 223.977 315.711 223.977 314.874 223.911L311.108 223.666L296.838 222.678L244.333 218.912L208.103 216.333L187.902 214.874C184.429 214.601 180.937 214.422 177.322 214.065C175.472 213.722 173.826 212.676 172.729 211.147C171.629 209.599 171.155 207.692 171.402 205.81C172.465 191.154 173.585 175.773 174.743 159.818C175.32 151.842 175.907 143.734 176.503 135.495C176.805 131.372 177.118 127.224 177.445 123.051C177.46 121.983 177.606 120.921 177.878 119.888C178.377 118.315 179.391 116.957 180.758 116.031C182.124 115.105 183.762 114.667 185.408 114.787L280.752 121.752L322.357 124.802C323.181 124.833 324.001 124.943 324.804 125.131C325.603 125.361 326.357 125.724 327.035 126.204C328.395 127.15 329.391 128.531 329.859 130.12C330.085 130.896 330.177 131.704 330.132 132.511C330.132 133.302 330.028 134.064 329.972 134.846C329.859 136.38 329.746 137.914 329.633 139.42C329.194 145.47 328.767 151.268 328.353 156.815C326.706 178.973 325.369 196.905 324.446 209.311C324.214 212.405 324.007 215.15 323.825 217.548C323.733 218.565 323.423 219.55 322.917 220.437C322.41 221.324 321.718 222.091 320.888 222.687C319.877 223.429 318.683 223.881 317.434 223.995C317.121 224.021 316.806 224.021 316.493 223.995L316.116 223.948Z" fill="#0D395A"/>
<path d="M306.318 146.922C306.16 148.995 305.391 150.976 304.108 152.613C302.826 154.25 301.087 155.47 299.111 156.12C297.135 156.769 295.011 156.819 293.007 156.262C291.004 155.705 289.21 154.567 287.852 152.992C286.495 151.416 285.634 149.474 285.38 147.41C285.125 145.346 285.488 143.252 286.423 141.394C287.357 139.536 288.821 137.997 290.629 136.97C292.438 135.944 294.51 135.476 296.585 135.626C297.966 135.729 299.313 136.102 300.549 136.725C301.785 137.348 302.887 138.209 303.791 139.258C304.695 140.307 305.383 141.524 305.817 142.838C306.25 144.153 306.42 145.541 306.318 146.922V146.922Z" fill="#FAFAFA"/>
<path d="M308.473 158.087C308.21 158.087 307.937 158.087 307.673 158.087C304.826 157.982 302.134 156.764 300.176 154.695C298.218 152.625 297.151 149.87 297.203 147.022C297.255 144.174 298.424 141.46 300.457 139.464C302.489 137.468 305.224 136.35 308.073 136.35C310.922 136.35 313.657 137.468 315.69 139.464C317.722 141.46 318.891 144.174 318.943 147.022C318.996 149.87 317.928 152.625 315.97 154.695C314.012 156.764 311.32 157.982 308.473 158.087V158.087ZM308.473 137.03C305.865 137.126 303.4 138.242 301.606 140.137C299.813 142.033 298.835 144.557 298.883 147.166C298.931 149.775 300.001 152.261 301.863 154.089C303.726 155.917 306.231 156.941 308.84 156.941C311.45 156.941 313.955 155.917 315.817 154.089C317.679 152.261 318.749 149.775 318.797 147.166C318.846 144.557 317.868 142.033 316.074 140.137C314.281 138.242 311.815 137.126 309.207 137.03H308.473Z" fill="#FAFAFA"/>
<path d="M187.166 178.682L186.555 187.153L185.689 187.087L186.244 179.416L184.258 179.275L184.314 178.503L187.166 178.682Z" fill="#FAFAFA"/>
<path d="M195.328 187.012L195.263 187.783L189.342 187.351V186.739L193.107 183.557C194.124 182.682 194.349 182.136 194.387 181.552C194.462 180.611 193.813 179.924 192.505 179.83C192.076 179.768 191.64 179.806 191.229 179.939C190.817 180.073 190.442 180.3 190.132 180.601L189.558 180.027C189.966 179.644 190.453 179.357 190.986 179.186C191.518 179.015 192.082 178.965 192.636 179.039C194.349 179.161 195.375 180.112 195.272 181.524C195.211 182.038 195.038 182.532 194.765 182.971C194.492 183.41 194.125 183.784 193.691 184.065L190.622 186.673L195.328 187.012Z" fill="#FAFAFA"/>
<path d="M204.29 186.212L202.605 186.09L202.436 188.311L201.57 188.245L201.73 186.024L196.967 185.685V185.054L201.852 179.783L202.793 179.849L198.087 184.988L201.758 185.261L201.899 183.303L202.746 183.36L202.605 185.318L204.29 185.44V186.212Z" fill="#FAFAFA"/>
<path d="M217.233 187.154L215.549 187.031L215.379 189.253L214.513 189.187L214.673 186.975L209.91 186.627V185.996L214.795 180.725L215.737 180.8L211.03 185.93L214.701 186.203L214.843 184.245L215.69 184.311L215.539 186.259L217.233 186.382V187.154Z" fill="#FAFAFA"/>
<path d="M224.631 187.427C224.528 188.867 223.445 189.912 221.384 189.761C220.27 189.722 219.214 189.253 218.438 188.453L218.908 187.804C219.565 188.507 220.47 188.925 221.431 188.971C222.862 189.074 223.671 188.425 223.746 187.399C223.822 186.373 223.2 185.592 221.054 185.432L219.256 185.3L220 181.102L224.622 181.44L224.565 182.212L220.706 181.93L220.217 184.594L221.308 184.678C223.85 184.857 224.744 185.93 224.631 187.427Z" fill="#FAFAFA"/>
<path d="M232.979 188C232.949 188.364 232.844 188.717 232.67 189.039C232.496 189.36 232.257 189.641 231.968 189.865C231.68 190.089 231.348 190.25 230.993 190.339C230.639 190.428 230.27 190.442 229.91 190.381C227.661 190.221 226.559 188.574 226.757 185.91C226.964 183.039 228.64 181.655 230.936 181.825C231.634 181.845 232.314 182.053 232.904 182.427L232.499 183.105C232.024 182.78 231.465 182.6 230.889 182.587C229.063 182.455 227.811 183.529 227.642 185.825C227.642 186.023 227.642 186.268 227.642 186.522C227.916 186.072 228.317 185.713 228.794 185.489C229.271 185.264 229.803 185.185 230.324 185.261C230.684 185.246 231.043 185.308 231.377 185.442C231.711 185.576 232.013 185.779 232.264 186.037C232.514 186.296 232.707 186.604 232.831 186.942C232.954 187.28 233.004 187.641 232.979 188ZM232.122 188C232.207 186.889 231.435 186.117 230.136 186.023C229.873 185.973 229.603 185.978 229.342 186.037C229.081 186.096 228.834 186.208 228.618 186.366C228.402 186.524 228.221 186.724 228.085 186.955C227.95 187.186 227.863 187.442 227.83 187.708C227.755 188.649 228.47 189.59 229.929 189.685C230.188 189.729 230.453 189.718 230.708 189.653C230.963 189.589 231.201 189.471 231.407 189.309C231.614 189.147 231.784 188.943 231.907 188.711C232.031 188.479 232.104 188.224 232.122 187.962V188Z" fill="#FAFAFA"/>
<path d="M244.531 188.942C244.428 190.354 243.326 191.361 241.284 191.21C240.167 191.169 239.109 190.701 238.328 189.902L238.799 189.253C239.465 189.953 240.375 190.371 241.34 190.42C242.743 190.514 243.562 189.921 243.637 188.876C243.712 187.831 243.044 187.144 241.481 186.993L240.879 186.946L240.926 186.306L243.477 183.548L239.156 183.238L239.213 182.466L244.644 182.861L244.597 183.473L241.99 186.297C243.797 186.57 244.625 187.586 244.531 188.942Z" fill="#FAFAFA"/>
<path d="M253.002 189.46C252.974 189.827 252.871 190.183 252.697 190.507C252.524 190.831 252.284 191.116 251.994 191.342C251.705 191.568 251.371 191.731 251.014 191.82C250.657 191.909 250.286 191.923 249.924 191.86C247.684 191.7 246.573 190.053 246.771 187.389C246.978 184.565 248.653 183.134 250.95 183.304C251.648 183.324 252.327 183.532 252.917 183.906L252.512 184.584C252.039 184.255 251.479 184.075 250.903 184.066C249.077 183.935 247.825 185.008 247.655 187.304C247.655 187.502 247.655 187.737 247.655 188.001C247.93 187.551 248.331 187.192 248.807 186.968C249.284 186.744 249.817 186.664 250.338 186.74C250.697 186.724 251.055 186.785 251.389 186.917C251.722 187.049 252.025 187.25 252.276 187.506C252.527 187.763 252.722 188.069 252.847 188.406C252.972 188.742 253.025 189.102 253.002 189.46V189.46ZM252.145 189.46C252.23 188.349 251.458 187.577 250.159 187.483C249.896 187.434 249.626 187.438 249.365 187.497C249.104 187.556 248.857 187.668 248.641 187.826C248.425 187.984 248.244 188.185 248.108 188.416C247.972 188.646 247.886 188.902 247.853 189.168C247.778 190.109 248.493 191.051 249.952 191.145C250.211 191.189 250.476 191.178 250.731 191.114C250.985 191.049 251.224 190.932 251.43 190.769C251.637 190.607 251.807 190.404 251.93 190.172C252.053 189.94 252.127 189.684 252.145 189.422V189.46Z" fill="#FAFAFA"/>
<path d="M261.22 184.104L261.173 184.716L257.069 192.246L256.128 192.181L260.166 184.763L255.827 184.443L255.704 186.024L254.848 185.968L255.027 183.615L261.22 184.104Z" fill="#FAFAFA"/>
<path d="M273.277 184.979L273.23 185.6L269.126 193.13L268.184 193.065L272.213 185.647L267.874 185.327L267.761 186.909L266.904 186.843L267.074 184.489L273.277 184.979Z" fill="#FAFAFA"/>
<path d="M281.138 191.682C281.034 193.178 279.698 194.007 277.683 193.865C275.669 193.724 274.492 192.698 274.605 191.201C274.635 190.722 274.828 190.266 275.151 189.911C275.475 189.555 275.909 189.32 276.384 189.244C275.999 189.095 275.673 188.824 275.457 188.472C275.241 188.119 275.147 187.706 275.189 187.295C275.292 185.921 276.525 185.149 278.314 185.271C280.102 185.394 281.232 186.354 281.138 187.728C281.118 188.143 280.961 188.54 280.692 188.857C280.423 189.173 280.057 189.392 279.65 189.479C280.111 189.624 280.508 189.921 280.778 190.321C281.048 190.721 281.175 191.2 281.138 191.682ZM280.253 191.606C280.328 190.561 279.481 189.846 277.984 189.724C276.488 189.601 275.565 190.194 275.49 191.239C275.415 192.284 276.243 192.999 277.74 193.122C279.236 193.244 280.178 192.651 280.253 191.606ZM278.031 189.036C279.349 189.131 280.178 188.594 280.243 187.681C280.309 186.768 279.519 186.081 278.257 185.996C276.996 185.911 276.13 186.42 276.064 187.361C275.998 188.302 276.723 188.952 278.031 189.036Z" fill="#FAFAFA"/>
<path d="M289.46 190.334C289.253 193.204 287.577 194.588 285.28 194.419C284.583 194.395 283.904 194.187 283.313 193.816L283.708 193.139C284.187 193.463 284.749 193.643 285.327 193.656C287.144 193.788 288.396 192.715 288.566 190.409C288.566 190.221 288.566 189.976 288.566 189.722C288.288 190.171 287.886 190.53 287.408 190.754C286.93 190.978 286.396 191.058 285.873 190.983C285.513 190.999 285.153 190.938 284.818 190.804C284.483 190.671 284.179 190.469 283.928 190.21C283.676 189.951 283.482 189.643 283.359 189.304C283.235 188.965 283.184 188.604 283.21 188.244C283.241 187.879 283.347 187.526 283.522 187.204C283.697 186.883 283.937 186.602 284.226 186.378C284.516 186.154 284.848 185.993 285.203 185.904C285.558 185.815 285.927 185.801 286.288 185.862C288.575 186.022 289.676 187.67 289.46 190.334ZM288.387 188.564C288.453 187.623 287.747 186.681 286.288 186.597C286.032 186.553 285.769 186.562 285.517 186.625C285.265 186.687 285.028 186.801 284.822 186.959C284.616 187.117 284.445 187.317 284.32 187.544C284.195 187.772 284.118 188.023 284.094 188.282C284.01 189.392 284.782 190.164 286.081 190.258C286.346 190.312 286.62 190.31 286.885 190.253C287.15 190.195 287.401 190.083 287.62 189.924C287.839 189.765 288.023 189.562 288.16 189.327C288.297 189.093 288.384 188.833 288.415 188.564H288.387Z" fill="#FAFAFA"/>
<path d="M298.354 186.805L297.732 195.277L296.866 195.22L297.422 187.549L295.436 187.398L295.492 186.626L298.354 186.805Z" fill="#FAFAFA"/>
<path d="M306.477 195.108L306.421 195.88L300.5 195.457V194.835L304.265 191.654C305.282 190.788 305.508 190.232 305.555 189.649C305.621 188.707 304.981 188.02 303.672 187.926C303.244 187.87 302.809 187.91 302.399 188.044C301.989 188.177 301.613 188.401 301.3 188.698L300.754 188.096C301.162 187.713 301.649 187.425 302.182 187.254C302.714 187.083 303.278 187.033 303.832 187.107C305.545 187.23 306.571 188.18 306.468 189.592C306.411 190.402 306.101 191.108 304.886 192.134L301.818 194.751L306.477 195.108Z" fill="#FAFAFA"/>
<path d="M314.168 194.015C314.064 195.417 312.963 196.434 310.93 196.283C309.81 196.244 308.749 195.775 307.965 194.975L308.435 194.316C308.763 194.669 309.157 194.953 309.595 195.154C310.032 195.354 310.505 195.466 310.986 195.483C312.38 195.587 313.198 194.994 313.283 193.949C313.368 192.904 312.69 192.217 311.118 192.066H310.516L310.563 191.426L313.123 188.668L308.803 188.358L308.859 187.586L314.281 187.981V188.593L311.674 191.417C313.434 191.643 314.272 192.659 314.168 194.015Z" fill="#FAFAFA"/>
<path d="M248.642 197.976L248.375 201.647L316.017 206.567L316.284 202.896L248.642 197.976Z" fill="#FAFAFA"/>
<path d="M281.07 207.704L280.803 211.375L315.492 213.898L315.759 210.227L281.07 207.704Z" fill="#FAFAFA"/>
<path d="M207.78 151.623L188.713 150.233C186.141 150.045 183.905 151.978 183.717 154.55L182.851 166.435C182.663 169.007 184.596 171.243 187.168 171.431L206.235 172.821C208.806 173.008 211.043 171.076 211.231 168.504L212.097 156.619C212.285 154.047 210.352 151.81 207.78 151.623Z" fill="#455A64"/>
<path d="M182.951 165.213L183.055 163.857L197.664 164.921C198.072 164.963 198.485 164.923 198.878 164.802C199.271 164.682 199.635 164.483 199.95 164.219C200.265 163.955 200.523 163.631 200.71 163.265C200.897 162.899 201.009 162.499 201.039 162.09C201.068 161.68 201.015 161.268 200.883 160.879C200.751 160.491 200.541 160.132 200.268 159.826C199.994 159.519 199.662 159.27 199.291 159.095C198.919 158.919 198.516 158.82 198.106 158.802L183.497 157.739L183.591 156.374L198.21 157.438C199.353 157.559 200.404 158.121 201.142 159.003C201.879 159.885 202.245 161.019 202.162 162.166C202.079 163.313 201.553 164.383 200.696 165.15C199.84 165.916 198.718 166.32 197.569 166.276L182.951 165.213Z" fill="#3B46E7"/>
<path d="M201.671 161.444L201.57 162.806L211.596 163.545L211.697 162.184L201.671 161.444Z" fill="#3B46E7"/>
<path d="M261.677 137.995L188.686 132.674L188.229 138.936L261.221 144.257L261.677 137.995Z" fill="#FAFAFA"/>
<path d="M358.643 111.21C357.802 112.065 357.155 113.091 356.744 114.218C356.333 115.345 356.169 116.546 356.261 117.742C356.468 120.135 357.246 122.443 358.53 124.472" fill="#0D395A"/>
<path d="M379.195 148.005L380.475 118.514L368.643 109.553L357.893 114.806C357.893 114.806 357.536 128.304 357.893 134.159C358.251 140.013 364.153 140.635 364.153 140.635C364.153 140.635 363.984 143.863 363.795 147.224C363.689 149.244 364.38 151.225 365.72 152.741C367.06 154.256 368.941 155.186 370.958 155.328V155.328C371.983 155.4 373.011 155.266 373.982 154.934C374.954 154.603 375.85 154.081 376.617 153.399C377.384 152.717 378.007 151.888 378.45 150.962C378.893 150.036 379.146 149.031 379.195 148.005V148.005Z" fill="#FFBE9D"/>
<path d="M359.811 124.652C359.811 124.801 359.855 124.946 359.937 125.07C360.02 125.194 360.138 125.29 360.275 125.347C360.413 125.404 360.564 125.419 360.711 125.39C360.857 125.361 360.991 125.289 361.096 125.184C361.201 125.079 361.273 124.945 361.302 124.799C361.331 124.653 361.316 124.501 361.259 124.364C361.202 124.226 361.106 124.108 360.982 124.026C360.858 123.943 360.713 123.899 360.564 123.899C360.465 123.899 360.367 123.918 360.275 123.956C360.184 123.994 360.101 124.049 360.031 124.119C359.961 124.189 359.906 124.272 359.868 124.364C359.83 124.455 359.811 124.553 359.811 124.652V124.652Z" fill="#0D395A"/>
<path d="M358.341 123.833C358.436 123.927 358.991 123.456 359.791 123.409C360.591 123.362 361.203 123.758 361.288 123.654C361.372 123.551 361.231 123.428 360.968 123.24C360.611 123.007 360.188 122.898 359.763 122.929C359.339 122.949 358.934 123.112 358.614 123.391C358.37 123.598 358.294 123.786 358.341 123.833Z" fill="#0D395A"/>
<path d="M368.527 124.651C368.527 124.848 368.606 125.038 368.745 125.177C368.885 125.316 369.074 125.395 369.271 125.395C369.421 125.397 369.568 125.354 369.693 125.272C369.818 125.19 369.916 125.072 369.974 124.934C370.032 124.796 370.048 124.644 370.019 124.497C369.991 124.35 369.919 124.215 369.813 124.109C369.707 124.003 369.572 123.932 369.425 123.903C369.278 123.874 369.126 123.89 368.988 123.948C368.85 124.006 368.732 124.104 368.65 124.229C368.568 124.355 368.526 124.501 368.527 124.651V124.651Z" fill="#0D395A"/>
<path d="M367.285 123.833C367.379 123.927 367.934 123.456 368.734 123.409C369.535 123.362 370.146 123.757 370.231 123.654C370.316 123.55 370.175 123.428 369.911 123.24C369.554 123.007 369.131 122.898 368.706 122.929C368.28 122.951 367.873 123.113 367.548 123.39C367.313 123.597 367.238 123.786 367.285 123.833Z" fill="#0D395A"/>
<path d="M367.032 131.41C365.8 132.031 364.489 132.481 363.135 132.746C363.434 133.151 363.858 133.445 364.342 133.582C364.825 133.72 365.341 133.694 365.808 133.509C366.031 133.459 366.241 133.364 366.425 133.229C366.609 133.094 366.763 132.923 366.878 132.726C366.993 132.529 367.066 132.31 367.092 132.084C367.119 131.857 367.098 131.628 367.032 131.41V131.41Z" fill="#FAFAFA"/>
<path d="M364.15 140.635C366.933 140.521 369.624 139.613 371.907 138.018C371.907 138.018 370.146 142.32 364.282 142.075L364.15 140.635Z" fill="#EB996E"/>
<path d="M364.367 130.676C363.936 130.571 363.493 130.517 363.049 130.515C362.842 130.515 362.644 130.515 362.597 130.327C362.572 130.1 362.614 129.871 362.72 129.668C362.889 129.141 363.077 128.586 363.266 128.002C363.652 126.807 363.981 125.734 364.207 124.943C364.364 124.526 364.462 124.088 364.499 123.644C364.282 124.031 364.111 124.441 363.991 124.868C363.708 125.64 363.341 126.75 362.955 127.899C362.776 128.492 362.597 129.047 362.428 129.584C362.312 129.847 362.286 130.141 362.353 130.421C362.381 130.494 362.426 130.559 362.485 130.61C362.544 130.661 362.615 130.696 362.692 130.713C362.807 130.73 362.924 130.73 363.04 130.713C363.482 130.762 363.928 130.749 364.367 130.676V130.676Z" fill="#0D395A"/>
<path d="M379.607 129C379.513 128.025 379.622 127.041 379.927 126.11C380.079 125.645 380.354 125.231 380.724 124.911C381.094 124.591 381.544 124.377 382.026 124.294C382.584 124.266 383.132 124.442 383.57 124.788C384.008 125.134 384.306 125.627 384.407 126.176C384.477 126.738 384.375 127.308 384.117 127.811C383.859 128.315 383.455 128.729 382.958 129C382.456 129.257 381.903 129.398 381.339 129.413C380.775 129.428 380.216 129.316 379.701 129.085" fill="#FFBE9D"/>
<path d="M381.32 128.142C381.32 128.076 381.631 128.227 382.045 128.095C382.303 128.006 382.526 127.838 382.683 127.615C382.84 127.392 382.923 127.126 382.92 126.853C382.946 126.715 382.941 126.574 382.905 126.439C382.869 126.304 382.803 126.178 382.713 126.071C382.53 125.933 382.302 125.866 382.073 125.883C381.64 125.883 381.329 126.034 381.301 125.968C381.273 125.902 381.499 125.695 382.026 125.544C382.187 125.506 382.355 125.503 382.517 125.535C382.68 125.568 382.833 125.635 382.967 125.733C383.122 125.879 383.24 126.061 383.31 126.262C383.381 126.464 383.402 126.679 383.372 126.89C383.348 127.291 383.196 127.674 382.939 127.982C382.714 128.232 382.407 128.393 382.073 128.434C381.537 128.491 381.264 128.18 381.32 128.142Z" fill="#EB996E"/>
<path d="M357.975 111.784C355.377 115.012 358.841 117.046 360.564 118.373C361.891 119.408 365.807 122.138 369.243 120.848C368.028 119.22 366.645 118.505 366.108 116.951C367.511 118.928 368.988 120.425 371.398 120.67C370.918 119.267 370.24 116.415 370.758 116.302C371.398 121.874 376.622 126.562 380.218 124.774C380.892 123.021 381.143 121.134 380.95 119.266C380.757 117.398 380.126 115.602 379.107 114.024C378.064 112.463 376.708 111.136 375.125 110.126C373.542 109.117 371.766 108.447 369.911 108.16C367.781 107.836 365.605 107.989 363.541 108.607C361.477 109.226 359.576 110.295 357.975 111.737" fill="#0D395A"/>
<path d="M382.647 129.537C382.647 129.481 383.089 129.904 382.91 130.704C382.856 130.936 382.749 131.151 382.599 131.336C382.449 131.52 382.26 131.668 382.044 131.768C381.776 131.89 381.483 131.948 381.189 131.937C380.895 131.925 380.607 131.845 380.35 131.702C380.097 131.55 379.881 131.344 379.718 131.098C379.555 130.852 379.45 130.573 379.409 130.281C379.351 129.811 379.472 129.338 379.747 128.954C380.218 128.313 380.745 128.248 380.745 128.295C380.745 128.342 380.359 128.558 380.039 129.142C379.857 129.468 379.794 129.847 379.86 130.215C379.895 130.432 379.977 130.64 380.098 130.823C380.22 131.007 380.38 131.162 380.566 131.279C380.758 131.384 380.97 131.446 381.188 131.461C381.406 131.475 381.624 131.442 381.828 131.363C381.995 131.294 382.146 131.19 382.271 131.059C382.396 130.927 382.492 130.771 382.553 130.601C382.653 130.256 382.685 129.894 382.647 129.537Z" fill="#3B46E7"/>
<path d="M341.954 178.032L350.783 176.196L353.466 191.05C351.196 198.662 349.311 206.385 347.818 214.187L368.527 227.111L371.718 221.049L376.829 225.906L398.864 214.187C396.144 200.067 389.273 196.378 389.273 194.081C389.273 187.492 388.331 193.893 393.857 172.064C399.382 150.235 379.22 148.005 379.22 148.005C379.22 148.005 379.671 151.054 363.632 148.146C357.758 147.082 334.311 159.394 334.311 159.394L341.954 178.032Z" fill="#3B46E7"/>
<path d="M363.603 148.145C363.603 148.145 363.415 164.298 367.265 163.206C371.115 162.114 378.871 155.214 379.191 147.966L363.603 148.145Z" fill="#FFBE9D"/>
<path d="M364.581 176.451C364.533 174.538 364.644 172.623 364.911 170.728C365.022 168.825 365.299 166.935 365.739 165.08C365.786 166.997 365.673 168.915 365.4 170.813C365.29 172.712 365.016 174.599 364.581 176.451V176.451Z" fill="#0D395A"/>
<path d="M367.041 175.143C366.757 173.632 366.634 172.095 366.674 170.559C366.555 169.024 366.596 167.482 366.796 165.956C367.079 167.47 367.202 169.009 367.163 170.549C367.293 172.08 367.252 173.621 367.041 175.143Z" fill="#0D395A"/>
<path d="M363.584 178.032C363.452 178.032 363.358 177.618 363.584 177.157C363.81 176.695 364.177 176.488 364.261 176.592C364.346 176.695 364.195 176.997 364.035 177.354C363.875 177.712 363.725 178.042 363.584 178.032Z" fill="#0D395A"/>
<path d="M364.113 178.033C363.981 178.033 363.934 177.694 364 177.327C364.066 176.96 364.245 176.696 364.377 176.724C364.509 176.752 364.556 177.063 364.49 177.43C364.424 177.797 364.245 178.061 364.113 178.033Z" fill="#0D395A"/>
<path d="M364.611 178.042C364.479 178.042 364.338 177.769 364.3 177.402C364.262 177.035 364.347 176.734 364.488 176.724C364.629 176.715 364.761 176.997 364.789 177.355C364.818 177.712 364.761 178.023 364.611 178.042Z" fill="#0D395A"/>
<path d="M365.431 178.296C365.29 178.296 365.187 177.825 364.942 177.355C364.697 176.884 364.415 176.47 364.509 176.357C364.603 176.244 365.102 176.526 365.394 177.148C365.685 177.769 365.563 178.305 365.431 178.296Z" fill="#0D395A"/>
<path d="M367.134 176.592C367.012 176.639 366.758 176.234 366.758 175.651C366.758 175.067 367.012 174.709 367.134 174.709C367.257 174.709 367.247 175.152 367.247 175.651C367.247 176.149 367.266 176.545 367.134 176.592Z" fill="#0D395A"/>
<path d="M367.642 176.328C367.51 176.328 367.369 176.027 367.332 175.632C367.294 175.236 367.332 174.898 367.51 174.888C367.689 174.879 367.783 175.189 367.821 175.585C367.859 175.98 367.774 176.319 367.642 176.328Z" fill="#0D395A"/>
<path d="M368.444 176.196C368.34 176.281 368.048 176.083 367.794 175.754C367.54 175.424 367.418 175.095 367.531 175.02C367.643 174.944 367.926 175.133 368.18 175.453C368.434 175.773 368.528 176.112 368.444 176.196Z" fill="#0D395A"/>
<path d="M368.706 175.933C368.583 175.989 368.348 175.744 368.047 175.481C367.745 175.217 367.482 175.02 367.529 174.888C367.576 174.756 368 174.775 368.376 175.114C368.753 175.453 368.828 175.857 368.706 175.933Z" fill="#0D395A"/>
<path d="M362.428 149.925C362.428 149.869 362.71 149.727 363.039 150.029C363.113 150.114 363.167 150.213 363.198 150.321C363.23 150.429 363.238 150.542 363.223 150.653C363.207 150.764 363.168 150.87 363.109 150.965C363.049 151.06 362.97 151.141 362.876 151.203C362.783 151.265 362.677 151.306 362.566 151.324C362.455 151.342 362.342 151.336 362.234 151.307C362.126 151.278 362.025 151.226 361.938 151.155C361.851 151.084 361.781 150.995 361.731 150.895C361.687 150.77 361.673 150.636 361.691 150.505C361.709 150.374 361.758 150.25 361.835 150.142C362.108 149.784 362.437 149.869 362.418 149.925C362.399 149.981 362.23 150.066 362.136 150.32C362.042 150.575 362.136 150.913 362.522 150.866C362.908 150.819 362.936 150.49 362.785 150.254C362.635 150.019 362.437 150 362.428 149.925Z" fill="#0D395A"/>
<path d="M362.804 152.966C362.719 153.07 362.456 152.966 362.202 152.834C361.947 152.702 361.806 152.42 361.882 152.307C361.957 152.194 362.23 152.251 362.484 152.439C362.738 152.627 362.879 152.853 362.804 152.966Z" fill="#0D395A"/>
<path d="M363.049 153.607C363.162 153.692 363.049 154.021 362.672 154.162C362.296 154.304 361.985 154.162 362.014 154.021C362.042 153.88 362.258 153.805 362.494 153.711C362.729 153.616 362.945 153.522 363.049 153.607Z" fill="#0D395A"/>
<path d="M363.07 155.197C363.173 155.281 363.07 155.526 362.928 155.742C362.787 155.959 362.514 156.072 362.411 155.978C362.307 155.884 362.364 155.648 362.552 155.432C362.74 155.215 362.957 155.149 363.07 155.197Z" fill="#0D395A"/>
<path d="M362.663 156.92C362.663 156.864 363.039 156.732 363.482 157.136C363.606 157.255 363.695 157.406 363.74 157.572C363.785 157.738 363.783 157.913 363.736 158.078C363.672 158.295 363.542 158.487 363.362 158.626C363.183 158.764 362.965 158.843 362.738 158.85C362.515 158.833 362.304 158.746 362.134 158.6C361.965 158.454 361.846 158.258 361.797 158.04C361.755 157.859 361.774 157.668 361.851 157.499C361.927 157.329 362.057 157.188 362.22 157.099C362.766 156.798 363.162 157.099 363.068 157.146C362.973 157.193 362.729 157.146 362.418 157.381C362.336 157.443 362.274 157.528 362.242 157.626C362.21 157.724 362.209 157.829 362.239 157.927C362.278 158.044 362.351 158.146 362.448 158.222C362.545 158.297 362.662 158.342 362.785 158.351C362.903 158.343 363.016 158.303 363.112 158.236C363.209 158.169 363.285 158.077 363.334 157.969C363.382 157.862 363.4 157.744 363.387 157.627C363.373 157.51 363.328 157.399 363.256 157.306C362.973 157.033 362.653 157.033 362.663 156.92Z" fill="#0D395A"/>
<path d="M363.718 159.658C363.784 159.78 363.577 160.006 363.351 160.26C363.125 160.515 362.937 160.75 362.805 160.703C362.673 160.656 362.692 160.279 362.984 159.94C363.275 159.602 363.661 159.536 363.718 159.658Z" fill="#0D395A"/>
<path d="M364.243 161.362C364.366 161.409 364.347 161.785 364.055 162.124C363.763 162.463 363.387 162.529 363.321 162.416C363.255 162.303 363.462 162.058 363.688 161.804C363.914 161.55 364.112 161.315 364.243 161.362Z" fill="#0D395A"/>
<path d="M364.527 164.119C364.396 164.119 364.254 163.818 364.226 163.413C364.198 163.008 364.226 162.688 364.405 162.67C364.584 162.651 364.678 162.971 364.706 163.376C364.735 163.78 364.669 164.11 364.527 164.119Z" fill="#0D395A"/>
<path d="M369.1 164.562C369.034 164.675 368.771 164.656 368.516 164.562C368.262 164.468 368.112 164.204 368.178 164.082C368.243 163.959 368.507 163.988 368.761 164.129C369.015 164.27 369.166 164.392 369.1 164.562Z" fill="#0D395A"/>
<path d="M370.692 162.679C370.786 162.773 370.626 163.084 370.344 163.376C370.061 163.667 369.741 163.827 369.647 163.733C369.553 163.639 369.704 163.328 369.995 163.037C370.287 162.745 370.588 162.594 370.692 162.679Z" fill="#0D395A"/>
<path d="M371.992 161.625C371.992 161.55 372.237 161.513 372.595 161.522H372.642L372.708 161.578C372.792 161.661 372.855 161.764 372.89 161.878C372.924 161.991 372.93 162.112 372.905 162.228C372.879 162.376 372.805 162.511 372.695 162.614C372.584 162.716 372.443 162.778 372.293 162.793C372.134 162.808 371.973 162.772 371.835 162.689C371.698 162.606 371.591 162.48 371.531 162.331C371.482 162.214 371.47 162.084 371.496 161.959C371.523 161.835 371.588 161.722 371.682 161.635C371.992 161.352 372.284 161.494 372.246 161.55C372.209 161.607 372.058 161.644 371.955 161.851C371.929 161.897 371.916 161.949 371.916 162.002C371.916 162.055 371.929 162.107 371.955 162.153C371.989 162.203 372.035 162.243 372.09 162.269C372.144 162.296 372.205 162.307 372.265 162.303C372.463 162.303 372.557 161.955 372.453 161.833L372.566 161.889C372.199 161.795 371.983 161.738 371.992 161.625Z" fill="#0D395A"/>
<path d="M373.336 161.371C373.204 161.371 373.148 161.023 373.223 160.665C373.298 160.307 373.468 160.034 373.6 160.053C373.732 160.072 373.779 160.401 373.703 160.759C373.628 161.117 373.468 161.399 373.336 161.371Z" fill="#0D395A"/>
<path d="M375.398 159.922C375.351 160.045 375.041 160.026 374.711 159.922C374.382 159.819 374.165 159.555 374.222 159.433C374.278 159.311 374.589 159.329 374.909 159.433C375.229 159.537 375.455 159.8 375.398 159.922Z" fill="#0D395A"/>
<path d="M375.633 158.133C375.689 158.133 375.68 158.302 375.793 158.425C375.906 158.547 376.047 158.575 376.15 158.425C376.254 158.274 376.15 158.161 376 158.104C375.849 158.048 375.717 158.104 375.661 158.104C375.604 158.104 375.661 157.841 375.981 157.775C376.081 157.756 376.183 157.764 376.279 157.797C376.375 157.83 376.46 157.887 376.527 157.963C376.613 158.064 376.665 158.19 376.673 158.323C376.682 158.455 376.647 158.587 376.574 158.698C376.508 158.814 376.407 158.906 376.285 158.96C376.163 159.015 376.027 159.028 375.896 158.999C375.799 158.974 375.71 158.925 375.637 158.855C375.565 158.786 375.511 158.699 375.482 158.603C375.388 158.246 375.586 158.086 375.633 158.133Z" fill="#0D395A"/>
<path d="M377.074 156.645C376.942 156.645 376.782 156.551 376.707 156.335C376.631 156.118 376.707 155.911 376.801 155.864C376.895 155.817 377.092 155.958 377.168 156.175C377.243 156.391 377.196 156.608 377.074 156.645Z" fill="#0D395A"/>
<path d="M378.421 155.328C378.355 155.441 378.091 155.422 377.837 155.271C377.583 155.121 377.432 154.914 377.508 154.801C377.583 154.688 377.828 154.707 378.082 154.848C378.336 154.989 378.487 155.206 378.421 155.328Z" fill="#0D395A"/>
<path d="M379.343 153.352C379.4 153.483 379.174 153.7 378.854 153.841C378.534 153.982 378.214 154.001 378.157 153.841C378.101 153.681 378.327 153.502 378.647 153.361C378.967 153.22 379.287 153.267 379.343 153.352Z" fill="#0D395A"/>
<path d="M379.766 150.989C379.766 150.942 379.945 150.763 380.265 150.932C380.357 150.985 380.435 151.06 380.491 151.151C380.547 151.241 380.579 151.344 380.585 151.45C380.589 151.59 380.548 151.727 380.469 151.842C380.389 151.957 380.275 152.044 380.143 152.09C380.015 152.145 379.873 152.157 379.737 152.125C379.601 152.093 379.48 152.018 379.39 151.911C379.322 151.828 379.277 151.729 379.259 151.624C379.241 151.518 379.25 151.41 379.286 151.309C379.409 150.979 379.672 150.96 379.682 151.026C379.691 151.092 379.606 151.196 379.625 151.375C379.644 151.553 379.757 151.713 379.964 151.638C380.171 151.563 380.171 151.375 380.049 151.215C379.926 151.055 379.823 151.055 379.766 150.989Z" fill="#0D395A"/>
<path d="M381.056 148.928C381.056 149.059 380.849 149.229 380.519 149.304C380.19 149.379 379.907 149.304 379.879 149.201C379.851 149.097 380.086 148.899 380.416 148.824C380.745 148.749 381.028 148.796 381.056 148.928Z" fill="#0D395A"/>
<path d="M379.736 148.241L380.254 147.845Z" fill="#0D395A"/>
<path d="M336.983 161.663C336.861 161.663 336.814 161.39 336.898 161.145C336.983 160.9 337.143 160.74 337.266 160.778C337.388 160.815 337.435 161.051 337.36 161.295C337.284 161.54 337.115 161.738 336.983 161.663Z" fill="#0D395A"/>
<path d="M338.115 163.027C338.115 162.97 338.284 162.792 338.623 162.942C338.74 162.994 338.839 163.078 338.908 163.185C338.978 163.292 339.015 163.417 339.015 163.545C339.015 163.672 338.978 163.797 338.908 163.904C338.839 164.011 338.74 164.095 338.623 164.147C338.498 164.217 338.354 164.245 338.212 164.228C338.07 164.212 337.937 164.15 337.832 164.053C337.754 163.977 337.697 163.884 337.664 163.78C337.631 163.677 337.624 163.567 337.644 163.46C337.71 163.093 337.983 163.036 338.002 163.093C338.02 163.149 337.945 163.281 338.002 163.469C338.058 163.658 338.19 163.827 338.425 163.714C338.661 163.601 338.613 163.394 338.425 163.234C338.237 163.074 338.143 163.093 338.115 163.027Z" fill="#0D395A"/>
<path d="M339.516 166.106C339.459 166.229 339.167 166.229 338.857 166.106C338.546 165.984 338.349 165.777 338.396 165.654C338.443 165.532 338.744 165.532 339.054 165.654C339.365 165.777 339.563 165.984 339.516 166.106Z" fill="#0D395A"/>
<path d="M339.865 167.987C339.818 168.119 339.592 168.156 339.347 168.081C339.102 168.006 338.942 167.836 338.98 167.705C339.018 167.573 339.253 167.535 339.498 167.62C339.743 167.705 339.903 167.865 339.865 167.987Z" fill="#0D395A"/>
<path d="M340.438 169.268C340.551 169.333 340.523 169.606 340.363 169.87C340.203 170.134 339.987 170.303 339.874 170.228C339.761 170.152 339.789 169.889 339.94 169.625C340.09 169.362 340.288 169.268 340.438 169.268Z" fill="#0D395A"/>
<path d="M340.776 170.578C340.711 170.578 340.936 170.23 341.417 170.361C341.554 170.4 341.68 170.472 341.783 170.57C341.887 170.669 341.964 170.791 342.01 170.926C342.064 171.116 342.043 171.319 341.952 171.494C341.861 171.669 341.707 171.803 341.52 171.868C341.351 171.936 341.166 171.953 340.987 171.918C340.808 171.883 340.644 171.797 340.513 171.67C340.408 171.548 340.35 171.393 340.35 171.232C340.35 171.071 340.408 170.916 340.513 170.794C340.551 170.755 340.598 170.723 340.649 170.702C340.699 170.68 340.754 170.669 340.809 170.669C340.865 170.669 340.919 170.68 340.97 170.702C341.021 170.723 341.067 170.755 341.106 170.794C341.209 170.917 341.162 171.011 341.106 171.011C341.049 171.011 341.031 171.011 340.965 170.954C340.899 170.898 340.767 170.954 340.758 171.03C340.736 171.088 340.733 171.152 340.748 171.212C340.763 171.273 340.796 171.327 340.842 171.369C340.914 171.42 340.997 171.452 341.084 171.461C341.172 171.471 341.26 171.459 341.341 171.425C341.727 171.284 341.567 170.851 341.285 170.71C341.002 170.569 340.824 170.634 340.776 170.578Z" fill="#0D395A"/>
<path d="M342.17 173.035C342.265 173.129 342.17 173.346 342.001 173.515C341.832 173.684 341.596 173.722 341.502 173.628C341.408 173.534 341.502 173.308 341.672 173.148C341.841 172.988 342.048 172.913 342.17 173.035Z" fill="#0D395A"/>
<path d="M342.678 174.654C342.781 174.748 342.678 174.984 342.518 175.181C342.358 175.379 342.094 175.473 341.991 175.379C341.887 175.285 341.991 175.049 342.16 174.852C342.329 174.654 342.584 174.56 342.678 174.654Z" fill="#0D395A"/>
<path d="M352.29 216.568C352.177 216.634 351.923 216.418 351.744 216.079C351.565 215.74 351.499 215.42 351.612 215.354C351.725 215.288 351.98 215.505 352.168 215.844C352.356 216.182 352.413 216.502 352.29 216.568Z" fill="#0D395A"/>
<path d="M353.109 216.57C352.987 216.626 352.761 216.4 352.61 216.061C352.46 215.722 352.441 215.412 352.61 215.355C352.78 215.299 352.959 215.525 353.109 215.864C353.26 216.203 353.232 216.513 353.109 216.57Z" fill="#0D395A"/>
<path d="M354.267 217.18C354.267 217.236 354.267 217.34 354.267 217.481C354.267 217.622 354.408 217.679 354.54 217.603C354.672 217.528 354.663 217.425 354.54 217.302C354.418 217.18 354.324 217.199 354.286 217.133C354.248 217.067 354.399 216.897 354.7 216.992C354.806 217.025 354.899 217.088 354.968 217.175C355.037 217.261 355.079 217.366 355.088 217.476C355.097 217.586 355.073 217.697 355.019 217.793C354.965 217.89 354.884 217.968 354.785 218.018C354.684 218.091 354.562 218.131 354.437 218.131C354.311 218.131 354.19 218.091 354.088 218.018C354.019 217.954 353.966 217.875 353.934 217.786C353.903 217.697 353.895 217.602 353.909 217.509C354.013 217.161 354.248 217.114 354.267 217.18Z" fill="#0D395A"/>
<path d="M357.166 217.792C357.251 217.896 357.072 218.169 356.771 218.395C356.469 218.621 356.168 218.715 356.084 218.602C355.999 218.489 356.178 218.225 356.479 218C356.78 217.774 357.091 217.68 357.166 217.792Z" fill="#0D395A"/>
<path d="M358.116 218.733C358.173 218.856 358.041 219.044 357.824 219.157C357.608 219.27 357.363 219.261 357.307 219.157C357.25 219.053 357.373 218.846 357.598 218.733C357.824 218.62 358.06 218.62 358.116 218.733Z" fill="#0D395A"/>
<path d="M359.453 220.231C359.312 220.231 359.18 220.052 359.133 219.788C359.086 219.525 359.18 219.299 359.312 219.28C359.444 219.261 359.585 219.459 359.623 219.722C359.661 219.986 359.585 220.212 359.453 220.231Z" fill="#0D395A"/>
<path d="M361.608 220.201C361.608 220.258 361.552 220.38 361.608 220.568C361.665 220.757 361.787 220.888 361.994 220.766C362.201 220.644 362.145 220.465 361.994 220.333C361.843 220.201 361.693 220.239 361.655 220.183C361.618 220.126 361.768 219.919 362.126 220.013C362.231 220.041 362.326 220.096 362.404 220.172C362.481 220.247 362.538 220.342 362.568 220.446C362.6 220.585 362.587 220.731 362.532 220.863C362.478 220.994 362.383 221.106 362.262 221.181C362.141 221.257 361.999 221.293 361.857 221.284C361.714 221.276 361.578 221.223 361.467 221.133C361.386 221.062 361.325 220.97 361.291 220.868C361.256 220.765 361.249 220.656 361.269 220.55C361.316 220.183 361.589 220.098 361.608 220.201Z" fill="#0D395A"/>
<path d="M364.168 221.19C364.262 221.293 364.121 221.557 363.857 221.783C363.594 222.009 363.311 222.112 363.227 222.009C363.142 221.905 363.274 221.641 363.537 221.416C363.801 221.19 364.083 221.086 364.168 221.19Z" fill="#0D395A"/>
<path d="M365.864 222.198C365.958 222.292 365.807 222.584 365.459 222.744C365.111 222.904 364.781 222.819 364.772 222.678C364.762 222.537 364.988 222.414 365.252 222.292C365.515 222.17 365.76 222.094 365.864 222.198Z" fill="#0D395A"/>
<path d="M367.144 224.033C367.012 224.08 366.842 223.93 366.767 223.704C366.692 223.478 366.767 223.261 366.861 223.224C366.955 223.186 367.162 223.327 367.238 223.553C367.313 223.779 367.266 223.996 367.144 224.033Z" fill="#0D395A"/>
<path d="M368.592 223.168C368.536 223.168 368.649 222.885 369.006 222.904C369.114 222.912 369.218 222.95 369.306 223.013C369.394 223.076 369.463 223.162 369.505 223.262C369.558 223.397 369.561 223.546 369.512 223.683C369.464 223.819 369.368 223.934 369.242 224.005C369.119 224.085 368.972 224.119 368.827 224.1C368.682 224.081 368.549 224.011 368.451 223.902C368.385 223.813 368.346 223.708 368.338 223.598C368.329 223.488 368.352 223.378 368.404 223.28C368.583 222.96 368.884 223.026 368.856 223.092C368.827 223.158 368.743 223.233 368.733 223.403C368.724 223.572 368.809 223.685 368.988 223.582C369.166 223.478 369.1 223.346 368.931 223.243C368.762 223.139 368.649 223.215 368.592 223.168Z" fill="#0D395A"/>
<path d="M369.947 221.849C369.834 221.924 369.637 221.849 369.505 221.651C369.373 221.453 369.364 221.246 369.505 221.171C369.646 221.096 369.815 221.171 369.947 221.369C370.079 221.566 370.06 221.773 369.947 221.849Z" fill="#0D395A"/>
<path d="M370.616 220.767C370.522 220.861 370.324 220.824 370.174 220.673C370.023 220.522 369.976 220.325 370.07 220.231C370.164 220.136 370.371 220.174 370.522 220.325C370.672 220.475 370.71 220.673 370.616 220.767Z" fill="#0D395A"/>
<path d="M371.352 218.696C371.286 218.696 371.428 218.441 371.719 218.545C371.807 218.575 371.883 218.631 371.938 218.704C371.994 218.778 372.026 218.867 372.03 218.959C372.021 219.074 371.976 219.184 371.902 219.273C371.828 219.361 371.728 219.424 371.616 219.453C371.504 219.482 371.386 219.476 371.278 219.434C371.17 219.393 371.077 219.319 371.013 219.223C370.974 219.149 370.953 219.066 370.953 218.983C370.953 218.899 370.974 218.816 371.013 218.743C371.126 218.498 371.333 218.488 371.352 218.545C371.371 218.601 371.352 218.705 371.352 218.827C371.356 218.881 371.379 218.931 371.418 218.969C371.418 218.969 371.465 218.969 371.522 218.969C371.55 218.972 371.578 218.972 371.606 218.969C371.606 218.969 371.606 218.903 371.606 218.865C371.606 218.827 371.428 218.743 371.352 218.696Z" fill="#0D395A"/>
<path d="M372.857 220.23C372.788 220.201 372.733 220.147 372.702 220.079C372.67 220.011 372.665 219.934 372.688 219.863C372.691 219.826 372.702 219.79 372.72 219.758C372.737 219.725 372.761 219.697 372.79 219.674C372.819 219.651 372.853 219.634 372.889 219.625C372.924 219.615 372.962 219.613 372.998 219.618C373.068 219.644 373.124 219.695 373.156 219.762C373.188 219.829 373.192 219.906 373.168 219.976C373.158 220.05 373.121 220.118 373.063 220.165C373.005 220.212 372.931 220.235 372.857 220.23V220.23Z" fill="#0D395A"/>
<path d="M373.544 221.04C373.491 220.988 373.453 220.923 373.434 220.853C373.414 220.782 373.413 220.707 373.431 220.635C373.431 220.485 373.544 220.324 373.676 220.296C373.807 220.268 373.967 220.456 373.92 220.72C373.873 220.983 373.647 221.125 373.544 221.04Z" fill="#0D395A"/>
<path d="M374.496 222.132C374.444 222.187 374.378 222.227 374.305 222.247C374.232 222.267 374.154 222.266 374.082 222.244C373.922 222.244 373.771 222.122 373.743 221.99C373.715 221.859 373.912 221.708 374.176 221.755C374.439 221.802 374.562 221.981 374.496 222.132Z" fill="#0D395A"/>
<path d="M375.267 223.054C375.22 223.007 375.342 222.819 375.634 222.866C375.724 222.884 375.809 222.925 375.879 222.984C375.95 223.043 376.005 223.119 376.039 223.205C376.073 223.325 376.067 223.453 376.02 223.569C375.974 223.685 375.89 223.783 375.783 223.846C375.675 223.91 375.55 223.936 375.426 223.92C375.302 223.905 375.186 223.848 375.098 223.76C375.043 223.681 375.014 223.588 375.014 223.492C375.014 223.396 375.043 223.302 375.098 223.224C375.248 222.941 375.512 223.017 375.484 223.083C375.455 223.148 375.408 223.214 375.418 223.337C375.427 223.459 375.418 223.459 375.474 223.459C375.531 223.459 375.474 223.459 375.568 223.459C375.662 223.459 375.634 223.403 375.644 223.374C375.634 223.318 375.604 223.268 375.559 223.233C375.418 223.111 375.305 223.111 375.267 223.054Z" fill="#0D395A"/>
<path d="M376.473 224.919C376.402 224.899 376.341 224.853 376.303 224.79C376.264 224.727 376.251 224.652 376.266 224.58C376.266 224.41 376.407 224.288 376.539 224.307C376.575 224.314 376.609 224.327 376.64 224.348C376.671 224.368 376.697 224.395 376.717 224.425C376.737 224.456 376.751 224.491 376.758 224.527C376.764 224.563 376.763 224.6 376.755 224.636C376.753 224.71 376.722 224.781 376.67 224.833C376.617 224.886 376.547 224.916 376.473 224.919V224.919Z" fill="#0D395A"/>
<path d="M378.297 223.949C378.297 224.08 378.034 224.146 377.77 224.08C377.507 224.015 377.318 223.864 377.347 223.732C377.375 223.6 377.62 223.544 377.883 223.6C378.147 223.657 378.326 223.864 378.297 223.949Z" fill="#0D395A"/>
<path d="M378.984 223.619C378.853 223.619 378.73 223.496 378.711 223.308C378.693 223.12 378.787 222.951 378.928 222.941C379.069 222.932 379.182 223.073 379.201 223.261C379.22 223.449 379.126 223.609 378.984 223.619Z" fill="#0D395A"/>
<path d="M380.264 222.602C380.132 222.602 380.02 222.451 380.02 222.263C380.02 222.075 380.132 221.924 380.264 221.924C380.396 221.924 380.509 222.075 380.509 222.263C380.509 222.451 380.405 222.602 380.264 222.602Z" fill="#0D395A"/>
<path d="M381.253 221.218C381.253 221.171 381.422 220.983 381.733 221.171C381.824 221.227 381.897 221.309 381.942 221.406C381.987 221.503 382.003 221.611 381.987 221.717C381.962 221.86 381.884 221.987 381.768 222.074C381.653 222.161 381.509 222.202 381.366 222.188C381.237 222.199 381.108 222.164 381.002 222.089C380.897 222.013 380.822 221.903 380.79 221.778C380.758 221.652 380.772 221.519 380.83 221.403C380.887 221.287 380.983 221.195 381.102 221.143C381.422 220.983 381.62 221.2 381.563 221.247C381.507 221.294 381.394 221.247 381.3 221.426C381.274 221.451 381.255 221.482 381.244 221.517C381.232 221.551 381.229 221.587 381.234 221.623C381.234 221.623 381.29 221.689 381.385 221.699C381.479 221.708 381.526 221.699 381.545 221.633C381.563 221.567 381.545 221.501 381.545 221.435C381.545 221.369 381.281 221.275 381.253 221.218Z" fill="#0D395A"/>
<path d="M383.804 220.427C383.701 220.531 383.522 220.502 383.343 220.484C383.164 220.465 382.976 220.408 382.919 220.286C382.863 220.164 383.07 219.938 383.418 219.994C383.767 220.051 383.898 220.342 383.804 220.427Z" fill="#0D395A"/>
<path d="M385.094 219.751C385.028 219.873 384.765 219.864 384.482 219.817C384.2 219.77 383.955 219.685 383.936 219.544C383.918 219.403 384.209 219.262 384.567 219.327C384.925 219.393 385.16 219.638 385.094 219.751Z" fill="#0D395A"/>
<path d="M385.828 219.158C385.697 219.158 385.603 218.979 385.612 218.79C385.621 218.602 385.753 218.461 385.894 218.48C386.036 218.499 386.12 218.649 386.101 218.838C386.083 219.026 385.96 219.158 385.828 219.158Z" fill="#0D395A"/>
<path d="M386.938 217.415C386.891 217.415 387.032 217.161 387.371 217.227C387.477 217.252 387.571 217.309 387.644 217.39C387.716 217.47 387.762 217.571 387.776 217.678C387.796 217.816 387.769 217.956 387.699 218.075C387.628 218.195 387.52 218.288 387.39 218.337C387.255 218.38 387.108 218.372 386.977 218.317C386.847 218.262 386.739 218.163 386.675 218.036C386.622 217.935 386.606 217.818 386.63 217.706C386.654 217.595 386.717 217.495 386.807 217.424C387.108 217.208 387.324 217.424 387.277 217.424C387.23 217.424 387.117 217.509 387.051 217.641C386.985 217.773 387.051 217.754 387.051 217.782C387.07 217.803 387.093 217.82 387.119 217.831C387.145 217.843 387.174 217.848 387.202 217.848C387.231 217.831 387.255 217.808 387.273 217.78C387.291 217.753 387.302 217.721 387.305 217.688C387.308 217.657 387.302 217.626 387.289 217.598C387.276 217.57 387.255 217.546 387.23 217.528C387.127 217.452 386.976 217.471 386.938 217.415Z" fill="#0D395A"/>
<path d="M388.55 217.369C388.477 217.34 388.417 217.283 388.384 217.212C388.351 217.14 388.346 217.058 388.371 216.983C388.371 216.795 388.55 216.663 388.682 216.692C388.814 216.72 388.889 216.889 388.851 217.077C388.814 217.266 388.682 217.398 388.55 217.369Z" fill="#0D395A"/>
<path d="M389.912 216.221C389.841 216.201 389.78 216.155 389.742 216.092C389.704 216.029 389.69 215.954 389.705 215.882C389.7 215.844 389.704 215.805 389.716 215.768C389.728 215.731 389.748 215.698 389.776 215.67C389.803 215.643 389.836 215.622 389.872 215.609C389.909 215.596 389.948 215.591 389.986 215.596C390.024 215.6 390.061 215.614 390.094 215.634C390.127 215.655 390.154 215.683 390.174 215.716C390.194 215.749 390.206 215.787 390.21 215.825C390.214 215.864 390.208 215.902 390.194 215.939C390.192 216.013 390.162 216.083 390.109 216.136C390.057 216.188 389.986 216.219 389.912 216.221Z" fill="#0D395A"/>
<path d="M391.833 215.11C391.758 215.223 391.523 215.204 391.278 215.11C391.033 215.016 390.817 214.969 390.798 214.827C390.779 214.686 391.052 214.555 391.391 214.63C391.73 214.705 391.909 214.997 391.833 215.11Z" fill="#0D395A"/>
<path d="M392.756 214.451C392.634 214.507 392.446 214.328 392.521 214.084C392.596 213.839 392.841 213.792 392.917 213.905C392.979 213.999 393.003 214.114 392.982 214.225C392.962 214.276 392.932 214.322 392.893 214.361C392.854 214.4 392.807 214.431 392.756 214.451V214.451Z" fill="#0D395A"/>
<path d="M393.867 213.367C393.796 213.347 393.736 213.301 393.697 213.238C393.659 213.175 393.645 213.1 393.66 213.028C393.66 212.859 393.811 212.736 393.942 212.755C394.074 212.774 394.168 212.915 394.15 213.085C394.147 213.159 394.117 213.229 394.064 213.282C394.012 213.334 393.941 213.365 393.867 213.367V213.367Z" fill="#0D395A"/>
<path d="M380.292 163.367L374.051 169.646L389.168 184.509C389.168 184.509 392.246 175.548 394.392 167.66C395.908 162.087 380.292 163.367 380.292 163.367Z" fill="#3B46E7"/>
<path d="M377.857 170.21C377.725 170.21 377.584 169.937 377.546 169.579C377.508 169.222 377.593 168.911 377.725 168.901C377.857 168.892 377.998 169.165 378.036 169.532C378.073 169.899 377.989 170.21 377.857 170.21Z" fill="#0D395A"/>
<path d="M379.297 170.502C379.297 170.634 379.061 170.747 378.77 170.747C378.478 170.747 378.252 170.634 378.252 170.502C378.252 170.37 378.487 170.257 378.77 170.257C379.052 170.257 379.297 170.361 379.297 170.502Z" fill="#0D395A"/>
<path d="M379.691 172.592C379.569 172.516 379.578 172.3 379.578 172.065C379.578 171.829 379.578 171.622 379.691 171.547C379.804 171.472 380.068 171.679 380.068 172.065C380.068 172.45 379.823 172.676 379.691 172.592Z" fill="#0D395A"/>
<path d="M380.933 172.798C380.876 172.798 381.093 172.497 381.497 172.629C381.62 172.668 381.73 172.739 381.816 172.835C381.902 172.931 381.961 173.048 381.987 173.175C382.006 173.345 381.964 173.517 381.869 173.661C381.774 173.804 381.632 173.909 381.468 173.958C381.303 174.008 381.127 173.998 380.969 173.93C380.811 173.863 380.681 173.742 380.603 173.589C380.56 173.463 380.555 173.327 380.588 173.198C380.622 173.069 380.692 172.953 380.792 172.864C380.85 172.806 380.921 172.762 381 172.736C381.078 172.71 381.162 172.702 381.243 172.714C381.366 172.714 381.403 172.808 381.385 172.826C381.366 172.845 381.177 172.883 381.055 173.09C380.933 173.297 380.999 173.57 381.328 173.485C381.657 173.401 381.573 173.099 381.328 172.949C381.083 172.798 380.97 172.855 380.933 172.798Z" fill="#0D395A"/>
<path d="M382.563 175.34C382.441 175.34 382.394 175.086 382.46 174.869C382.525 174.653 382.695 174.512 382.827 174.549C382.958 174.587 383.005 174.803 382.93 175.02C382.855 175.236 382.695 175.377 382.563 175.34Z" fill="#0D395A"/>
<path d="M383.973 175.067C384.105 175.067 384.152 175.463 384.077 175.896C384.001 176.329 383.832 176.668 383.7 176.639C383.568 176.611 383.521 176.244 383.596 175.811C383.672 175.378 383.841 175.049 383.973 175.067Z" fill="#0D395A"/>
<path d="M385.471 176.799C385.471 176.93 385.235 177.072 384.906 177.109C384.576 177.147 384.313 177.062 384.294 176.93C384.275 176.799 384.529 176.658 384.859 176.62C385.188 176.582 385.471 176.639 385.471 176.799Z" fill="#0D395A"/>
<path d="M386.082 177.515C386.082 177.458 386.28 177.307 386.638 177.458C386.746 177.505 386.842 177.577 386.918 177.666C386.995 177.756 387.05 177.862 387.08 177.976C387.112 178.133 387.092 178.296 387.022 178.441C386.952 178.585 386.837 178.703 386.694 178.776C386.548 178.863 386.374 178.891 386.208 178.854C386.042 178.818 385.896 178.719 385.8 178.578C385.739 178.46 385.718 178.324 385.742 178.193C385.766 178.062 385.833 177.943 385.932 177.853C385.992 177.79 386.07 177.746 386.155 177.726C386.24 177.706 386.329 177.711 386.412 177.74C386.525 177.788 386.544 177.853 386.525 177.872C386.506 177.891 386.327 177.872 386.224 178.098C386.12 178.324 386.224 178.475 386.497 178.362C386.769 178.249 386.675 177.948 386.497 177.778C386.318 177.609 386.092 177.59 386.082 177.515Z" fill="#0D395A"/>
<path d="M387.665 180.837C387.533 180.837 387.42 180.479 387.42 180.046C387.42 179.613 387.533 179.265 387.665 179.265C387.796 179.265 387.909 179.613 387.909 180.046C387.909 180.479 387.806 180.837 387.665 180.837Z" fill="#0D395A"/>
<path d="M385.386 156.928C385.028 157.661 384.572 158.342 384.031 158.952C383.089 160.138 381.79 161.776 380.266 163.442C378.741 165.108 377.347 166.68 376.321 167.772C375.796 168.39 375.213 168.957 374.58 169.466C375.006 168.774 375.501 168.128 376.058 167.536C376.999 166.397 378.392 164.835 379.898 163.122L383.758 158.726C384.258 158.089 384.802 157.488 385.386 156.928Z" fill="#0D395A"/>
<path d="M395.957 213.254C395.957 213.386 395.674 213.433 395.392 213.367C395.11 213.301 394.912 213.132 394.94 213C394.968 212.868 395.232 212.821 395.505 212.887C395.778 212.953 395.985 213.123 395.957 213.254Z" fill="#0D395A"/>
<path d="M396.672 212.107C396.672 212.06 396.729 211.909 397.002 211.89C397.091 211.891 397.178 211.918 397.252 211.969C397.325 212.019 397.383 212.09 397.416 212.173C397.446 212.232 397.463 212.298 397.464 212.365C397.465 212.432 397.451 212.498 397.423 212.559C397.395 212.619 397.354 212.673 397.302 212.715C397.25 212.758 397.189 212.788 397.124 212.803C396.654 212.926 396.249 212.464 396.456 212.107C396.486 212.053 396.532 212.009 396.588 211.982C396.643 211.955 396.706 211.946 396.767 211.956C396.851 211.956 396.87 212.041 396.851 212.069C396.822 212.09 396.799 212.119 396.784 212.152C396.769 212.185 396.763 212.221 396.767 212.257C396.767 212.257 396.908 212.361 396.992 212.333C396.996 212.313 396.992 212.292 396.982 212.275C396.971 212.258 396.955 212.245 396.936 212.238C396.832 212.173 396.701 212.173 396.672 212.107Z" fill="#0D395A"/>
<path d="M316.559 178.738C316.022 176.959 309.273 173.307 310.29 172.319C311.607 171.02 317.161 176.442 317.66 176.865C318.159 177.289 318.771 176.564 318.3 176.206C317.622 175.689 310.6 170.116 311.89 168.836C312.605 168.121 313.772 169.561 313.772 169.561C313.772 169.561 319.966 175.274 320.559 174.644C321.152 174.013 317.622 170.53 316.352 169.448C315.081 168.365 315.09 167.321 316.013 167.151C316.634 167.029 320.606 170.267 321.83 171.378C323.054 172.488 326.395 175.576 325.953 172.686C325.948 172.642 325.948 172.598 325.953 172.554C325.444 169.73 325.953 167.368 326.612 166.803C326.75 166.664 326.929 166.572 327.122 166.54C327.316 166.507 327.515 166.536 327.691 166.622C327.867 166.708 328.012 166.847 328.105 167.02C328.199 167.192 328.236 167.389 328.212 167.584C328.244 167.723 328.244 167.868 328.212 168.008C328.212 168.064 328.212 168.149 328.212 168.215C328.182 169.201 328.249 170.188 328.41 171.161C328.539 172.036 328.816 172.882 329.228 173.665C329.709 174.606 330.17 175.322 330.546 175.952C335.055 178.437 348.036 184.998 361.035 185.996C363.388 186.175 375.295 170.775 375.295 170.775L386.977 182.249C385.395 184.951 384.84 185.572 376.905 196.425C363.962 214.131 323.251 184.81 323.251 184.81L322.875 184.622C319.783 183.111 316.778 181.426 313.876 179.576C310.374 177.119 310.581 176.799 310.93 176.423C311.72 175.434 317.105 180.565 316.559 178.738Z" fill="#FFBE9D"/>
</svg>
